<?xml version="1.0" encoding="utf-8" ?>
<svg baseProfile="full" height="200mm" version="1.1" viewBox="0,0,200,200" width="200mm" xmlns="http://www.w3.org/2000/svg" xmlns:ev="http://www.w3.org/2001/xml-events" xmlns:xlink="http://www.w3.org/1999/xlink"><defs /><rect fill="#1a1a1a" height="200" width="200" x="0" y="0" /><text alignment-baseline="middle" fill="#e1ed5e" style="dominant-baseline: central; font-size:9.0px; font-family:Arial;" text-anchor="middle" x="100.0" y="100.0">2026</text><line stroke="#e1ed5e" stroke-width="0.3" x1="100.0" x2="100.0" y1="15.0" y2="10.0" /><path d="M 100.0 14.0 a86.0,86.0 0 0,1 42.46469731375804,11.215312516191453" fill="none" id="id121" stroke="none" /><text fill="#e1ed5e" style="font-size:6.75px; font-family:Arial;" text-anchor="middle"><textPath startOffset="22.20632615414155" xlink:href="#id121">January</textPath></text><path d="M 100.0 79.0 l 0.0 -30.941667157931974 a51.941667157931974,51.941667157931974 0 0,0 0.8940904161173046,0.007695718485939999 l -0.5326099368447762 30.93708281605459" fill="red" stroke="none" /><path d="M 100.36148047927253 79.00311137660856 l 0.42716836333534564 -24.812422973542013 a45.816099746507106,45.816099746507106 0 0,0 0.7884151489353732,0.020362437245739738 l -0.8542101474655867 24.801393744153913" fill="red" stroke="none" /><path d="M 101.44485096284872 79.0497635885617 l 2.128904378084115 -30.86896238091664 a51.94228615221365,51.94228615221365 0 0,0 0.891452834105067,0.06919389697332984 l -2.6599474015515234 30.827743221754844" fill="red" stroke="none" /><path d="M 101.80526077348638 79.07773832637324 l 2.401710930003761 -27.834884178480934 a48.93830690326004,48.93830690326004 0 0,0 0.838650808439492,0.07963999956038129 l -2.880486865533497 27.789418634405376" fill="red" stroke="none" /><path d="M 102.16513564639614 79.11191278185805 l 3.1926911802823583 -30.80140126339642 a51.966426929198846,51.966426929198846 0 0,0 0.8889557548855755,0.09988453688270499 l -3.722413638677659 30.741880773043118" fill="red" stroke="none" /><path d="M 102.52436894288641 79.15227682838746 l 2.9862943805282987 -24.662575068369332 a45.842716500619,45.842716500619 0 0,0 0.7825685081267736,0.10159985222142416 l -3.410377617162918 24.60751689298377" fill="red" stroke="none" /><path d="M 102.88285421437855 79.19881850522331 l 3.4076584243650596 -24.587896607425993 a45.82290868360549,45.82290868360549 0 0,0 0.7803663596305921,0.11500571616258298 l -3.8303937644243073 24.52559640710244" fill="red" stroke="none" /><path d="M 103.59715602781102 79.31037775812273 l 4.771856600590561 -27.44610178021832 a48.85783764664269,48.85783764664269 0 0,0 0.8273374018813574,0.15119062198623054 l -5.24358912357482 27.35989567688135" fill="red" stroke="none" /><path d="M 103.95276090670814 79.375362276772 l 5.823931694945251 -30.387995673916045 a51.94104816365031,51.94104816365031 0 0,0 0.8766501046039787,0.1758477638875581 l -6.346148209016355 30.283243953951278" fill="red" stroke="none" /><path d="M 104.307194497241 79.44645832069477 l 5.738524767885791 -27.383719975965217 a48.97854153156871,48.97854153156871 0 0,0 0.8236727762962904,0.18002296615180532 l -6.20904026833561 27.28088351171754" fill="red" stroke="none" /><path d="M 104.66035177308747 79.52364482259891 l 6.872665789050862 -30.19667882687479 a51.96890290632554,51.96890290632554 0 0,0 0.8705442408090378,0.20602969564313778 l -7.391433716822423 30.073903219090788" fill="red" stroke="none" /><path d="M 105.36241919743992 79.69619591428918 l 6.3310245397116915 -23.97124827120974 a45.79319695808525,45.79319695808525 0 0,0 0.7603897351656509,0.20784323850942632 l -6.742712164101053 23.85871849187402" fill="red" stroke="none" /><path d="M 105.71112130821622 79.79150937346287 l 8.436554721528148 -29.852287809925564 a52.02151742026765,52.02151742026765 0 0,0 0.8596178777954295,0.2509460308027567 l -8.949162817047005 29.702643450204103" fill="red" stroke="none" /><path d="M 106.0581310904928 79.89281104454417 l 7.152937484285493 -23.740896892904967 a45.79505394093026,45.79505394093026 0 0,0 0.7528153560909902,0.23390339565485116 l -7.560538213087201 23.614253362367595" fill="red" stroke="none" /><path d="M 106.74666289553966 80.11325718540242 l 5.977655484791206 -17.619984739255695 a39.606349112774865,39.606349112774865 0 0,0 0.6437314145496503,0.22458525053871087 l -6.28006890340413 17.514478635544776" fill="red" stroke="none" /><path d="M 107.08798089147638 80.2323363322302 l 10.456683476342414 -29.162635340796964 a51.980663797677295,51.980663797677295 0 0,0 0.8396552322974155,0.30925210819713717 l -10.957121034412406 28.978319964793503" fill="red" stroke="none" /><path d="M 107.4271985657038 80.35727306442388 l 11.058263690114675 -29.245812149083903 a52.2666391558097,52.2666391558097 0 0,0 0.8387970144950219,0.32544021013057856 l -11.560043869609363 29.051129235062778" fill="red" stroke="none" /><path d="M 107.76421540070413 80.48803036053334 l 9.16116083505826 -23.022582817539657 a45.77834109532512,45.77834109532512 0 0,0 0.7296547232423868,0.29764448214959643 l -9.556099427889034 22.86147744920648" fill="red" stroke="none" /><path d="M 108.09893153111575 80.62456947434976 l 10.74613579181676 -25.70845384401773 a48.86402758945941,48.86402758945941 0 0,0 0.7732528584647387,0.3310665195746427 l -11.187072408071813 25.519667796480295" fill="red" stroke="none" /><path d="M 108.43124777332544 80.76684994638697 l 9.947460785913375 -22.69189698744234 a45.776484112480105,45.776484112480105 0 0,0 0.7189477625722515,0.3225709042419078 l -10.336590666952405 22.5173057526839" fill="red" stroke="none" /><path d="M 109.08828744355905 81.06846463323043 l 13.409282446347701 -27.93246873545415 a51.984377763367334,51.984377763367334 0 0,0 0.803353535752223,0.3942020910675158 l -13.888107249110357 27.6975114842518" fill="red" stroke="none" /><path d="M 109.41281617654863 81.2277094730956 l 11.106656969976358 -22.150373226507984 a45.77896008960679,45.77896008960679 0 0,0 0.7013762046630432,0.35927213362799615 l -11.486293662228157 21.955908567567487" fill="red" stroke="none" /><path d="M 109.73455568895987 81.39251694778311 l 12.906908683628863 -24.6713966472564 a48.843600778164245,48.843600778164245 0 0,0 0.7416201930243479,0.39614782317984987 l -13.329673923181524 24.445570097574794" fill="red" stroke="none" /><path d="M 110.36928655335952 81.73862282372117 l 13.759492485384042 -24.23187754883336 a48.86588457230443,48.86588457230443 0 0,0 0.7278765888185205,0.4216331014266324 l -14.174565806667891 23.991440290016676" fill="red" stroke="none" /><line stroke="#e1ed5e" stroke-width="0.3" x1="143.23703022742887" x2="145.7803849466894" y1="26.81831364943548" y2="22.513508569990506" /><path d="M 143.74570117128098 25.957352633546492 a86.0,86.0 0 0,1 28.547481713284135,27.462654790039103" fill="none" id="id122" stroke="none" /><text fill="#e1ed5e" style="font-size:6.75px; font-family:Arial;" text-anchor="middle"><textPath startOffset="19.985693538727396" xlink:href="#id122">February</textPath></text><path d="M 110.68208982089419 81.91981866633111 l 19.33550827717065 -32.72669502798067 a59.011819843188114,59.011819843188114 0 0,0 0.8701094269038946,0.524231193988769 l -19.895979770292183 32.38901722453329" fill="red" stroke="none" /><path d="M 110.99172775467656 82.1063720568725 l 12.952198916721825 -21.085113608512877 a45.74553439839651,45.74553439839651 0 0,0 0.6674074097221195,0.41793045873991785 l -13.313225478816207 20.859038808450013" fill="red" stroke="none" /><path d="M 111.2981086023043 82.29822771554956 l 16.64044952661501 -26.07210273859045 a51.929906266580204,51.929906266580204 0 0,0 0.7493559022240641,0.4874019234970393 l -17.086772454623357 25.78180189093388" fill="red" stroke="none" /><path d="M 111.60114157652 82.49532879139004 l 15.387943492996538 -23.218481530019705 a48.854742675234334,48.854742675234334 0 0,0 0.6969834076893615,0.47060630813874793 l -15.785331595092442 22.950163309582287" fill="red" stroke="none" /><path d="M 112.48926042617603 83.11751280151076 l 25.796142953588195 -34.87020354476618 a64.37478629959324,64.37478629959324 0 0,0 0.8851651021423668,0.6666880035365614 l -26.392554209488946 34.42099895172377" fill="red" stroke="none" /><path d="M 112.77801427241765 83.33499621200491 l 19.616733990164725 -25.58401792991065 a53.239079172316224,53.239079172316224 0 0,0 0.722447826542845,0.5638819878942322 l -20.054214371867 25.242557552793194" fill="red" stroke="none" /><path d="M 113.34407831869373 83.78471172551755 l 16.909605346900968 -20.548000300898284 a47.61118316335555,47.61118316335555 0 0,0 0.6283371700087124,0.5262143098726523 l -17.260800053868795 20.253884833631815" fill="red" stroke="none" /><path d="M 113.6212207817346 84.01681056812373 l 20.083330917972855 -23.56585269621774 a51.96271296350882,51.96271296350882 0 0,0 0.6757780547367828,0.5860280698402069 l -20.4860027713564 23.21665963295786" fill="red" stroke="none" /><path d="M 113.89432698308785 84.25364557470407 l 17.6044227249906 -19.95098287364694 a47.60746919766551,47.60746919766551 0 0,0 0.6098041010730653,0.5474881429153029 l -17.945237813659652 19.64499572196234" fill="red" stroke="none" /><path d="M 115.9244219780498 86.31012108654704 l 47.773265934149435 -41.069636740358895 a84.0,84.0 0 0,0 0.9331575460515311,1.1045642014835737 l -48.47313409368808 40.241213589246215" fill="red" stroke="none" /><path d="M 117.45458315368197 88.32363383020206 l 25.775427737319834 -17.242653679794458 a52.01099451747922,52.01099451747922 0 0,0 0.4913883957451618,0.7484182389399264 l -26.068412768422924 16.79641737687686" fill="red" stroke="none" /><line stroke="#e1ed5e" stroke-width="0.3" x1="172.23445277983987" x2="176.4835382374775" y1="55.19839476539836" y2="52.563006222186495" /><path d="M 173.08426987136738 54.67131705675599 a86.0,86.0 0 0,1 12.851231095245387,41.99856678651699" fill="none" id="id123" stroke="none" /><text fill="#e1ed5e" style="font-size:6.75px; font-family:Arial;" text-anchor="middle"><textPath startOffset="22.20632615414155" xlink:href="#id123">March</textPath></text><path d="M 118.03404312379186 89.2402003453031 l 22.66454921503017 -13.52253663494994 a47.392059187643696,47.392059187643696 0 0,0 0.4119505672206665,0.7041570551184553 l -22.893959456721163 13.130400167477589" fill="red" stroke="none" /><path d="M 118.21658344932153 89.55222093294921 l 21.581652378075237 -12.377751106584114 a45.87923716323764,45.87923716323764 0 0,0 0.387007442228561,0.6884430562737432 l -21.791517461596232 12.004424540375577" fill="red" stroke="none" /><path d="M 118.3937258080291 89.86733742301442 l 27.26582770989163 -15.020090815203833 a52.12922242527855,52.12922242527855 0 0,0 0.42619834687902397,0.7896808084558644 l -27.52033415598912 14.54852902341551" fill="red" stroke="none" /><path d="M 119.04729006885535 91.15688171328212 l 22.524826904512086 -10.457640324916627 a45.834050580675594,45.834050580675594 0 0,0 0.32607147433036643,0.7184552712751466 l -22.701500695805798 10.068363044799417" fill="red" stroke="none" /><path d="M 119.34039704204932 91.81776055985345 l 28.523750692652776 -12.06739227694784 a51.97137888345222,51.97137888345222 0 0,0 0.341472532787478,0.8269028235032192 l -28.727244912326448 11.57461488299132" fill="red" stroke="none" /><path d="M 119.47837535516314 92.15188598940014 l 23.040358515672246 -9.2832876037662 a45.84024052349231,45.84024052349231 0 0,0 0.2885893081990448,0.7344283114259799 l -23.19674137375299 8.885310287444435" fill="red" stroke="none" /><path d="M 120.18372546131832 94.20196356495316 l 30.921686342392842 -8.88265471059246 a53.17222778989566,53.17222778989566 0 0,0 0.24513214707241773,0.8818707576787306 l -31.07000526003162 8.349072649494778" fill="red" stroke="none" /><path d="M 120.37134235888165 94.90015583598534 l 24.529555700721406 -6.140828094799341 a46.28653540057773,46.28653540057773 0 0,0 0.18683714245406785,0.7745605769087011 l -24.631625643436294 5.717682286231233" fill="red" stroke="none" /><path d="M 120.53481517161879 95.60439243477599 l 30.275626954819323 -6.480690172874495 a51.96147497494547,51.96147497494547 0 0,0 0.17968947133218136,0.8762296776325649 l -30.3826957220665 5.958584839078519" fill="red" stroke="none" /><path d="M 120.78858239683441 97.02765380044208 l 30.86730088009599 -4.413398793153636 a52.18121794493898,52.18121794493898 0 0,0 0.1194800825156048,0.8902653942094203 l -30.938696961669432 3.8814150568795514" fill="red" stroke="none" /><path d="M 120.87857604477298 97.74499172005257 l 31.794810846464415 -3.4340254605672347 a52.979720568295704,52.979720568295704 0 0,0 0.09012323329770819,0.9075286602313097 l -31.84921120544435 2.88622126963149" fill="red" stroke="none" /><line stroke="#e1ed5e" stroke-width="0.3" x1="184.98032266829074" x2="189.97916517819016" y1="98.17113171792111" y2="98.06355123074" /><path d="M 185.9800911702706 98.14961562048488 a86.0,86.0 0 0,1 -9.607161424134198,41.387399972396054" fill="none" id="id124" stroke="none" /><text fill="#e1ed5e" style="font-size:6.75px; font-family:Arial;" text-anchor="middle"><textPath startOffset="21.466115282336823" xlink:href="#id124">April</textPath></text><path d="M 120.99513854157772 99.54816195383933 l 18.605136034722403 -0.4004026121492161 a39.609444084183224,39.609444084183224 0 0,0 0.008802713981529856,0.6817798988006541 l -18.60927175582165 0.08008645528809923" fill="red" stroke="none" /><path d="M 120.99980553446 99.90962569577887 l 12.90529227105926 -0.05553893381790783 a33.905411778576905,33.905411778576905 0 0,0 -0.002511749571640407,0.5836421426455571 l -12.904336224198117 -0.16661268703133403" fill="red" stroke="none" /><line stroke="#e1ed5e" stroke-width="0.3" x1="174.80103733775053" x2="179.2010983576182" y1="140.37084112569926" y2="142.7455964860345" /><path d="M 175.68104954172406 140.8457921977663 a86.0,86.0 0 0,1 -30.038265399797805,32.042727171017184" fill="none" id="id125" stroke="none" /><text fill="#e1ed5e" style="font-size:6.75px; font-family:Arial;" text-anchor="middle"><textPath startOffset="22.206326154141568" xlink:href="#id125">May</textPath></text><line stroke="#e1ed5e" stroke-width="0.3" x1="143.8653032363475" x2="146.44561519142675" y1="172.8068346515853" y2="177.08958963109032" /><path d="M 144.38136562736335 173.6633856474863 a86.0,86.0 0 0,1 -40.68145358897372,12.25698825130547" fill="none" id="id126" stroke="none" /><text fill="#e1ed5e" style="font-size:6.75px; font-family:Arial;" text-anchor="middle"><textPath startOffset="21.466115282336833" xlink:href="#id126">June</textPath></text><line stroke="#e1ed5e" stroke-width="0.3" x1="102.19456741930631" x2="102.32365962044197" y1="184.97166512339345" y2="189.96999836594603" /><path d="M 102.22038585953345 185.97133177190398 a86.0,86.0 0 0,1 -42.740103519485714,-10.115201625700543" fill="none" id="id127" stroke="none" /><text fill="#e1ed5e" style="font-size:6.75px; font-family:Arial;" text-anchor="middle"><textPath startOffset="22.20632615414155" xlink:href="#id127">July</textPath></text><line stroke="#e1ed5e" stroke-width="0.3" x1="58.666819895761336" x2="56.23545636021788" y1="174.27360380694188" y2="178.64263932499728" /><path d="M 58.180547188652646 175.14741091055294 a86.0,86.0 0 0,1 -31.652253787137756,-30.449443065178592" fill="none" id="id128" stroke="none" /><text fill="#e1ed5e" style="font-size:6.75px; font-family:Arial;" text-anchor="middle"><textPath startOffset="22.20632615414155" xlink:href="#id128">August</textPath></text><line stroke="#e1ed5e" stroke-width="0.3" x1="26.63291911575756" x2="22.317208475507996" y1="142.92168965132927" y2="145.44649492493687" /><path d="M 25.769776987707644 143.4266507060508 a86.0,86.0 0 0,1 -11.730757126820373,-40.83630448921669" fill="none" id="id129" stroke="none" /><text fill="#e1ed5e" style="font-size:6.75px; font-family:Arial;" text-anchor="middle"><textPath startOffset="21.46611528233685" xlink:href="#id129">September</textPath></text><line stroke="#e1ed5e" stroke-width="0.3" x1="15.007084014347285" x2="10.007500721073583" y1="101.09737516637583" y2="101.16192664675087" /><path d="M 14.007167355692545 101.11028546245083 a86.0,86.0 0 0,1 10.666146001902534,-42.60595125391555" fill="none" id="id130" stroke="none" /><text fill="#e1ed5e" style="font-size:6.75px; font-family:Arial;" text-anchor="middle"><textPath startOffset="22.20632615414155" xlink:href="#id130">October</textPath></text><line stroke="#e1ed5e" stroke-width="0.3" x1="26.266209847984243" x2="21.928928074336255" y1="57.711370442889674" y2="55.22380399835377" /><path d="M 25.398753493254645 57.213857153982495 a86.0,86.0 0 0,1 29.58750427330803,-30.492523968695096" fill="none" id="id131" stroke="none" /><text fill="#e1ed5e" style="font-size:6.75px; font-family:Arial;" text-anchor="middle"><textPath startOffset="21.46611528233685" xlink:href="#id131">November</textPath></text><line stroke="#e1ed5e" stroke-width="0.3" x1="56.762969772571076" x2="54.21961505331055" y1="26.818313649435495" y2="22.513508569990535" /><path d="M 56.25429882871897 25.957352633546506 a86.0,86.0 0 0,1 42.265352541879196,-11.944610805530505" fill="none" id="id132" stroke="none" /><text fill="#e1ed5e" style="font-size:6.75px; font-family:Arial;" text-anchor="middle"><textPath startOffset="22.20632615414155" xlink:href="#id132">December</textPath></text></svg>