<?xml version="1.0" encoding="utf-8" ?>
<svg baseProfile="full" height="200mm" version="1.1" viewBox="0,0,200,200" width="200mm" xmlns="http://www.w3.org/2000/svg" xmlns:ev="http://www.w3.org/2001/xml-events" xmlns:xlink="http://www.w3.org/1999/xlink"><defs /><rect fill="#1a1a1a" height="200" width="200" x="0" y="0" /><text alignment-baseline="middle" fill="#e1ed5e" style="dominant-baseline: central; font-size:9.0px; font-family:Arial;" text-anchor="middle" x="100.0" y="100.0">2017</text><line stroke="#e1ed5e" stroke-width="0.3" x1="100.0" x2="100.0" y1="15.0" y2="10.0" /><path d="M 100.0 14.0 a86.0,86.0 0 0,1 42.46469731375804,11.215312516191453" fill="none" id="id13" stroke="none" /><text fill="#e1ed5e" style="font-size:6.75px; font-family:Arial;" text-anchor="middle"><textPath startOffset="22.20632615414155" xlink:href="#id13">January</textPath></text><path d="M 102.88285421437855 79.19881850522331 l 3.1670490504416486 -22.851784100812704 a44.07020234584126,44.07020234584126 0 0,0 0.7505176856027931,0.1106067975127638 l -3.5599357164730976 22.79388281913897" fill="#f6ff19" stroke="none" /><line stroke="#e1ed5e" stroke-width="0.3" x1="143.23703022742887" x2="145.7803849466894" y1="26.81831364943548" y2="22.513508569990506" /><path d="M 143.74570117128098 25.957352633546492 a86.0,86.0 0 0,1 28.547481713284135,27.462654790039103" fill="none" id="id14" stroke="none" /><text fill="#e1ed5e" style="font-size:6.75px; font-family:Arial;" text-anchor="middle"><textPath startOffset="19.985693538727396" xlink:href="#id14">February</textPath></text><line stroke="#e1ed5e" stroke-width="0.3" x1="172.23445277983987" x2="176.4835382374775" y1="55.19839476539836" y2="52.563006222186495" /><path d="M 173.08426987136738 54.67131705675599 a86.0,86.0 0 0,1 12.851231095245387,41.99856678651699" fill="none" id="id15" stroke="none" /><text fill="#e1ed5e" style="font-size:6.75px; font-family:Arial;" text-anchor="middle"><textPath startOffset="22.20632615414155" xlink:href="#id15">March</textPath></text><path d="M 120.83666639777658 97.38593545837742 l 22.43698501118279 -2.8148325561764875 a43.61286312503024,43.61286312503024 0 0,0 0.08703808086061006,0.7456891235534875 l -22.48211344504699 2.428199694298147" fill="#fcff18" stroke="none" /><line stroke="#e1ed5e" stroke-width="0.3" x1="184.98032266829074" x2="189.97916517819016" y1="98.17113171792111" y2="98.06355123074" /><path d="M 185.9800911702706 98.14961562048488 a86.0,86.0 0 0,1 -9.607161424134198,41.387399972396054" fill="none" id="id16" stroke="none" /><text fill="#e1ed5e" style="font-size:6.75px; font-family:Arial;" text-anchor="middle"><textPath startOffset="21.466115282336823" xlink:href="#id16">April</textPath></text><line stroke="#e1ed5e" stroke-width="0.3" x1="174.80103733775053" x2="179.2010983576182" y1="140.37084112569926" y2="142.7455964860345" /><path d="M 175.68104954172406 140.8457921977663 a86.0,86.0 0 0,1 -30.038265399797805,32.042727171017184" fill="none" id="id17" stroke="none" /><text fill="#e1ed5e" style="font-size:6.75px; font-family:Arial;" text-anchor="middle"><textPath startOffset="22.206326154141568" xlink:href="#id17">May</textPath></text><path d="M 117.55443506779139 111.5257021239791 l 29.80938912004186 19.57192801526098 a56.6603427625791,56.6603427625791 0 0,0 -0.5423120448401202,0.8106829251714853 l -29.468073969791018 -20.082147854638272" fill="#61ff29" stroke="none" /><path d="M 114.29624159901734 115.38237550388516 l 22.92595428777106 24.667716700005997 a54.67633630899779,54.67633630899779 0 0,0 -0.6949113711606083,0.634785061365634 l -22.497943367143588 -25.058694527958213" fill="#77ff27" stroke="none" /><path d="M 114.0293411484842 115.62618273729858 l 17.14487633405954 19.096333018699614 a46.66352897150491,46.66352897150491 0 0,0 -0.6023098270519713,0.5314683930105868 l -16.813624154100978 -19.388624553482487" fill="#d5ff1c" stroke="none" /><path d="M 111.7513745106137 117.40417183066458 l 18.862008357987445 27.935254232374977 a54.706880430028114,54.706880430028114 0 0,0 -0.7849793917416659,0.52024153722844 l -18.378354267505816 -28.255793790694735" fill="#77ff27" stroke="none" /><path d="M 111.45004920935366 117.60387380957326 l 17.83119724963854 27.414567441318926 a53.70336532147939,53.70336532147939 0 0,0 -0.7792567954655508,0.4973585561253131 l -17.356658652126058 -27.71744042626805" fill="#82ff25" stroke="none" /><path d="M 111.1453310114006 117.79835938074945 l 15.619735096758825 24.94368793531981 a50.43065905323118,50.43065905323118 0 0,0 -0.7396996166436774,0.4543839199198669 l -15.188056280182838 -25.208860322068055" fill="#a8ff21" stroke="none" /><line stroke="#e1ed5e" stroke-width="0.3" x1="143.8653032363475" x2="146.44561519142675" y1="172.8068346515853" y2="177.08958963109032" /><path d="M 144.38136562736335 173.6633856474863 a86.0,86.0 0 0,1 -40.68145358897372,12.25698825130547" fill="none" id="id18" stroke="none" /><text fill="#e1ed5e" style="font-size:6.75px; font-family:Arial;" text-anchor="middle"><textPath startOffset="21.466115282336833" xlink:href="#id18">June</textPath></text><path d="M 110.8373102113329 117.98757091392108 l 26.121300895659378 43.35566141986019 a71.61655596378648,71.61655596378648 0 0,0 -1.0613987229630613,0.6270930741916975 l -25.371134301667933 -43.79887306634564" fill="#3dffab" stroke="none" /><path d="M 110.5260780823613 118.17145234162733 l 10.231819332230693 17.663465529039907 a41.412940536409515,41.412940536409515 0 0,0 -0.6199147106209233,0.3520037514706857 l -9.92625585468857 -17.83697244630522" fill="#ffe615" stroke="none" /><path d="M 110.21172684928248 118.3499491758327 l 7.649576793158624 13.745896991061098 a36.731042851740426,36.731042851740426 0 0,0 -0.5551235760675023,0.3026976350526733 l -7.4118304052224735 -13.875535277873542" fill="#ffa70f" stroke="none" /><path d="M 109.89434966115114 118.52300852407294 l 11.52003328186003 21.56641739833876 a45.45038908104596,45.45038908104596 0 0,0 -0.6932463383985453,0.3626737194047415 l -11.14709604093499 -21.76152053668822" fill="#e4ff1a" stroke="none" /><path d="M 108.2653958097858 119.30500536409082 l 5.660893102125966 13.221819525291261 a35.38270566594028,35.38270566594028 0 0,0 -0.5619591514186655,0.2348989708692388 l -5.432462491209839 -13.317303539180473" fill="#ff940d" stroke="none" /><line stroke="#e1ed5e" stroke-width="0.3" x1="102.19456741930631" x2="102.32365962044197" y1="184.97166512339345" y2="189.96999836594603" /><path d="M 102.22038585953345 185.97133177190398 a86.0,86.0 0 0,1 -42.740103519485714,-10.115201625700543" fill="none" id="id19" stroke="none" /><text fill="#e1ed5e" style="font-size:6.75px; font-family:Arial;" text-anchor="middle"><textPath startOffset="22.20632615414155" xlink:href="#id19">July</textPath></text><path d="M 90.7491055286396 118.85261126421891 l -24.968111326177915 50.88309009376827 a77.6788800232234,77.6788800232234 0 0,0 -1.1953155492897296,-0.5993560307576271 l 25.840280783150405 -50.44576622210134" fill="#45ffed" stroke="none" /><path d="M 90.42595943632237 118.69057910512821 l -1.9661113737008244 3.838270781832975 a25.31253017710815,25.31253017710815 0 0,0 -0.38608731884763603,-0.20198263760749544 l 2.031889595074956 -3.803858725280763" fill="#ff0000" stroke="none" /><line stroke="#e1ed5e" stroke-width="0.3" x1="58.666819895761336" x2="56.23545636021788" y1="174.27360380694188" y2="178.64263932499728" /><path d="M 58.180547188652646 175.14741091055294 a86.0,86.0 0 0,1 -31.652253787137756,-30.449443065178592" fill="none" id="id20" stroke="none" /><text fill="#e1ed5e" style="font-size:6.75px; font-family:Arial;" text-anchor="middle"><textPath startOffset="22.20632615414155" xlink:href="#id20">August</textPath></text><path d="M 89.7882731507175 118.34994917583269 l -7.411041389094214 13.317261109410362 a36.24050451681575,36.24050451681575 0 0,0 -0.5424879658218376,-0.30803882505985286 l 7.639178121837259 -13.187719118555876" fill="#ffa00e" stroke="none" /><path d="M 87.95078237400918 117.19931262002967 l -3.7800993736911646 5.395795219322091 a27.588152800583746,27.588152800583746 0 0,0 -0.38659235449242824,-0.2758233802667157 l 3.87241905603248 -5.329927577211156" fill="#ff2303" stroke="none" /><path d="M 86.24171649860922 115.8653595955263 l -11.718247505810202 13.512892832181029 a38.886184537274474,38.886184537274474 0 0,0 -0.5019236992911357,-0.44288930695658624 l 11.949113558007927 -13.309180383452155" fill="#ffc412" stroke="none" /><path d="M 85.97065885151581 115.62618273729859 l -3.6778604039546616 4.09648023711219 a26.505252717544245,26.505252717544245 0 0,0 -0.33686970913368736,-0.3077224921899096 l 3.7478296625552034 -4.032564978335705" fill="#ff1202" stroke="none" /><path d="M 84.67929136418377 114.36230785411682 l -45.9621259074487 43.08692356235048 a84.0,84.0 0 0,0 -0.9798143680170841,-1.0633949807946235 l 46.69698668346152 -42.28937732675451" fill="#4dd2ff" stroke="none" /><path d="M 83.06392112726016 112.41649034213515 l -27.460315247047685 20.132212516190005 a55.04959462701835,55.04959462701835 0 0,0 -0.5536946098455933,-0.7690333855764175 l 27.802789649268885 -19.65654552516245" fill="#73ff27" stroke="none" /><path d="M 82.6465618267979 111.8261652097733 l -13.22173245429509 9.010456072352072 a37.00007899120334,37.00007899120334 0 0,0 -0.3541381417518832,-0.5293884718250159 l 13.374873701457703 -8.781530686321236" fill="#ffab0f" stroke="none" /><path d="M 82.44556493220864 111.52570212397912 l -31.11280412304273 20.427710215627986 a58.21959060834088,58.21959060834088 0 0,0 -0.5428148903472653,-0.8424607641567096 l 31.45982387676704 -19.889127851549826" fill="#50ff2b" stroke="none" /><line stroke="#e1ed5e" stroke-width="0.3" x1="26.63291911575756" x2="22.317208475507996" y1="142.92168965132927" y2="145.44649492493687" /><path d="M 25.769776987707644 143.4266507060508 a86.0,86.0 0 0,1 -11.730757126820373,-40.83630448921669" fill="none" id="id21" stroke="none" /><text fill="#e1ed5e" style="font-size:6.75px; font-family:Arial;" text-anchor="middle"><textPath startOffset="21.46611528233685" xlink:href="#id21">September</textPath></text><path d="M 81.51974371655577 109.97397251340807 l -23.22105895738713 12.532629430074229 a47.38720105532248,47.38720105532248 0 0,0 -0.38123565526379827,-0.7211541873512353 l 23.433347120875812 -12.131060227636867" fill="#ccff1d" stroke="none" /><path d="M 81.35079622478065 109.6543875284942 l -37.80337308653313 19.570187449321587 a63.568618177258244,63.568618177258244 0 0,0 -0.4946889591607832,-0.9760682475779554 l 38.134640715480174 -18.916564990040946" fill="#32ff4b" stroke="none" /><path d="M 79.76711848015287 105.62410040840567 l -42.80453204653161 11.898304545912803 a65.42744213647508,65.42744213647508 0 0,0 -0.29227972413618764,-1.0876815842369638 l 43.002999847009576 -11.1597320285003" fill="#35ff62" stroke="none" /><path d="M 79.67330655649465 105.27499134158121 l -40.858050232100666 10.603094979871635 a63.211442665716135,63.211442665716135 0 0,0 -0.264249974911261,-1.0555472940187889 l 41.03451152130698 -9.898219846455454" fill="#32ff46" stroke="none" /><path d="M 79.1416061653843 102.43462659150553 l -32.63050452074172 3.808687026927208 a53.85203071572942,53.85203071572942 0 0,0 -0.09954342342282275,-0.9216484720574688 l 32.691230245665594 -3.246442232984957" fill="#80ff25" stroke="none" /><path d="M 79.10278846688536 102.07522291339032 l -13.291226409736387 1.319901344197783 a34.356602825317864,34.356602825317864 0 0,0 -0.05337609703448426,-0.5890007830171117 l 13.311977103047948 -1.090919172632105" fill="#ff860c" stroke="none" /><path d="M 79.07016306316243 101.71520430193888 l -14.722140446182218 1.2064823392195785 a35.77149345705989,35.77149345705989 0 0,0 -0.04500980756436829,-0.6141230637571643 l 14.740726812410923 -0.9528861389656536" fill="#ff9a0e" stroke="none" /><line stroke="#e1ed5e" stroke-width="0.3" x1="15.007084014347285" x2="10.007500721073583" y1="101.09737516637583" y2="101.16192664675087" /><path d="M 14.007167355692545 101.11028546245083 a86.0,86.0 0 0,1 10.666146001902534,-42.60595125391555" fill="none" id="id22" stroke="none" /><text fill="#e1ed5e" style="font-size:6.75px; font-family:Arial;" text-anchor="middle"><textPath startOffset="22.20632615414155" xlink:href="#id22">October</textPath></text><line stroke="#e1ed5e" stroke-width="0.3" x1="26.266209847984243" x2="21.928928074336255" y1="57.711370442889674" y2="55.22380399835377" /><path d="M 25.398753493254645 57.213857153982495 a86.0,86.0 0 0,1 29.58750427330803,-30.492523968695096" fill="none" id="id23" stroke="none" /><text fill="#e1ed5e" style="font-size:6.75px; font-family:Arial;" text-anchor="middle"><textPath startOffset="21.46611528233685" xlink:href="#id23">November</textPath></text><path d="M 82.54541684631803 88.32363383020206 l -22.185300625818268 -14.841012896916837 a47.69163216561296,47.69163216561296 0 0,0 0.4623261667259308,-0.6784066016177203 l 21.926549993423595 15.220697521804974" fill="#c9ff1d" stroke="none" /><line stroke="#e1ed5e" stroke-width="0.3" x1="56.762969772571076" x2="54.21961505331055" y1="26.818313649435495" y2="22.513508569990535" /><path d="M 56.25429882871897 25.957352633546506 a86.0,86.0 0 0,1 42.265352541879196,-11.944610805530505" fill="none" id="id24" stroke="none" /><text fill="#e1ed5e" style="font-size:6.75px; font-family:Arial;" text-anchor="middle"><textPath startOffset="22.20632615414155" xlink:href="#id24">December</textPath></text></svg>