<?xml version="1.0" encoding="utf-8" ?>
<svg baseProfile="full" height="200mm" version="1.1" viewBox="0,0,200,200" width="200mm" xmlns="http://www.w3.org/2000/svg" xmlns:ev="http://www.w3.org/2001/xml-events" xmlns:xlink="http://www.w3.org/1999/xlink"><defs /><rect fill="#1a1a1a" height="200" width="200" x="0" y="0" /><text alignment-baseline="middle" fill="#e1ed5e" style="dominant-baseline: central; font-size:9.0px; font-family:Arial;" text-anchor="middle" x="100.0" y="100.0">2026</text><line stroke="#e1ed5e" stroke-width="0.3" x1="100.0" x2="100.0" y1="15.0" y2="10.0" /><path d="M 100.0 14.0 a86.0,86.0 0 0,1 42.46469731375804,11.215312516191453" fill="none" id="id121" stroke="none" /><text fill="#e1ed5e" style="font-size:6.75px; font-family:Arial;" text-anchor="middle"><textPath startOffset="22.20632615414155" xlink:href="#id121">January</textPath></text><path d="M 100.0 79.0 l 0.0 -24.975660242683794 a45.975660242683794,45.975660242683794 0 0,0 0.791395414256965,0.006811790182958873 l -0.42991493498443667 24.971959829109394" fill="red" stroke="none" /><path d="M 100.36148047927253 79.00311137660856 l 0.34480404222019834 -20.028224168460298 a41.03119200571021,41.03119200571021 0 0,0 0.7060752341461399,0.018235840173144988 l -0.6895059115612061 20.019321536144794" fill="red" stroke="none" /><path d="M 101.44485096284872 79.0497635885617 l 1.7184204123455078 -24.916974012252627 a45.976159885795866,45.976159885795866 0 0,0 0.7890599561088768,0.06124623897077973 l -2.1470705578167255 24.883702511093386" fill="red" stroke="none" /><path d="M 101.80526077348638 79.07773832637324 l 1.9386258627482171 -22.467910555297262 a43.55139186295503,43.55139186295503 0 0,0 0.7463357910344721,0.07087357631059936 l -2.3250867808729336 22.431211434471482" fill="red" stroke="none" /><path d="M 102.16513564639614 79.11191278185805 l 2.577093528009976 -24.86243966837942 a45.99564596716631,45.99564596716631 0 0,0 0.7868175011897507,0.0884081139984987 l -3.004677732709452 24.81439560091032" fill="red" stroke="none" /><path d="M 102.52436894288641 79.15227682838746 l 2.410493056240853 -19.907269135605475 a41.05267665952891,41.05267665952891 0 0,0 0.7007990446557539,0.09098382906357061 l -2.752806829404453 19.862826983377765" fill="red" stroke="none" /><path d="M 102.88285421437855 79.19881850522331 l 2.750611936831049 -19.846989776434313 a41.03668807994289,41.03668807994289 0 0,0 0.698856790374343,0.10299332445613366 l -3.0918377076340477 19.79670196781721" fill="red" stroke="none" /><path d="M 103.59715602781102 79.31037775812273 l 3.8517727107217556 -22.154091101491478 a43.48643825838687,43.48643825838687 0 0,0 0.7363804576447543,0.13456882180914756 l -4.232548289469411 22.084506798331592" fill="red" stroke="none" /><path d="M 103.95276090670814 79.375362276772 l 4.7009923074640145 -24.528744735505008 a45.97516059957174,45.97516059957174 0 0,0 0.7759591069824648,0.1556500970164073 l -5.122517823913605 24.444190682411392" fill="red" stroke="none" /><path d="M 104.307194497241 79.44645832069477 l 4.63205308768245 -22.103737423378444 a43.583868665239116,43.583868665239116 0 0,0 0.7329504918412505,0.16019458865327654 l -5.011846303677228 22.020729336629298" fill="red" stroke="none" /><path d="M 104.66035177308747 79.52364482259891 l 5.547515097771581 -24.3743165805509 a45.99764453961457,45.99764453961457 0 0,0 0.7705181811692393,0.18235675903876974 l -5.9662569659033435 24.27521390937126" fill="red" stroke="none" /><path d="M 105.36241919743992 79.69619591428918 l 5.1103102197063714 -19.349240277160632 a41.01270521056388,41.01270521056388 0 0,0 0.6810103274080637,0.18614584779477786 l -5.442618436338146 19.25840788853956" fill="red" stroke="none" /><path d="M 105.71112130821622 79.79150937346287 l 6.809863323401474 -24.096329199132395 a46.040114204139904,46.040114204139904 0 0,0 0.7607795240936732,0.22209240503110037 l -7.223633065218573 23.97553846518259" fill="red" stroke="none" /><path d="M 106.0581310904928 79.89281104454417 l 5.773746302447529 -19.163304020668427 a41.01420413990007,41.01420413990007 0 0,0 0.6742239617010534,0.20948466685459277 l -6.102755636859301 19.061079218931315" fill="red" stroke="none" /><path d="M 106.74666289553966 80.11325718540242 l 4.825075897621375 -14.222593439542912 a36.01877230549607,36.01877230549607 0 0,0 0.5854216752101514,0.20424212742490447 l -5.0691795768948 14.1374304589458" fill="red" stroke="none" /><path d="M 107.08798089147638 80.2323363322302 l 8.440481646880627 -23.5396518337349 a46.00713775874375,46.00713775874375 0 0,0 0.7431635365896064,0.2737134023410331 l -8.84442750924281 23.39087516358754" fill="red" stroke="none" /><path d="M 107.4271985657038 80.35727306442388 l 8.926068378558897 -23.606790934328348 a46.23797287651677,46.23797287651677 0 0,0 0.7420464416988058,0.2879024909959795 l -9.33109798525737 23.449645739441824" fill="red" stroke="none" /><path d="M 107.76421540070413 80.48803036053334 l 7.394754758272342 -18.58349142678683 a41.000713775874374,41.000713775874374 0 0,0 0.6535047742464174,0.26658100594279044 l -7.713543402107147 18.453449534660457" fill="red" stroke="none" /><path d="M 108.09893153111575 80.62456947434976 l 8.674123313661088 -20.75148715470249 a43.4914346895075,43.4914346895075 0 0,0 0.6882338163964314,0.29466580272374193 l -9.030040887847834 20.59910182401596" fill="red" stroke="none" /><path d="M 108.43124777332544 80.76684994638697 l 8.029444554434855 -18.31656667132925 a40.99921484653818,40.99921484653818 0 0,0 0.6439178183433598,0.2889071553367831 l -8.343544491244996 18.175639185475937" fill="red" stroke="none" /><path d="M 109.08828744355905 81.06846463323043 l 10.823776261593913 -22.546679379467466 a46.01013561741614,46.01013561741614 0 0,0 0.7110290960284887,0.3488988894557189 l -11.210276624632835 22.357025329876915" fill="red" stroke="none" /><path d="M 109.41281617654863 81.2277094730956 l 8.965130724801758 -17.879456628182485 a41.00121341898644,41.00121341898644 0 0,0 0.6281766863663842,0.3217764972717319 l -9.2715678987569 17.722487605598253" fill="red" stroke="none" /><path d="M 109.73455568895987 81.39251694778311 l 10.418267523216578 -19.914389784792302 a43.47494646680942,43.47494646680942 0 0,0 0.6601048587075563,0.3526051546426212 l -10.759517428452444 19.732105903647927" fill="red" stroke="none" /><path d="M 110.36928655335952 81.73862282372117 l 11.106460672356388 -19.559616410224137 a43.492933618843686,43.492933618843686 0 0,0 0.6478443690782323,0.3752732740307154 l -11.44150177389995 19.365538978803375" fill="red" stroke="none" /><line stroke="#e1ed5e" stroke-width="0.3" x1="143.23703022742887" x2="145.7803849466894" y1="26.81831364943548" y2="22.513508569990506" /><path d="M 143.74570117128098 25.957352633546492 a86.0,86.0 0 0,1 28.547481713284135,27.462654790039103" fill="none" id="id122" stroke="none" /><text fill="#e1ed5e" style="font-size:6.75px; font-family:Arial;" text-anchor="middle"><textPath startOffset="19.985693538727396" xlink:href="#id122">February</textPath></text><path d="M 110.68208982089419 81.91981866633111 l 15.607338896295298 -26.41650857766529 a51.68258386866523,51.68258386866523 0 0,0 0.7620423086489124,0.4591219644113815 l -16.05974327116185 26.143940003795294" fill="red" stroke="none" /><path d="M 110.99172775467656 82.1063720568725 l 10.454825135586594 -17.019594677192664 a40.97423269093504,40.97423269093504 0 0,0 0.5977961972735618,0.3743399238907759 l -10.746240485232418 16.837110411978944" fill="red" stroke="none" /><path d="M 111.2981086023043 82.29822771554956 l 13.431926972161333 -21.0450192126914 a45.966167023554604,45.966167023554604 0 0,0 0.6632983003068711,0.43142766536216376 l -13.792192298252486 20.810692623169707" fill="red" stroke="none" /><path d="M 111.60114157652 82.49532879139004 l 12.42092245880087 -18.741617996370415 a43.48394004282655,43.48394004282655 0 0,0 0.6203611574065825,0.41887062271346037 l -12.741688310613995 18.525035461358286" fill="red" stroke="none" /><path d="M 112.48926042617603 83.11751280151076 l 20.82226851875882 -28.146717236729412 a56.01149179157745,56.01149179157745 0 0,0 0.7701682708832738,0.5800747743665476 l -21.303682943400474 27.784125872857018" fill="red" stroke="none" /><path d="M 112.77801427241765 83.33499621200491 l 15.834340170124396 -20.65104430859264 a47.02291220556745,47.02291220556745 0 0,0 0.6380951971515711,0.49804342267510615 l -16.187467922435395 20.375422496694306" fill="red" stroke="none" /><path d="M 113.34407831869373 83.78471172551755 l 13.649185605495173 -16.586044687325128 a42.48015703069237,42.48015703069237 0 0,0 0.560621683326169,0.46950453716916696 l -13.93266482578046 16.34863899276214" fill="red" stroke="none" /><path d="M 113.6212207817346 84.01681056812373 l 16.21097037171418 -19.022010910584893 a45.99264810849394,45.99264810849394 0 0,0 0.5981370197660413,0.5186985294010431 l -16.536001190126985 18.74014738776418" fill="red" stroke="none" /><path d="M 113.89432698308785 84.25364557470407 l 14.210032009708087 -16.104140970053432 a42.47715917201998,42.47715917201998 0 0,0 0.5440899569242661,0.48848933546224543 l -14.485132954228343 15.857152625821891" fill="red" stroke="none" /><path d="M 115.9244219780498 86.31012108654704 l 38.56188008760298 -33.15080885209173 a71.8526766595289,71.8526766595289 0 0,0 0.7982127074861918,0.9448320764153565 l -39.12680340857629 32.482117826047265" fill="red" stroke="none" /><path d="M 117.45458315368197 88.32363383020206 l 20.805547499793306 -13.918017338584505 a46.03162027123483,46.03162027123483 0 0,0 0.4348965877018733,0.6623773396098233 l -21.042040722853105 13.557821934997008" fill="red" stroke="none" /><line stroke="#e1ed5e" stroke-width="0.3" x1="172.23445277983987" x2="176.4835382374775" y1="55.19839476539836" y2="52.563006222186495" /><path d="M 173.08426987136738 54.67131705675599 a86.0,86.0 0 0,1 12.851231095245387,41.99856678651699" fill="none" id="id123" stroke="none" /><text fill="#e1ed5e" style="font-size:6.75px; font-family:Arial;" text-anchor="middle"><textPath startOffset="22.20632615414155" xlink:href="#id123">March</textPath></text><path d="M 118.03404312379186 89.2402003453031 l 18.29449195025252 -10.915193382757831 a42.303283369022125,42.303283369022125 0 0,0 0.367716910340728,0.6285473969600939 l -18.479668535063578 10.598666573443841" fill="red" stroke="none" /><path d="M 118.21658344932153 89.55222093294921 l 17.42039349461291 -9.991139282464257 a41.08215560314062,41.08215560314062 0 0,0 0.3465423783015057,0.6164602227606816 l -17.58979351420685 9.689795549768782" fill="red" stroke="none" /><path d="M 118.3937258080291 89.86733742301442 l 22.008576514056227 -12.123997168608259 a46.127052105638825,46.127052105638825 0 0,0 0.37712577397457353,0.6987567836961077 l -22.214010387249267 11.743359401579692" fill="red" stroke="none" /><path d="M 119.04729006885535 91.15688171328212 l 18.181710149000157 -8.441254001025966 a41.045681655960024,41.045681655960024 0 0,0 0.2920061780028799,0.6433969063436721 l -18.324318643966386 8.12703508584023" fill="red" stroke="none" /><path d="M 119.34039704204932 91.81776055985345 l 23.023953509372785 -9.740622183862301 a45.99964311206281,45.99964311206281 0 0,0 0.30223586478282743,0.7318881197053687 l -23.18821106104181 9.342859493703628" fill="red" stroke="none" /><path d="M 119.47837535516314 92.15188598940014 l 18.5978397097953 -7.49333369605929 a41.050678087080655,41.050678087080655 0 0,0 0.25843640118295247,0.6576924520048145 l -18.72406966085995 7.172092239158691" fill="red" stroke="none" /><path d="M 120.18372546131832 94.20196356495316 l 24.9595320212234 -7.16994869644444 a46.96895074946467,46.96895074946467 0 0,0 0.21653408596024357,0.7789883160147854 l -25.079252877750005 6.739249077010702" fill="red" stroke="none" /><path d="M 120.37134235888165 94.90015583598534 l 19.799897851598246 -4.956786436929868 a41.410920770877944,41.410920770877944 0 0,0 0.167156561541352,0.6929718633080362 l -19.882287213400417 4.615229341962426" fill="red" stroke="none" /><path d="M 120.53481517161879 95.60439243477599 l 24.438042352348326 -5.23111812526624 a45.9916488222698,45.9916488222698 0 0,0 0.15904504378587792,0.7755601171975757 l -24.524466692049202 4.809682351905254" fill="red" stroke="none" /><path d="M 120.78858239683441 97.02765380044208 l 24.915632873141487 -3.5624308221872534 a46.1690221270521,46.1690221270521 0 0,0 0.10571387159314072,0.7876911329968297 l -24.97326274379246 3.1330213471257595" fill="red" stroke="none" /><path d="M 120.87857604477298 97.74499172005257 l 25.664305324224397 -2.7718950220129424 a46.81356174161313,46.81356174161313 0 0,0 0.07963404678394638,0.8019039834922357 l -25.708216496690575 2.329715507816272" fill="red" stroke="none" /><line stroke="#e1ed5e" stroke-width="0.3" x1="184.98032266829074" x2="189.97916517819016" y1="98.17113171792111" y2="98.06355123074" /><path d="M 185.9800911702706 98.14961562048488 a86.0,86.0 0 0,1 -9.607161424134198,41.387399972396054" fill="none" id="id124" stroke="none" /><text fill="#e1ed5e" style="font-size:6.75px; font-family:Arial;" text-anchor="middle"><textPath startOffset="21.466115282336823" xlink:href="#id124">April</textPath></text><path d="M 120.99513854157772 99.54816195383933 l 15.017793126671238 -0.3231991201469023 a36.02127052105639,36.02127052105639 0 0,0 0.008005286339648228,0.6200182491408279 l -15.021131420128603 0.06464461294561157" fill="red" stroke="none" /><path d="M 120.99980553446 99.90962569577887 l 10.416962778680857 -0.044830213388207016 a31.417059243397574,31.417059243397574 0 0,0 -0.0023274097247999058,0.5408080542476924 l -10.416191071666555 -0.13448731906317005" fill="red" stroke="none" /><path d="M 120.9764740272857 100.99374915477107 l 60.029747704066736 2.8438769530303025 a81.09707351891507,81.09707351891507 0 0,0 -0.07806037086474231,1.393820359781048 l -59.971900982314466 -3.876769029146774" fill="red" stroke="none" /><path d="M 120.81339534386255 102.79330883721812 l 22.390122699914375 3.004917101260523 a43.59086366880799,43.59086366880799 0 0,0 -0.10620799555335789,0.7428184735317908 l -22.335080653344416 -3.389881046772723" fill="red" stroke="none" /><path d="M 120.76222939487914 103.15116336523771 l 22.21800598366594 3.372112174120776 a43.472448251249105,43.472448251249105 0 0,0 -0.1186554508276797,0.7388676055694341 l -22.15666877847697 -3.754059009383415" fill="red" stroke="none" /><path d="M 120.64145759157962 103.86396538481128 l 24.631746502633266 4.610925145734233 a46.05960028551035,46.05960028551035 0 0,0 -0.15258902280843215,0.7780481399058171 l -24.548727546849168 -5.034237012707995" fill="red" stroke="none" /><path d="M 120.5718875245553 104.21870165774334 l 17.15009200506526 3.5169899449362068 a38.50699500356888,38.50699500356888 0 0,0 -0.13874613298943364,0.6481757423605822 l -17.087011833351387 -3.811679506712958" fill="red" stroke="none" /><path d="M 120.41448212921028 104.9243191809786 l 15.03279138470279 3.62616413636183 a36.46395431834404,36.46395431834404 0 0,0 -0.15243441072439823,0.6088996973775409 l -14.96814565968333 -3.8843916731367667" fill="red" stroke="none" /><path d="M 120.02730092923936 106.31721596034902 l 19.055240641453295 6.010598768840287 a40.980728051391864,40.980728051391864 0 0,0 -0.21799356582553944,0.6709152087513974 l -18.94895482461151 -6.33771287756948" fill="red" stroke="none" /><path d="M 119.79798401119884 107.00284435728193 l 23.889002120579317 8.449898919332684 a46.33940042826552,46.33940042826552 0 0,0 -0.272466272021657,0.7497101609961068 l -23.740011587552434 -8.859856877334922" fill="red" stroke="none" /><path d="M 119.67450827220406 107.3425965602758 l 18.729869735603824 6.99005409397466 a40.99172019985724,40.99172019985724 0 0,0 -0.2524030433878067,0.6589446997353131 l -18.60677241262251 -7.311422360543117" fill="red" stroke="none" /><path d="M 119.26925614724726 108.34839909993367 l 38.64258369933455 16.741887102929088 a63.11341898643827,63.11341898643827 0 0,0 -0.44046829645490854,0.9931397282715483 l -38.34867431814837 -17.404575167693324" fill="red" stroke="none" /><path d="M 119.12269723197855 108.67885076344098 l 20.47579981508357 9.292957405612611 a43.485938615274804,43.485938615274804 0 0,0 -0.315222079418561,0.6789603155949145 l -20.312803118825176 -9.644037788486356" fill="red" stroke="none" /><path d="M 118.64920377521936 109.65438752849418 l 22.165619190841852 11.474778229500997 a45.95967166309779,45.95967166309779 0 0,0 -0.369751011918468,0.6994295702427298 l -21.96481567069849 -11.854622814829861" fill="red" stroke="none" /><line stroke="#e1ed5e" stroke-width="0.3" x1="174.80103733775053" x2="179.2010983576182" y1="140.37084112569926" y2="142.7455964860345" /><path d="M 175.68104954172406 140.8457921977663 a86.0,86.0 0 0,1 -30.038265399797805,32.042727171017184" fill="none" id="id125" stroke="none" /><text fill="#e1ed5e" style="font-size:6.75px; font-family:Arial;" text-anchor="middle"><textPath startOffset="22.206326154141568" xlink:href="#id125">May</textPath></text><path d="M 118.48025628344425 109.97397251340804 l 55.44076885033275 29.921917540224147 a84.0,84.0 0 0,0 -0.6976943621939617,1.2665179264087798 l -54.91749807868728 -30.871805985030733" fill="red" stroke="none" /><line stroke="#e1ed5e" stroke-width="0.3" x1="143.8653032363475" x2="146.44561519142675" y1="172.8068346515853" y2="177.08958963109032" /><path d="M 144.38136562736335 173.6633856474863 a86.0,86.0 0 0,1 -40.68145358897372,12.25698825130547" fill="none" id="id126" stroke="none" /><text fill="#e1ed5e" style="font-size:6.75px; font-family:Arial;" text-anchor="middle"><textPath startOffset="21.466115282336833" xlink:href="#id126">June</textPath></text><line stroke="#e1ed5e" stroke-width="0.3" x1="102.19456741930631" x2="102.32365962044197" y1="184.97166512339345" y2="189.96999836594603" /><path d="M 102.22038585953345 185.97133177190398 a86.0,86.0 0 0,1 -42.740103519485714,-10.115201625700543" fill="none" id="id127" stroke="none" /><text fill="#e1ed5e" style="font-size:6.75px; font-family:Arial;" text-anchor="middle"><textPath startOffset="22.20632615414155" xlink:href="#id127">July</textPath></text><line stroke="#e1ed5e" stroke-width="0.3" x1="58.666819895761336" x2="56.23545636021788" y1="174.27360380694188" y2="178.64263932499728" /><path d="M 58.180547188652646 175.14741091055294 a86.0,86.0 0 0,1 -31.652253787137756,-30.449443065178592" fill="none" id="id128" stroke="none" /><text fill="#e1ed5e" style="font-size:6.75px; font-family:Arial;" text-anchor="middle"><textPath startOffset="22.20632615414155" xlink:href="#id128">August</textPath></text><line stroke="#e1ed5e" stroke-width="0.3" x1="26.63291911575756" x2="22.317208475507996" y1="142.92168965132927" y2="145.44649492493687" /><path d="M 25.769776987707644 143.4266507060508 a86.0,86.0 0 0,1 -11.730757126820373,-40.83630448921669" fill="none" id="id129" stroke="none" /><text fill="#e1ed5e" style="font-size:6.75px; font-family:Arial;" text-anchor="middle"><textPath startOffset="21.46611528233685" xlink:href="#id129">September</textPath></text><line stroke="#e1ed5e" stroke-width="0.3" x1="15.007084014347285" x2="10.007500721073583" y1="101.09737516637583" y2="101.16192664675087" /><path d="M 14.007167355692545 101.11028546245083 a86.0,86.0 0 0,1 10.666146001902534,-42.60595125391555" fill="none" id="id130" stroke="none" /><text fill="#e1ed5e" style="font-size:6.75px; font-family:Arial;" text-anchor="middle"><textPath startOffset="22.20632615414155" xlink:href="#id130">October</textPath></text><line stroke="#e1ed5e" stroke-width="0.3" x1="26.266209847984243" x2="21.928928074336255" y1="57.711370442889674" y2="55.22380399835377" /><path d="M 25.398753493254645 57.213857153982495 a86.0,86.0 0 0,1 29.58750427330803,-30.492523968695096" fill="none" id="id131" stroke="none" /><text fill="#e1ed5e" style="font-size:6.75px; font-family:Arial;" text-anchor="middle"><textPath startOffset="21.46611528233685" xlink:href="#id131">November</textPath></text><line stroke="#e1ed5e" stroke-width="0.3" x1="56.762969772571076" x2="54.21961505331055" y1="26.818313649435495" y2="22.513508569990535" /><path d="M 56.25429882871897 25.957352633546506 a86.0,86.0 0 0,1 42.265352541879196,-11.944610805530505" fill="none" id="id132" stroke="none" /><text fill="#e1ed5e" style="font-size:6.75px; font-family:Arial;" text-anchor="middle"><textPath startOffset="22.20632615414155" xlink:href="#id132">December</textPath></text></svg>