<?xml version="1.0" encoding="utf-8" ?>
<svg baseProfile="full" height="200mm" version="1.1" viewBox="0,0,200,200" width="200mm" xmlns="http://www.w3.org/2000/svg" xmlns:ev="http://www.w3.org/2001/xml-events" xmlns:xlink="http://www.w3.org/1999/xlink"><defs /><rect fill="#1a1a1a" height="200" width="200" x="0" y="0" /><text alignment-baseline="middle" fill="#e1ed5e" style="dominant-baseline: central; font-size:9.0px; font-family:Arial;" text-anchor="middle" x="100.0" y="100.0">2024</text><line stroke="#e1ed5e" stroke-width="0.3" x1="100.0" x2="100.0" y1="15.0" y2="10.0" /><path d="M 100.0 14.0 a86.0,86.0 0 0,1 42.35913384403234,11.155469271406648" fill="none" id="id97" stroke="none" /><text fill="#e1ed5e" style="font-size:6.75px; font-family:Arial;" text-anchor="middle"><textPath startOffset="22.145653131862478" xlink:href="#id97">January</textPath></text><line stroke="#e1ed5e" stroke-width="0.3" x1="143.13028292997686" x2="145.6673583964461" y1="26.7553504044142" y2="22.446841604673864" /><path d="M 143.63769802327073 25.89364864446614 a86.0,86.0 0 0,1 29.32050498858742,28.57503671076993" fill="none" id="id98" stroke="none" /><text fill="#e1ed5e" style="font-size:6.75px; font-family:Arial;" text-anchor="middle"><textPath startOffset="20.669276256404974" xlink:href="#id98">February</textPath></text><line stroke="#e1ed5e" stroke-width="0.3" x1="172.87174338648825" x2="177.1583165268699" y1="56.24261187166439" y2="53.66864786411523" /><path d="M 173.72905801456457 55.72781907015455 a86.0,86.0 0 0,1 12.242430191666344,42.057860355516425" fill="none" id="id99" stroke="none" /><text fill="#e1ed5e" style="font-size:6.75px; font-family:Arial;" text-anchor="middle"><textPath startOffset="22.145653131862474" xlink:href="#id99">March</textPath></text><line stroke="#e1ed5e" stroke-width="0.3" x1="184.99686870605535" x2="189.99668451229388" y1="99.2704041080226" y2="99.22748670261217" /><path d="M 185.99683186730306 99.26182062694052 a86.0,86.0 0 0,1 -10.086455211305974,41.156179273409016" fill="none" id="id100" stroke="none" /><text fill="#e1ed5e" style="font-size:6.75px; font-family:Arial;" text-anchor="middle"><textPath startOffset="21.40746469413373" xlink:href="#id100">April</textPath></text><line stroke="#e1ed5e" stroke-width="0.3" x1="174.33088141563837" x2="178.70328620479359" y1="141.23008692659167" y2="143.65538615756765" /><path d="M 175.20536237346943 141.71514677278685 a86.0,86.0 0 0,1 -30.301960400862466,31.631185727798858" fill="none" id="id101" stroke="none" /><text fill="#e1ed5e" style="font-size:6.75px; font-family:Arial;" text-anchor="middle"><textPath startOffset="22.145653131862474" xlink:href="#id101">May</textPath></text><line stroke="#e1ed5e" stroke-width="0.3" x1="143.1302829299769" x2="145.66735839644613" y1="173.24464959558577" y2="177.55315839532614" /><path d="M 143.63769802327073 174.10635135553383 a86.0,86.0 0 0,1 -40.68552437913181,11.842963189579606" fill="none" id="id102" stroke="none" /><text fill="#e1ed5e" style="font-size:6.75px; font-family:Arial;" text-anchor="middle"><textPath startOffset="21.407464694133747" xlink:href="#id102">June</textPath></text><path d="M 106.72888874123015 119.89276391827305 l 0.4571607555821322 1.3515145417357766 a22.426740170096746,22.426740170096746 0 0,0 -0.3657451703304915,0.12022770210980069 l -0.4338928476039065 -1.3591631652475964" fill="#ff0000" stroke="none" /><path d="M 106.0420521117495 120.11202640906438 l 2.3834081492674017 7.9335905674215415 a29.283869488196583,29.283869488196583 0 0,0 -0.48268182009823846,0.14050164315037583 l -2.2468663167875564 -7.973335904874435" fill="#ff6209" stroke="none" /><path d="M 105.69591212413111 120.21278271476187 l 3.821302678203578 13.560455119143727 a35.08858748053747,35.08858748053747 0 0,0 -0.5811649209838542,0.1583990835397617 l -3.5879563562850283 -13.62405469682763" fill="#ffb010" stroke="none" /><path d="M 103.58742460773223 120.69131181640829 l 4.20714491771595 24.26569388013064 a45.62770732006682,45.62770732006682 0 0,0 -0.7728953322789419,0.127179632805328 l -3.7899720823839353 -24.33433951143164" fill="#ccff1d" stroke="none" /><path d="M 103.2317021107853 120.74984581791261 l 1.0256595461984896 6.5854700451079875 a27.664862580708075,27.664862580708075 0 0,0 -0.4698743780643784,0.0690553525626013 l -0.9124600625264256 -6.6021064709694715" fill="#ff4b07" stroke="none" /><path d="M 102.875027216393 120.80226474461374 l 0.9136811324697334 6.610941524803934 a27.67378161586129,27.67378161586129 0 0,0 -0.4711424133248451,0.060998818004622916 l -0.8000608972541129 -6.625651939008952" fill="#ff4b07" stroke="none" /><path d="M 102.51750503828377 120.84855314841334 l 0.7760213057209028 6.426569635647227 a27.4732531503685,27.4732531503685 0 0,0 -0.46869906047665577,0.052518707339095735 l -0.6655863436434477 -6.438944103493293" fill="#ff4906" stroke="none" /><path d="M 102.15924093988457 120.88869738790638 l 0.7142274559309542 6.9095027412149435 a27.946319096446867,27.946319096446867 0 0,0 -0.4776164821664984,0.0452307774371519 l -0.5955114103794404 -6.920745274157279" fill="#ff4f07" stroke="none" /><path d="M 101.80034050326958 120.92268563240118 l 0.4687331327041469 5.447389515066052 a26.46751893261891,26.46751893261891 0 0,0 -0.4530117588455567,0.035065975181245344 l -0.3751523790833543 -5.454633257242351" fill="#ff3a05" stroke="none" /><path d="M 100.72087961077811 120.9876233191556 l 0.26641080694340596 7.756259964469323 a28.76083393421647,28.76083393421647 0 0,0 -0.49357245838637925,0.01271267570599103 l -0.13322503448628287 -7.7596903575253595" fill="#ff5b08" stroke="none" /><line stroke="#e1ed5e" stroke-width="0.3" x1="101.45913802915013" x2="101.54496967792366" y1="184.9874750549273" y2="189.98673829345242" /><path d="M 101.47630435890484 185.9873277026323 a86.0,86.0 0 0,1 -42.54439059252881,-10.42667462771756" fill="none" id="id103" stroke="none" /><text fill="#e1ed5e" style="font-size:6.75px; font-family:Arial;" text-anchor="middle"><textPath startOffset="22.145653131862474" xlink:href="#id103">July</textPath></text><path d="M 100.36049292484886 120.99690560180557 l 0.1157052132040188 6.739248600510468 a27.740241790606987,27.740241790606987 0 0,0 -0.4761981380528702,0.004087588290954387 l -8.254415534346072e-16 -6.740241790606987" fill="#ff4c07" stroke="none" /><path d="M 99.63950707515114 120.99690560180557 l -0.11658194497720807 6.790313830951569 a27.791314546735915,27.791314546735915 0 0,0 -0.47693427367217534,-0.01228413508745434 l 0.23312953272012732 -6.787311978514068" fill="#ff4d07" stroke="none" /><path d="M 98.91894614982273 120.97215588758144 l -0.3038035624916404 5.893707950563715 a26.901532852668073,26.901532852668073 0 0,0 -0.46098421587272137,-0.027731665702111524 l 0.40493213049680815 -5.887624307036912" fill="#ff4106" stroke="none" /><path d="M 98.19965949673042 120.92268563240118 l -0.5533363539274702 6.430607188572452 a27.454369832469894,27.454369832469894 0 0,0 -0.4692088247553671,-0.04443456353890931 l 0.6636447420678525 -6.42016086952836" fill="#ff4806" stroke="none" /><path d="M 97.84075906011543 120.88869738790638 l -0.6418073249207177 6.20890366793771 a27.241986975319016,27.241986975319016 0 0,0 -0.4647536143959731,-0.052076611876342244 l 0.74829684091749 -6.1969712955543965" fill="#ff4506" stroke="none" /><path d="M 97.12497278360702 120.80226474461374 l -0.9303363331402966 6.731450260077231 a27.79543584302396,27.79543584302396 0 0,0 -0.47209210209042574,-0.06938128162290902 l 1.0457535408384073 -6.71448790515544" fill="#ff4d07" stroke="none" /><path d="M 96.76829788921471 120.74984581791261 l -0.9539121564884135 6.124800335064721 a27.198639168939042,27.198639168939042 0 0,0 -0.46072227803494026,-0.07581167552525958 l 1.0589119375764173 -6.107522661043793" fill="#ff4506" stroke="none" /><path d="M 96.05791012581884 120.62667999033965 l -1.2135900612772499 6.350016014949965 a27.46494425551775,27.46494425551775 0 0,0 -0.46233115804865943,-0.09247917994897795 l 1.3224177048568675 -6.328247438338126" fill="#ff4806" stroke="none" /><path d="M 95.70440661134978 120.55596938700252 l -7.204330824974238 34.47533099461804 a56.22003449493123,56.22003449493123 0 0,0 -0.9429909089563506,-0.20552047961180492 l 7.795084150549725 -34.34657905687252" fill="#58ff2a" stroke="none" /><path d="M 95.35216902796893 120.47920084513623 l -1.5273662169131828 6.729857369699513 a27.901001940085695,27.901001940085695 0 0,0 -0.4661697361531942,-0.11001478841777068 l 1.6426681068062647 -6.702646437635515" fill="#ff4f07" stroke="none" /><path d="M 95.00130118170881 120.39639698878247 l -1.345085085274328 5.488406159330111 a26.650827908935128,26.650827908935128 0 0,0 -0.44341229535920396,-0.11271367153001789 l 1.4391026738589106 -5.46450725596483" fill="#ff3d05" stroke="none" /><path d="M 94.6519064749342 120.30758222061772 l -0.9662166936284977 3.668882164612609 a24.79397825993493,24.79397825993493 0 0,0 -0.4106574658869616,-0.11192651844012659 l 1.0290555604501543 -3.651755152028338" fill="#ff2203" stroke="none" /><path d="M 94.30408787586889 120.21278271476187 l -1.448324090425378 5.139591254629654 a26.339760381849743,26.339760381849743 0 0,0 -0.4341544920211864,-0.1263760451920063 l 1.5363385948281711 -5.113971515135131" fill="#ff3905" stroke="none" /><path d="M 93.95794788825049 120.11202640906438 l -1.9867390584830458 6.613208173830343 a27.90519039831043,27.90519039831043 0 0,0 -0.4575911288170831,-0.1417629014093758 l 2.0999708201717624 -6.5781286846143185" fill="#ff4f07" stroke="none" /><path d="M 93.61358852112213 120.00534299687104 l -2.235702522030713 7.0033063074809325 a28.351507668731408,28.351507668731408 0 0,0 -0.462368891902197,-0.1519898385813953 l 2.3555941515806538 -6.963895547497516" fill="#ff5507" stroke="none" /><path d="M 93.27111125876986 119.89276391827306 l -8.428939843108921 24.918662921693386 a47.30564176528917,47.30564176528917 0 0,0 -0.7670141890850908,-0.266807350429981 l 8.855459804239034 -24.770297138694815" fill="#b9ff1f" stroke="none" /><path d="M 92.59220618246901 119.65005319985036 l -2.2404252469527774 5.942994146074018 a27.35127425856052,27.35127425856052 0 0,0 -0.4379170029464193,-0.16939570426835773 l 2.342114512392725 -5.90365855366762" fill="#ff4706" stroke="none" /><path d="M 91.59046798132341 119.24265499422711 l -2.599842025283816 5.948947339866605 a27.49223790452397,27.49223790452397 0 0,0 -0.4308250961849104,-0.1927025856495161 l 2.701580524324362 -5.9034410033072335" fill="#ff4906" stroke="none" /><path d="M 91.26138138417905 119.09545874513695 l -3.725233852740371 8.140308265908747 a29.95220564562863,29.95220564562863 0 0,0 -0.46570158036856313,-0.2179718542637865 l 3.8644241469804244 -8.075160180074434" fill="#ff6b09" stroke="none" /><path d="M 90.6110303473126 118.78422872680471 l -2.752923332481848 5.507690775195457 a27.157373185839567,27.157373185839567 0 0,0 -0.4152139647494558,-0.21201120891770148 l 2.8470645189448858 -5.45962161460492" fill="#ff4406" stroke="none" /><path d="M 89.97174638481275 118.45085714620012 l -2.6191424040451046 4.818927023285999 a26.484702780317566,26.484702780317566 0 0,0 -0.3975931655453972,-0.22053822670541534 l 2.701479757746604 -4.773255881147436" fill="#ff3b05" stroke="none" /><line stroke="#e1ed5e" stroke-width="0.3" x1="58.13341422392154" x2="55.67067388415222" y1="173.97424548756322" y2="178.32567169271397" /><path d="M 57.64086615596768 174.84453072859336 a86.0,86.0 0 0,1 -31.369924170532247,-30.572349798747897" fill="none" id="id104" stroke="none" /><text fill="#e1ed5e" style="font-size:6.75px; font-family:Arial;" text-anchor="middle"><textPath startOffset="22.145653131862474" xlink:href="#id104">August</textPath></text><path d="M 89.65649057296885 118.27599006163327 l -2.017855477205213 3.56535728104419 a25.096768637399713,25.096768637399713 0 0,0 -0.3731142952838611,-0.21541763882063636 l 2.078762240349474 -3.530192744947382" fill="#ff2703" stroke="none" /><path d="M 89.34428304082925 118.09573695890944 l -3.0975342985329757 5.260290424588651 a27.104537171777007,27.104537171777007 0 0,0 -0.398910694688946,-0.23953441052550375 l 3.187377749779349 -5.2063420135272285" fill="#ff4306" stroke="none" /><path d="M 89.03521579738668 117.91015095944536 l -3.354596604066303 5.479481445020193 a27.424798462390378,27.424798462390378 0 0,0 -0.3994041490719863,-0.24925772882406133 l 3.448164881928002 -5.421087919354584" fill="#ff4806" stroke="none" /><path d="M 88.1277618465304 117.32195027204791 l -2.87256165990023 4.191153309339707 a26.081080254465377,26.081080254465377 0 0,0 -0.3671283500338545,-0.2562841009481626 l 2.9440851011078504 -4.141224392586414" fill="#ff3505" stroke="none" /><path d="M 87.83215693770417 117.11559508785305 l -3.7505750919807577 5.275653564257744 a27.472969492485802,27.472969492485802 0 0,0 -0.38202994253442346,-0.2765602170858479 l 3.840586044889135 -5.21049257579883" fill="#ff4906" stroke="none" /><path d="M 87.54013794807813 116.9041958592261 l -3.1506067226991297 4.274403110882413 a26.310070119634787,26.310070119634787 0 0,0 -0.3612585752640403,-0.27109516977326437 l 3.2235182868739365 -4.2196889138451334" fill="#ff3805" stroke="none" /><path d="M 86.13680546590413 115.77377054828092 l -3.6380776533352086 4.139464536791955 a26.51096866830644,26.51096866830644 0 0,0 -0.33925830733160883,-0.3033668703864587 l 3.7086009874901884 -4.0764021365221135" fill="#ff3b05" stroke="none" /><path d="M 85.08716467003676 114.78537596483092 l -7.233718005348272 7.171891727239009 a31.186398143020874,31.186398143020874 0 0,0 -0.3736623522547589,-0.38341049126994503 l 7.35576715875384 -7.0466585439013265" fill="#ff7c0b" stroke="none" /><path d="M 84.83555147118756 114.52719865689866 l -19.46969664886188 18.65152896725355 a47.961984726926204,47.961984726926204 0 0,0 -0.5644535584614641,-0.5994301185520815 l 19.7870060410596 -18.314557388756977" fill="#b1ff20" stroke="none" /><path d="M 84.1078160697243 113.72728997021213 l -4.689189912848729 4.050410562920755 a27.19631566069566,27.19631566069566 0 0,0 -0.3021451569627125,-0.35592623516888394 l 4.758029633318554 -3.969317545302317" fill="#ff4506" stroke="none" /><path d="M 83.8745106332314 113.45245675266167 l -5.272846882187112 4.398796404418415 a27.86675498692903,27.86675498692903 0 0,0 -0.3032874042743049,-0.36996131937251875 l 5.347581105700047 -4.307632803347401" fill="#ff4e07" stroke="none" /><path d="M 83.4222238831116 112.89097897827486 l -49.733328350665225 38.67293693482457 a84.0,84.0 0 0,0 -0.8753920905828196,-1.1459163470365188 l 50.38987241860234 -37.813499674547174" fill="#4dd2ff" stroke="none" /><path d="M 83.20337586046588 112.60449989151573 l -6.387472607863956 4.793278525735591 a28.985945488261883,28.985945488261883 0 0,0 -0.2952397714472571,-0.40054945240808487 l 6.468814398895044 -4.682922764058627" fill="#ff5e08" stroke="none" /><path d="M 82.78059297857968 112.02048342749411 l -3.365304956779907 2.349244222586474 a25.104171764130168,25.104171764130168 0 0,0 -0.24364227877526934,-0.3554813660708339 l 3.405136972370501 -2.2911281214455888" fill="#ff2703" stroke="none" /><path d="M 81.99639281039703 110.81064883170644 l -23.351300801989954 14.021785194227268 a48.2377258444619,48.2377258444619 0 0,0 -0.4201880105002248,-0.7135711037027473 l 23.58856252261995 -13.618862922230962" fill="#aeff20" stroke="none" /><line stroke="#e1ed5e" stroke-width="0.3" x1="26.387840678322732" x2="22.057713659400548" y1="142.50000000000003" y2="145.00000000000006" /><path d="M 25.521815274538298 143.00000000000003 a86.0,86.0 0 0,1 -11.493303480769221,-40.785679425670985" fill="none" id="id105" stroke="none" /><text fill="#e1ed5e" style="font-size:6.75px; font-family:Arial;" text-anchor="middle"><textPath startOffset="21.40746469413373" xlink:href="#id105">September</textPath></text><path d="M 81.29705330413844 109.54985784667822 l -3.974884974525312 2.0296045901693835 a25.463071291514815,25.463071291514815 0 0,0 -0.1954352400315279,-0.3910013969402294 l 4.0091401277685765 -1.9610713370654016" fill="#ff2c04" stroke="none" /><line stroke="#e1ed5e" stroke-width="0.3" x1="15.003131293944662" x2="10.003315487706104" y1="100.72959589197737" y2="100.7725132973878" /><path d="M 14.003168132696942 100.73817937305945 a86.0,86.0 0 0,1 10.791469493833604,-42.45332614584628" fill="none" id="id106" stroke="none" /><text fill="#e1ed5e" style="font-size:6.75px; font-family:Arial;" text-anchor="middle"><textPath startOffset="22.145653131862435" xlink:href="#id106">October</textPath></text><line stroke="#e1ed5e" stroke-width="0.3" x1="26.387840678322718" x2="22.05771365940052" y1="57.49999999999999" y2="54.99999999999999" /><path d="M 25.521815274538284 56.99999999999999 a86.0,86.0 0 0,1 29.574782752854787,-30.34633250058573" fill="none" id="id107" stroke="none" /><text fill="#e1ed5e" style="font-size:6.75px; font-family:Arial;" text-anchor="middle"><textPath startOffset="21.40746469413373" xlink:href="#id107">November</textPath></text><line stroke="#e1ed5e" stroke-width="0.3" x1="56.869717070023135" x2="54.33264160355391" y1="26.7553504044142" y2="22.446841604673864" /><path d="M 56.362301976729285 25.89364864446614 a86.0,86.0 0 0,1 42.16139366436587,-11.88097634709845" fill="none" id="id108" stroke="none" /><text fill="#e1ed5e" style="font-size:6.75px; font-family:Arial;" text-anchor="middle"><textPath startOffset="22.145653131862474" xlink:href="#id108">December</textPath></text></svg>