<?xml version="1.0" encoding="utf-8" ?>
<svg baseProfile="full" height="200mm" version="1.1" viewBox="0,0,200,200" width="200mm" xmlns="http://www.w3.org/2000/svg" xmlns:ev="http://www.w3.org/2001/xml-events" xmlns:xlink="http://www.w3.org/1999/xlink"><defs /><rect fill="#1a1a1a" height="200" width="200" x="0" y="0" /><text alignment-baseline="middle" fill="#e1ed5e" style="dominant-baseline: central; font-size:9.0px; font-family:Arial;" text-anchor="middle" x="100.0" y="100.0">2025</text><line stroke="#e1ed5e" stroke-width="0.3" x1="100.0" x2="100.0" y1="15.0" y2="10.0" /><path d="M 100.0 14.0 a86.0,86.0 0 0,1 42.46469731375804,11.215312516191453" fill="none" id="id109" stroke="none" /><text fill="#e1ed5e" style="font-size:6.75px; font-family:Arial;" text-anchor="middle"><textPath startOffset="22.20632615414155" xlink:href="#id109">January</textPath></text><path d="M 100.0 79.0 l 0.0 -25.66146670847985 a46.66146670847985,46.66146670847985 0 0,0 0.8032004452066868,0.00691339981132441 l -0.44171996593415846 25.657664685277084" fill="red" stroke="none" /><path d="M 101.08401301168833 79.027996857942 l 1.405420377927707 -27.190153867162795 a48.226451729130666,48.226451729130666 0 0,0 0.8286635254130889,0.049987246834845504 l -1.8732459521804077 27.161933350947645" fill="red" stroke="none" /><path d="M 101.44485096284872 79.0497635885617 l 1.5251177828675229 -22.114099604686157 a43.166627744823955,43.166627744823955 0 0,0 0.7408417205418244,0.05750357587474301 l -1.9055496927716884 22.08457076662295" fill="red" stroke="none" /><path d="M 101.80526077348638 79.07773832637324 l 1.5170174587497063 -17.581635130821272 a38.64696109372603,38.64696109372603 0 0,0 0.6622890577120444,0.06289232626291331 l -1.8194316435519948 17.55291726004318" fill="red" stroke="none" /><path d="M 102.16513564639614 79.11191278185805 l 2.185562953542876 -21.085159107851577 a42.198127748160104,42.198127748160104 0 0,0 0.7218558350804423,0.08110891389906023 l -2.548185492133044 21.044414240481917" fill="red" stroke="none" /><path d="M 102.88285421437855 79.19881850522331 l 1.8570926249650872 -13.399817636230072 a34.527893616595385,34.527893616595385 0 0,0 0.5880117046549483,0.08665764018561177 l -2.0874733100486913 13.365865511883491" fill="red" stroke="none" /><path d="M 103.2404852339499 79.25152402106235 l 3.26976080064149 -20.935924261653554 a42.18972063013351,42.18972063013351 0 0,0 0.7165638642823235,0.11823917736269382 l -3.629653871062689 20.876538821351236" fill="red" stroke="none" /><path d="M 103.95276090670814 79.375362276772 l 3.0291937436360254 -15.805667236269061 a37.093325682411106,37.093325682411106 0 0,0 0.6260533622105838,0.12558041485519603 l -3.3008135153137346 15.751182865336656" fill="red" stroke="none" /><path d="M 104.307194497241 79.44645832069477 l 3.600417197322753 -17.18086447581191 a38.55406243953214,38.55406243953214 0 0,0 0.6483641744742837,0.14170729590004158 l -3.8956240959505646 17.116343681815998" fill="red" stroke="none" /><path d="M 106.0581310904928 79.89281104454417 l 10.373033171033205 -34.42852835233214 a56.95724379975046,56.95724379975046 0 0,0 0.9363082709407433,0.29091553749641075 l -10.964126814684667 34.244872679953204" fill="red" stroke="none" /><path d="M 106.40334571778207 80.00007090966166 l 5.14342390483594 -16.064744574481672 a37.86804160856192,37.86804160856192 0 0,0 0.6190832939170563,0.20410202853663836 l -5.419190020995414 15.973828821685796" fill="red" stroke="none" /><path d="M 107.08798089147638 80.2323363322302 l 5.521675825555192 -15.399396848443644 a37.35941096795287,37.35941096795287 0 0,0 0.6034748809074033,0.22226489157221824 l -5.785933032235172 15.3020686890651" fill="red" stroke="none" /><line stroke="#e1ed5e" stroke-width="0.3" x1="143.23703022742887" x2="145.7803849466894" y1="26.81831364943548" y2="22.513508569990506" /><path d="M 143.74570117128098 25.957352633546492 a86.0,86.0 0 0,1 28.547481713284135,27.462654790039103" fill="none" id="id110" stroke="none" /><text fill="#e1ed5e" style="font-size:6.75px; font-family:Arial;" text-anchor="middle"><textPath startOffset="19.985693538727396" xlink:href="#id110">February</textPath></text><path d="M 112.19680574252982 82.90503203632743 l 10.164642269477886 -14.246700130101027 a38.50109759596458,38.50109759596458 0 0,0 0.5361822055933204,0.38955917512325877 l -10.408369791424995 14.069621720161095" fill="red" stroke="none" /><path d="M 113.06298171725822 83.55741782278167 l 19.62833436818584 -24.706495640610463 a52.554436089222214,52.554436089222214 0 0,0 0.7034701607161914,0.5688239468953423 l -20.050707927466522 24.36496559645099" fill="red" stroke="none" /><path d="M 113.6212207817346 84.01681056812373 l 11.555675388591862 -13.559471042184645 a38.81552381015926,38.81552381015926 0 0,0 0.5047981076823178,0.43775594461895123 l -11.787367294920944 13.358550104146023" fill="red" stroke="none" /><path d="M 113.89432698308785 84.25364557470407 l 14.387808147346762 -16.305613562070747 a42.74585148759283,42.74585148759283 0 0,0 0.5475316369531464,0.4915793097740033 l -14.666350771895898 16.055535243527444" fill="red" stroke="none" /><path d="M 114.94478906791727 85.2469230424477 l 19.28344761445387 -19.03607908884413 a48.09656175561976,48.09656175561976 0 0,0 0.5765534946142774,0.5941890566829914 l -19.608265372771257 18.701325836611023" fill="red" stroke="none" /><path d="M 115.19652480421416 85.50635884689758 l 10.662703434817189 -10.169522262309398 a35.73473540931322,35.73473540931322 0 0,0 0.4207044920914968,0.4487782193907904 l -10.836175248879147 9.984474626040553" fill="red" stroke="none" /><path d="M 116.60985879189232 87.15038557335679 l 49.829576375676965 -38.54884327992963 a84.0,84.0 0 0,0 0.874896239103546,1.1512608964758657 l -50.48574855500462 37.68539760757273" fill="red" stroke="none" /><path d="M 117.04232023915458 87.72973835380427 l 18.347617350877545 -13.210059564677927 a43.608421797121565,43.608421797121565 0 0,0 0.43335844282516894,0.6129547846125565 l -18.572288413506598 12.892278279733576" fill="red" stroke="none" /><path d="M 117.65298651832404 88.62581576622439 l 14.197607547451675 -9.147812114167401 a37.889479759529735,37.889479759529735 0 0,0 0.34853342295897943,0.5512961746385373 l -14.352968566656608 8.902068291814658" fill="red" stroke="none" /><line stroke="#e1ed5e" stroke-width="0.3" x1="172.23445277983987" x2="176.4835382374775" y1="55.19839476539836" y2="52.563006222186495" /><path d="M 173.08426987136738 54.67131705675599 a86.0,86.0 0 0,1 12.851231095245387,41.99856678651699" fill="none" id="id111" stroke="none" /><text fill="#e1ed5e" style="font-size:6.75px; font-family:Arial;" text-anchor="middle"><textPath startOffset="22.20632615414155" xlink:href="#id111">March</textPath></text><path d="M 118.56541770881063 90.18545643968196 l 15.259211796817445 -8.066729293406137 a38.260233664502614,38.260233664502614 0 0,0 0.30278523429190896,0.5848846980475422 l -15.39580646426947 7.80287187309825" fill="red" stroke="none" /><path d="M 119.04729006885535 91.15688171328212 l 16.11317394507279 -7.480891121815225 a38.76508110199969,38.76508110199969 0 0,0 0.27578158568412847,0.607648167820513 l -16.239557847720267 7.202420945152649" fill="red" stroke="none" /><path d="M 119.47837535516314 92.15188598940014 l 16.276276164511653 -6.557942779002706 a38.547757101012195,38.547757101012195 0 0,0 0.2426791488736808,0.617591963603388 l -16.386748863267034 6.2768018105035335" fill="red" stroke="none" /><path d="M 119.7369772167798 92.82701384747503 l 18.038685608634292 -6.555778053514726 a40.193030098817,40.193030098817 0 0,0 0.23072123577766596,0.6522800027992074 l -18.148859925221767 6.2443004242889035" fill="red" stroke="none" /><path d="M 119.97218684219823 93.5106431181261 l 25.359385505617958 -8.239763835138556 a47.66443588905273,47.66443588905273 0 0,0 0.24682123915316145,0.7824907781014069 l -25.497462228539323 7.802022890610729" fill="red" stroke="none" /><path d="M 120.08093135843002 93.85539295169968 l 19.58665583327707 -5.993362625347684 a41.483102359998135,41.483102359998135 0 0,0 0.20305801391044923,0.6846106773600489 l -19.68691974429922 5.655322561241105" fill="red" stroke="none" /><path d="M 120.18372546131832 94.20196356495316 l 14.428643999921153 -4.14481478061081 a36.01217030419088,36.01217030419088 0 0,0 0.1660216431458494,0.5972681836333985 l -14.497852413633366 3.89583529355846" fill="red" stroke="none" /><path d="M 120.28053869075195 94.5502522615342 l 16.548734456409825 -4.446944410772285 a38.13580831770899,38.13580831770899 0 0,0 0.16489863249233322,0.6354216973785837 l -16.62282942077246 4.161426287844851" fill="red" stroke="none" /><path d="M 120.45610955862082 95.25157060432595 l 14.413713862530516 -3.3458220591525305 a35.79694808271003,35.79694808271003 0 0,0 0.1341628924907585,0.6014259403365079 l -14.469171142023312 3.097217949266059" fill="red" stroke="none" /><path d="M 120.53481517161879 95.60439243477599 l 17.6670959590723 -3.7817540603222777 a39.06731699505582,39.06731699505582 0 0,0 0.1350998127091886,0.6587946664919111 l -17.729575067696484 3.4770837376669546" fill="red" stroke="none" /><path d="M 120.6074358757038 95.95851677861258 l 20.638098224494318 -4.047496651147089 a42.03124645533218,42.03124645533218 0 0,0 0.13312752053060536,0.7111725379596893 l -20.704711468934782 3.6916460357248364" fill="red" stroke="none" /><path d="M 120.67395015179393 96.31383870115 l 42.22508064304366 -7.528723681947228 a63.89101439218538,63.89101439218538 0 0,0 0.18372663927279595,1.0843650251567718 l -42.34841914383668 6.800772868474619" fill="red" stroke="none" /><path d="M 120.73433829027371 96.67025291283417 l 17.03690162625914 -2.735972220101088 a38.25518939368665,38.25518939368665 0 0,0 0.09881516999861444,0.6510685069006006 l -17.081472689697055 2.4423046008084053" fill="red" stroke="none" /><path d="M 120.78858239683441 97.02765380044208 l 20.812856294864392 -2.9758168752961893 a42.02452076091091,42.02452076091091 0 0,0 0.09622414742198203,0.716981665340814 l -20.86099644134421 2.6171168678907106" fill="red" stroke="none" /><path d="M 120.83666639777658 97.38593545837742 l 10.458443013569774 -1.3120642486876108 a31.540424225844546,31.540424225844546 0 0,0 0.06294514502010463,0.5392755625799998 l -10.479478511593468 1.1318449477827583" fill="red" stroke="none" /><path d="M 120.87857604477298 97.74499172005257 l 17.8065459997393 -1.9232110743840476 a38.91010388795847,38.91010388795847 0 0,0 0.06618955956576028,0.6665198319681506 l -17.83701268498729 1.6164157117114621" fill="red" stroke="none" /><path d="M 120.96714384426684 98.82574320788733 l 41.99752222055487 -2.352055009765861 a63.06333362246703,63.06333362246703 0 0,0 0.05137076624036357,1.0843556833524377 l -42.031786595028734 1.6287882197904238" fill="red" stroke="none" /><line stroke="#e1ed5e" stroke-width="0.3" x1="184.98032266829074" x2="189.97916517819016" y1="98.17113171792111" y2="98.06355123074" /><path d="M 185.9800911702706 98.14961562048488 a86.0,86.0 0 0,1 -9.607161424134198,41.387399972396054" fill="none" id="id112" stroke="none" /><text fill="#e1ed5e" style="font-size:6.75px; font-family:Arial;" text-anchor="middle"><textPath startOffset="21.466115282336823" xlink:href="#id112">April</textPath></text><line stroke="#e1ed5e" stroke-width="0.3" x1="174.80103733775053" x2="179.2010983576182" y1="140.37084112569926" y2="142.7455964860345" /><path d="M 175.68104954172406 140.8457921977663 a86.0,86.0 0 0,1 -30.038265399797805,32.042727171017184" fill="none" id="id113" stroke="none" /><text fill="#e1ed5e" style="font-size:6.75px; font-family:Arial;" text-anchor="middle"><textPath startOffset="22.206326154141568" xlink:href="#id113">May</textPath></text><line stroke="#e1ed5e" stroke-width="0.3" x1="143.8653032363475" x2="146.44561519142675" y1="172.8068346515853" y2="177.08958963109032" /><path d="M 144.38136562736335 173.6633856474863 a86.0,86.0 0 0,1 -40.68145358897372,12.25698825130547" fill="none" id="id114" stroke="none" /><text fill="#e1ed5e" style="font-size:6.75px; font-family:Arial;" text-anchor="middle"><textPath startOffset="21.466115282336833" xlink:href="#id114">June</textPath></text><line stroke="#e1ed5e" stroke-width="0.3" x1="102.19456741930631" x2="102.32365962044197" y1="184.97166512339345" y2="189.96999836594603" /><path d="M 102.22038585953345 185.97133177190398 a86.0,86.0 0 0,1 -42.740103519485714,-10.115201625700543" fill="none" id="id115" stroke="none" /><text fill="#e1ed5e" style="font-size:6.75px; font-family:Arial;" text-anchor="middle"><textPath startOffset="22.20632615414155" xlink:href="#id115">July</textPath></text><line stroke="#e1ed5e" stroke-width="0.3" x1="58.666819895761336" x2="56.23545636021788" y1="174.27360380694188" y2="178.64263932499728" /><path d="M 58.180547188652646 175.14741091055294 a86.0,86.0 0 0,1 -31.652253787137756,-30.449443065178592" fill="none" id="id116" stroke="none" /><text fill="#e1ed5e" style="font-size:6.75px; font-family:Arial;" text-anchor="middle"><textPath startOffset="22.20632615414155" xlink:href="#id116">August</textPath></text><line stroke="#e1ed5e" stroke-width="0.3" x1="26.63291911575756" x2="22.317208475507996" y1="142.92168965132927" y2="145.44649492493687" /><path d="M 25.769776987707644 143.4266507060508 a86.0,86.0 0 0,1 -11.730757126820373,-40.83630448921669" fill="none" id="id117" stroke="none" /><text fill="#e1ed5e" style="font-size:6.75px; font-family:Arial;" text-anchor="middle"><textPath startOffset="21.46611528233685" xlink:href="#id117">September</textPath></text><line stroke="#e1ed5e" stroke-width="0.3" x1="15.007084014347285" x2="10.007500721073583" y1="101.09737516637583" y2="101.16192664675087" /><path d="M 14.007167355692545 101.11028546245083 a86.0,86.0 0 0,1 10.666146001902534,-42.60595125391555" fill="none" id="id118" stroke="none" /><text fill="#e1ed5e" style="font-size:6.75px; font-family:Arial;" text-anchor="middle"><textPath startOffset="22.20632615414155" xlink:href="#id118">October</textPath></text><line stroke="#e1ed5e" stroke-width="0.3" x1="26.266209847984243" x2="21.928928074336255" y1="57.711370442889674" y2="55.22380399835377" /><path d="M 25.398753493254645 57.213857153982495 a86.0,86.0 0 0,1 29.58750427330803,-30.492523968695096" fill="none" id="id119" stroke="none" /><text fill="#e1ed5e" style="font-size:6.75px; font-family:Arial;" text-anchor="middle"><textPath startOffset="21.46611528233685" xlink:href="#id119">November</textPath></text><line stroke="#e1ed5e" stroke-width="0.3" x1="56.762969772571076" x2="54.21961505331055" y1="26.818313649435495" y2="22.513508569990535" /><path d="M 56.25429882871897 25.957352633546506 a86.0,86.0 0 0,1 42.265352541879196,-11.944610805530505" fill="none" id="id120" stroke="none" /><text fill="#e1ed5e" style="font-size:6.75px; font-family:Arial;" text-anchor="middle"><textPath startOffset="22.20632615414155" xlink:href="#id120">December</textPath></text></svg>