<?xml version="1.0" encoding="utf-8" ?>
<svg baseProfile="full" height="200mm" version="1.1" viewBox="0,0,200,200" width="200mm" xmlns="http://www.w3.org/2000/svg" xmlns:ev="http://www.w3.org/2001/xml-events" xmlns:xlink="http://www.w3.org/1999/xlink"><defs /><rect fill="#1a1a1a" height="200" width="200" x="0" y="0" /><text alignment-baseline="middle" fill="#e1ed5e" style="dominant-baseline: central; font-size:9.0px; font-family:Arial;" text-anchor="middle" x="100.0" y="100.0">2026</text><line stroke="#e1ed5e" stroke-width="0.3" x1="100.0" x2="100.0" y1="15.0" y2="10.0" /><path d="M 100.0 14.0 a86.0,86.0 0 0,1 42.46469731375804,11.215312516191453" fill="none" id="id121" stroke="none" /><text fill="#e1ed5e" style="font-size:6.75px; font-family:Arial;" text-anchor="middle"><textPath startOffset="22.20632615414155" xlink:href="#id121">January</textPath></text><path d="M 100.0 79.0 l 0.0 -44.94143250610077 a65.94143250610077,65.94143250610077 0 0,0 1.135073363153447,0.009769934792111684 l -0.7735928838809186 44.934773947917215" fill="red" stroke="none" /><path d="M 100.36148047927253 79.00311137660856 l 0.620443561479383 -36.038970579269595 a57.04431093288427,57.04431093288427 0 0,0 0.98163307546698,0.025352686239641677 l -1.2407032721412308 36.022951100887596" fill="red" stroke="none" /><path d="M 101.44485096284872 79.0497635885617 l 3.092141478067801 -44.83583196387957 a65.94233156850713,65.94233156850713 0 0,0 1.1317268206481603,0.08784378268144409 l -3.8634584880783023 44.775962919009665" fill="red" stroke="none" /><path d="M 101.80526077348638 79.07773832637324 l 3.488381188673565 -40.42896467851287 a61.579181710501906,61.579181710501906 0 0,0 1.0552761996168396,0.10021119067415711 l -4.183782515380649 40.362927943323534" fill="red" stroke="none" /><path d="M 102.16513564639614 79.11191278185805 l 4.6372457715065405 -44.73770236447648 a65.97739500235468,65.97739500235468 0 0,0 1.1286322428827071,0.12681498294112348 l -5.406644717898973 44.65125142806476" fill="red" stroke="none" /><path d="M 102.52436894288641 79.15227682838746 l 4.337463351953094 -35.82132298186882 a57.08297061635723,57.08297061635723 0 0,0 0.9744478199515936,0.12651129386940851 l -4.953425900412533 35.74135336483527" fill="red" stroke="none" /><path d="M 102.88285421437855 79.19881850522331 l 4.949476390550241 -35.71285574915592 a57.0542006193541,57.0542006193541 0 0,0 0.9716358065870297,0.14319386068698203 l -5.563481177565927 35.62236740430797" fill="red" stroke="none" /><path d="M 103.59715602781102 79.31037775812273 l 6.930915204071556 -39.86427507009918 a61.46230359767671,61.46230359767671 0 0,0 1.0407759536946937,0.19019515306522822 l -7.61608627886915 39.73906443568322" fill="red" stroke="none" /><path d="M 103.95276090670814 79.375362276772 l 8.459008748706887 -44.13724863641955 a65.94053344369445,65.94053344369445 0 0,0 1.1129304776238917,0.2232433839050102 l -9.217505635797904 43.985101296437335" fill="red" stroke="none" /><path d="M 104.307194497241 79.44645832069477 l 8.334958883248612 -39.773668199075075 a61.6376207669145,61.6376207669145 0 0,0 1.036560678081022,0.22655201584245027 l -9.018362285483162 39.624302685136755" fill="red" stroke="none" /><path d="M 104.66035177308747 79.52364482259891 l 9.982249635066553 -43.85936919557693 a65.98099125198009,65.98099125198009 0 0,0 1.1052642777704544,0.2615803448916632 l -10.735737599799531 43.6810429385444" fill="red" stroke="none" /><path d="M 105.36241919743992 79.69619591428918 l 9.195539160629293 -34.8172007270587 a57.01104562384941,57.01104562384941 0 0,0 0.9466605688856958,0.25875809378662296 l -9.7934976187387 34.65375609244578" fill="red" stroke="none" /><path d="M 105.71112130821622 79.79150937346287 l 12.253730630166995 -43.35915614742631 a66.05741155651964,66.05741155651964 0 0,0 1.0915508572372308,0.31865362752287557 l -12.998271705127653 43.14180419098473" fill="red" stroke="none" /><path d="M 106.0581310904928 79.89281104454417 l 10.38933214327357 -34.48262531882582 a57.013742811068454,57.013742811068454 0 0,0 0.9372370464233316,0.2912041125598983 l -10.981354562407619 34.2986810713834" fill="red" stroke="none" /><path d="M 106.74666289553966 80.11325718540242 l 8.682285900861661 -25.592265306066043 a48.02491687240449,48.02491687240449 0 0,0 0.7805603991389036,0.2723221965543612 l -9.121528304063839 25.439022256339474" fill="red" stroke="none" /><path d="M 107.08798089147638 80.2323363322302 l 15.187880222841585 -42.3574657816225 a65.99807343770068,65.99807343770068 0 0,0 1.066081570239406,0.3926468393516441 l -15.914744118853566 42.089755674464534" fill="red" stroke="none" /><path d="M 107.4271985657038 80.35727306442388 l 16.06164944918144 -42.47827649607497 a66.4134402694333,66.4134402694333 0 0,0 1.0658308305280033,0.4135258035694177 l -16.79046344470911 42.195507988615006" fill="red" stroke="none" /><path d="M 107.76421540070413 80.48803036053334 l 13.306189651799691 -33.43930521033139 a56.98946812609707,56.98946812609707 0 0,0 0.9083473450182449,0.3705376892764975 l -13.879820866406323 33.20530663487131" fill="red" stroke="none" /><path d="M 108.09893153111575 80.62456947434976 l 15.608297184643533 -37.340416641737 a61.47129422174019,61.47129422174019 0 0,0 0.9727575952159336,0.41648403612416013 l -16.248738537649782 37.06621307765005" fill="red" stroke="none" /><path d="M 108.43124777332544 80.76684994638697 l 14.448256302266083 -32.95899835297342 a56.986770938878024,56.986770938878024 0 0,0 0.8950121936418859,0.401565882307872 l -15.013450614374749 32.705412140149015" fill="red" stroke="none" /><path d="M 109.08828744355905 81.06846463323043 l 19.47640244922262 -40.570702024418146 a66.00346781213878,66.00346781213878 0 0,0 1.0200010372376735,0.5005100791566577 l -20.17187475347072 40.22943678512665" fill="red" stroke="none" /><path d="M 109.41281617654863 81.2277094730956 l 16.131938593898557 -32.17245852535969 a56.99036718850341,56.99036718850341 0 0,0 0.8731453786365176,0.44725897608812265 l -16.68334446012383 31.890007023959065" fill="red" stroke="none" /><path d="M 109.73455568895987 81.39251694778311 l 18.746726299749948 -35.834135943437005 a61.44162516233071,61.44162516233071 0 0,0 0.9329031682076145,0.4983245639738112 l -19.360774514485875 35.50613265296144" fill="red" stroke="none" /><path d="M 110.36928655335952 81.73862282372117 l 19.985067375129034 -35.195753473736836 a61.47399140895923,61.47399140895923 0 0,0 0.9156793038628944,0.5304205558068202 l -20.587943411457257 34.84652876053997" fill="red" stroke="none" /><line stroke="#e1ed5e" stroke-width="0.3" x1="143.23703022742887" x2="145.7803849466894" y1="26.81831364943548" y2="22.513508569990506" /><path d="M 143.74570117128098 25.957352633546492 a86.0,86.0 0 0,1 28.547481713284135,27.462654790039103" fill="none" id="id122" stroke="none" /><text fill="#e1ed5e" style="font-size:6.75px; font-family:Arial;" text-anchor="middle"><textPath startOffset="19.985693538727396" xlink:href="#id122">February</textPath></text><path d="M 110.68208982089419 81.91981866633111 l 28.083989003380395 -47.53410823794923 a76.21052331140382,76.21052331140382 0 0,0 1.123698522410269,0.6770157866036035 l -28.898049592008302 47.04364584188701" fill="red" stroke="none" /><path d="M 110.99172775467656 82.1063720568725 l 18.81250840332387 -30.625215030714017 a56.94181781856064,56.94181781856064 0 0,0 0.8307563051768939,0.5202195220880411 l -19.33688386087303 30.29685116730303" fill="red" stroke="none" /><path d="M 111.2981086023043 82.29822771554956 l 24.1695328003628 -37.86860092372609 a65.92435032038017,65.92435032038017 0 0,0 0.9512977119439927,0.6187504939157664 l -24.81779753809107 37.446951505650794" fill="red" stroke="none" /><path d="M 111.60114157652 82.49532879139004 l 22.350321990355795 -33.723839612437686 a61.45780828564497,61.45780828564497 0 0,0 0.8767843264019985,0.5920086910675271 l -22.927511011164338 33.334119009071486" fill="red" stroke="none" /><path d="M 112.48926042617603 83.11751280151076 l 37.46778127852809 -50.647461595467746 a84.0,84.0 0 0,0 1.1550153849664682,0.8699336419766106 l -38.33404281725294 49.995011363985284" fill="red" stroke="none" /><line stroke="#e1ed5e" stroke-width="0.3" x1="172.23445277983987" x2="176.4835382374775" y1="55.19839476539836" y2="52.563006222186495" /><path d="M 173.08426987136738 54.67131705675599 a86.0,86.0 0 0,1 12.851231095245387,41.99856678651699" fill="none" id="id123" stroke="none" /><text fill="#e1ed5e" style="font-size:6.75px; font-family:Arial;" text-anchor="middle"><textPath startOffset="22.20632615414155" xlink:href="#id123">March</textPath></text><line stroke="#e1ed5e" stroke-width="0.3" x1="184.98032266829074" x2="189.97916517819016" y1="98.17113171792111" y2="98.06355123074" /><path d="M 185.9800911702706 98.14961562048488 a86.0,86.0 0 0,1 -9.607161424134198,41.387399972396054" fill="none" id="id124" stroke="none" /><text fill="#e1ed5e" style="font-size:6.75px; font-family:Arial;" text-anchor="middle"><textPath startOffset="21.466115282336823" xlink:href="#id124">April</textPath></text><line stroke="#e1ed5e" stroke-width="0.3" x1="174.80103733775053" x2="179.2010983576182" y1="140.37084112569926" y2="142.7455964860345" /><path d="M 175.68104954172406 140.8457921977663 a86.0,86.0 0 0,1 -30.038265399797805,32.042727171017184" fill="none" id="id125" stroke="none" /><text fill="#e1ed5e" style="font-size:6.75px; font-family:Arial;" text-anchor="middle"><textPath startOffset="22.206326154141568" xlink:href="#id125">May</textPath></text><line stroke="#e1ed5e" stroke-width="0.3" x1="143.8653032363475" x2="146.44561519142675" y1="172.8068346515853" y2="177.08958963109032" /><path d="M 144.38136562736335 173.6633856474863 a86.0,86.0 0 0,1 -40.68145358897372,12.25698825130547" fill="none" id="id126" stroke="none" /><text fill="#e1ed5e" style="font-size:6.75px; font-family:Arial;" text-anchor="middle"><textPath startOffset="21.466115282336833" xlink:href="#id126">June</textPath></text><line stroke="#e1ed5e" stroke-width="0.3" x1="102.19456741930631" x2="102.32365962044197" y1="184.97166512339345" y2="189.96999836594603" /><path d="M 102.22038585953345 185.97133177190398 a86.0,86.0 0 0,1 -42.740103519485714,-10.115201625700543" fill="none" id="id127" stroke="none" /><text fill="#e1ed5e" style="font-size:6.75px; font-family:Arial;" text-anchor="middle"><textPath startOffset="22.20632615414155" xlink:href="#id127">July</textPath></text><line stroke="#e1ed5e" stroke-width="0.3" x1="58.666819895761336" x2="56.23545636021788" y1="174.27360380694188" y2="178.64263932499728" /><path d="M 58.180547188652646 175.14741091055294 a86.0,86.0 0 0,1 -31.652253787137756,-30.449443065178592" fill="none" id="id128" stroke="none" /><text fill="#e1ed5e" style="font-size:6.75px; font-family:Arial;" text-anchor="middle"><textPath startOffset="22.20632615414155" xlink:href="#id128">August</textPath></text><line stroke="#e1ed5e" stroke-width="0.3" x1="26.63291911575756" x2="22.317208475507996" y1="142.92168965132927" y2="145.44649492493687" /><path d="M 25.769776987707644 143.4266507060508 a86.0,86.0 0 0,1 -11.730757126820373,-40.83630448921669" fill="none" id="id129" stroke="none" /><text fill="#e1ed5e" style="font-size:6.75px; font-family:Arial;" text-anchor="middle"><textPath startOffset="21.46611528233685" xlink:href="#id129">September</textPath></text><line stroke="#e1ed5e" stroke-width="0.3" x1="15.007084014347285" x2="10.007500721073583" y1="101.09737516637583" y2="101.16192664675087" /><path d="M 14.007167355692545 101.11028546245083 a86.0,86.0 0 0,1 10.666146001902534,-42.60595125391555" fill="none" id="id130" stroke="none" /><text fill="#e1ed5e" style="font-size:6.75px; font-family:Arial;" text-anchor="middle"><textPath startOffset="22.20632615414155" xlink:href="#id130">October</textPath></text><line stroke="#e1ed5e" stroke-width="0.3" x1="26.266209847984243" x2="21.928928074336255" y1="57.711370442889674" y2="55.22380399835377" /><path d="M 25.398753493254645 57.213857153982495 a86.0,86.0 0 0,1 29.58750427330803,-30.492523968695096" fill="none" id="id131" stroke="none" /><text fill="#e1ed5e" style="font-size:6.75px; font-family:Arial;" text-anchor="middle"><textPath startOffset="21.46611528233685" xlink:href="#id131">November</textPath></text><line stroke="#e1ed5e" stroke-width="0.3" x1="56.762969772571076" x2="54.21961505331055" y1="26.818313649435495" y2="22.513508569990535" /><path d="M 56.25429882871897 25.957352633546506 a86.0,86.0 0 0,1 42.265352541879196,-11.944610805530505" fill="none" id="id132" stroke="none" /><text fill="#e1ed5e" style="font-size:6.75px; font-family:Arial;" text-anchor="middle"><textPath startOffset="22.20632615414155" xlink:href="#id132">December</textPath></text></svg>