<?xml version="1.0" encoding="utf-8" ?>
<svg baseProfile="full" height="200mm" version="1.1" viewBox="0,0,200,200" width="200mm" xmlns="http://www.w3.org/2000/svg" xmlns:ev="http://www.w3.org/2001/xml-events" xmlns:xlink="http://www.w3.org/1999/xlink"><defs /><rect fill="#1a1a1a" height="200" width="200" x="0" y="0" /><text alignment-baseline="middle" fill="#e1ed5e" style="dominant-baseline: central; font-size:9.0px; font-family:Arial;" text-anchor="middle" x="100.0" y="100.0">2018</text><line stroke="#e1ed5e" stroke-width="0.3" x1="100.0" x2="100.0" y1="15.0" y2="10.0" /><path d="M 100.0 14.0 a86.0,86.0 0 0,1 42.46469731375804,11.215312516191453" fill="none" id="id25" stroke="none" /><text fill="#e1ed5e" style="font-size:6.75px; font-family:Arial;" text-anchor="middle"><textPath startOffset="22.20632615414155" xlink:href="#id25">January</textPath></text><line stroke="#e1ed5e" stroke-width="0.3" x1="143.23703022742887" x2="145.7803849466894" y1="26.81831364943548" y2="22.513508569990506" /><path d="M 143.74570117128098 25.957352633546492 a86.0,86.0 0 0,1 28.547481713284135,27.462654790039103" fill="none" id="id26" stroke="none" /><text fill="#e1ed5e" style="font-size:6.75px; font-family:Arial;" text-anchor="middle"><textPath startOffset="19.985693538727396" xlink:href="#id26">February</textPath></text><line stroke="#e1ed5e" stroke-width="0.3" x1="172.23445277983987" x2="176.4835382374775" y1="55.19839476539836" y2="52.563006222186495" /><path d="M 173.08426987136738 54.67131705675599 a86.0,86.0 0 0,1 12.851231095245387,41.99856678651699" fill="none" id="id27" stroke="none" /><text fill="#e1ed5e" style="font-size:6.75px; font-family:Arial;" text-anchor="middle"><textPath startOffset="22.20632615414155" xlink:href="#id27">March</textPath></text><line stroke="#e1ed5e" stroke-width="0.3" x1="184.98032266829074" x2="189.97916517819016" y1="98.17113171792111" y2="98.06355123074" /><path d="M 185.9800911702706 98.14961562048488 a86.0,86.0 0 0,1 -9.607161424134198,41.387399972396054" fill="none" id="id28" stroke="none" /><text fill="#e1ed5e" style="font-size:6.75px; font-family:Arial;" text-anchor="middle"><textPath startOffset="21.466115282336823" xlink:href="#id28">April</textPath></text><path d="M 119.9155931802556 106.66101706037122 l 19.17581616222925 6.413589464650429 a41.21994202040865,41.21994202040865 0 0,0 -0.230849672837546,0.6709572076024787 l -19.062575658448473 -6.742719375342209" fill="#ffc512" stroke="none" /><line stroke="#e1ed5e" stroke-width="0.3" x1="174.80103733775053" x2="179.2010983576182" y1="140.37084112569926" y2="142.7455964860345" /><path d="M 175.68104954172406 140.8457921977663 a86.0,86.0 0 0,1 -30.038265399797805,32.042727171017184" fill="none" id="id29" stroke="none" /><text fill="#e1ed5e" style="font-size:6.75px; font-family:Arial;" text-anchor="middle"><textPath startOffset="22.206326154141568" xlink:href="#id29">May</textPath></text><path d="M 116.93607887273984 112.41649034213515 l 50.80823661821952 37.24947102640542 a84.0,84.0 0 0,0 -0.8649549332196318,1.15874848196274 l -50.159520418304794 -38.11853238787748" fill="#4dd2ff" stroke="none" /><path d="M 116.498646956653 112.99209946851258 l 42.78605949368221 33.69250474103028 a75.45945062816243,75.45945062816243 0 0,0 -0.8123823882480298,1.0135719388419446 l -42.19975919337933 -34.42400451345047" fill="#41ffd0" stroke="none" /><line stroke="#e1ed5e" stroke-width="0.3" x1="143.8653032363475" x2="146.44561519142675" y1="172.8068346515853" y2="177.08958963109032" /><path d="M 144.38136562736335 173.6633856474863 a86.0,86.0 0 0,1 -40.68145358897372,12.25698825130547" fill="none" id="id30" stroke="none" /><text fill="#e1ed5e" style="font-size:6.75px; font-family:Arial;" text-anchor="middle"><textPath startOffset="21.466115282336833" xlink:href="#id30">June</textPath></text><path d="M 102.70371172650421 120.8252237178851 l 3.5238582828321534 27.142367424276426 a48.37016051454406,48.37016051454406 0 0,0 -0.8266059119653714,0.10009046431568666 l -3.056124947815402 -27.199003417317464" fill="#d8ff1c" stroke="none" /><line stroke="#e1ed5e" stroke-width="0.3" x1="102.19456741930631" x2="102.32365962044197" y1="184.97166512339345" y2="189.96999836594603" /><path d="M 102.22038585953345 185.97133177190398 a86.0,86.0 0 0,1 -42.740103519485714,-10.115201625700543" fill="none" id="id31" stroke="none" /><text fill="#e1ed5e" style="font-size:6.75px; font-family:Arial;" text-anchor="middle"><textPath startOffset="22.20632615414155" xlink:href="#id31">July</textPath></text><path d="M 98.37488393609728 120.93702456842531 l -1.6050062646009373 20.67794192725299 a41.74013807707787,41.74013807707787 0 0,0 -0.7158546622243922,-0.06176695241604892 l 1.9607052445668711 -20.64725072255828" fill="#ffcc13" stroke="none" /><path d="M 97.65516085044442 120.86867818915974 l -1.3251607027982595 11.793709713887605 a32.867924827183884,32.867924827183884 0 0,0 -0.5616855657945095,-0.06801229977429828 l 1.5279736916441584 -11.76915188538796" fill="#ff4906" stroke="none" /><path d="M 93.42475214034765 119.94407469862007 l -4.810839168858764 14.592261431775052 a36.36483866501355,36.36483866501355 0 0,0 -0.5927992824708945,-0.2011097021183962 l 5.061308184266884 -14.507288742758533" fill="#ff7e0b" stroke="none" /><path d="M 93.08242187328487 119.8279376855182 l -10.913646773796337 31.28191748451529 a54.13104356055237,54.13104356055237 0 0,0 -0.877130251731246,-0.31450770147124535 l 11.45049658615731 -31.089422242004087" fill="#90ff24" stroke="none" /><path d="M 92.7421414339146 119.70592522655815 l -9.27049336448242 25.170461423351533 a47.82338859065611,47.82338859065611 0 0,0 -0.7700243726977978,-0.2911573293878979 l 9.7023879579405 -25.007155843857003" fill="#dfff1b" stroke="none" /><path d="M 92.40401165467489 119.57807347666478 l -9.006764004310215 23.214238812239458 a45.9002546465096,45.9002546465096 0 0,0 -0.7341394352416356,-0.29212923219386255 l 9.405024515593707 -23.05576273563953" fill="#f9ff18" stroke="none" /><path d="M 92.06813273071674 119.44442032107085 l -17.02180244062954 41.72776346870697 a66.06604045651423,66.06604045651423 0 0,0 -1.0492814309639429,-0.43859972324217344 l 17.737555331090945 -41.42857870244482" fill="#34ff5e" stroke="none" /><path d="M 91.7346041902142 119.30500536409082 l -2.875468907271728 6.716065867460943 a28.30574172639304,28.30574172639304 0 0,0 -0.44625932733744633,-0.19562697475199606 l 2.9906489092669175 -6.665574339414494" fill="#ff0000" stroke="none" /><path d="M 91.40352486487194 119.15986991738527 l -10.469508922508531 23.334497675038048 a46.57556253193352,46.57556253193352 0 0,0 -0.7286458527083811,-0.33448557315616245 l 10.869622770984332 -23.15082503154781" fill="#f0ff19" stroke="none" /><path d="M 90.7491055286396 118.85261126421891 l -20.499692465545998 41.7767962098635 a67.5353424049123,67.5353424049123 0 0,0 -1.03922771387877,-0.5210903497522622 l 21.215774087107526 -41.417738019201934" fill="#36ff71" stroke="none" /><line stroke="#e1ed5e" stroke-width="0.3" x1="58.666819895761336" x2="56.23545636021788" y1="174.27360380694188" y2="178.64263932499728" /><path d="M 58.180547188652646 175.14741091055294 a86.0,86.0 0 0,1 -31.652253787137756,-30.449443065178592" fill="none" id="id32" stroke="none" /><text fill="#e1ed5e" style="font-size:6.75px; font-family:Arial;" text-anchor="middle"><textPath startOffset="22.20632615414155" xlink:href="#id32">August</textPath></text><path d="M 89.7882731507175 118.34994917583269 l -8.994980364708729 16.16351817534325 a39.49781045329817,39.49781045329817 0 0,0 -0.5912469247574624,-0.33572543447416053 l 9.271876056387399 -16.006289575074454" fill="#ffac0f" stroke="none" /><line stroke="#e1ed5e" stroke-width="0.3" x1="26.63291911575756" x2="22.317208475507996" y1="142.92168965132927" y2="145.44649492493687" /><path d="M 25.769776987707644 143.4266507060508 a86.0,86.0 0 0,1 -11.730757126820373,-40.83630448921669" fill="none" id="id33" stroke="none" /><text fill="#e1ed5e" style="font-size:6.75px; font-family:Arial;" text-anchor="middle"><textPath startOffset="21.46611528233685" xlink:href="#id33">September</textPath></text><path d="M 81.69416730710424 110.29060199501025 l -22.558280853692064 12.681110652076194 a46.878303701059124,46.878303701059124 0 0,0 -0.389365811921952,-0.7068120475836089 l 22.773223075065534 -12.290928086094764" fill="#ecff1a" stroke="none" /><line stroke="#e1ed5e" stroke-width="0.3" x1="15.007084014347285" x2="10.007500721073583" y1="101.09737516637583" y2="101.16192664675087" /><path d="M 14.007167355692545 101.11028546245083 a86.0,86.0 0 0,1 10.666146001902534,-42.60595125391555" fill="none" id="id34" stroke="none" /><text fill="#e1ed5e" style="font-size:6.75px; font-family:Arial;" text-anchor="middle"><textPath startOffset="22.20632615414155" xlink:href="#id34">October</textPath></text><line stroke="#e1ed5e" stroke-width="0.3" x1="26.266209847984243" x2="21.928928074336255" y1="57.711370442889674" y2="55.22380399835377" /><path d="M 25.398753493254645 57.213857153982495 a86.0,86.0 0 0,1 29.58750427330803,-30.492523968695096" fill="none" id="id35" stroke="none" /><text fill="#e1ed5e" style="font-size:6.75px; font-family:Arial;" text-anchor="middle"><textPath startOffset="21.46611528233685" xlink:href="#id35">November</textPath></text><line stroke="#e1ed5e" stroke-width="0.3" x1="56.762969772571076" x2="54.21961505331055" y1="26.818313649435495" y2="22.513508569990535" /><path d="M 56.25429882871897 25.957352633546506 a86.0,86.0 0 0,1 42.265352541879196,-11.944610805530505" fill="none" id="id36" stroke="none" /><text fill="#e1ed5e" style="font-size:6.75px; font-family:Arial;" text-anchor="middle"><textPath startOffset="22.20632615414155" xlink:href="#id36">December</textPath></text></svg>