<?xml version="1.0" encoding="utf-8" ?>
<svg baseProfile="full" height="200mm" version="1.1" viewBox="0,0,200,200" width="200mm" xmlns="http://www.w3.org/2000/svg" xmlns:ev="http://www.w3.org/2001/xml-events" xmlns:xlink="http://www.w3.org/1999/xlink"><defs /><rect fill="#1a1a1a" height="200" width="200" x="0" y="0" /><text alignment-baseline="middle" fill="#e1ed5e" style="dominant-baseline: central; font-size:9.0px; font-family:Arial;" text-anchor="middle" x="100.0" y="100.0">2025</text><line stroke="#e1ed5e" stroke-width="0.3" x1="100.0" x2="100.0" y1="15.0" y2="10.0" /><path d="M 100.0 14.0 a86.0,86.0 0 0,1 42.46469731375804,11.215312516191453" fill="none" id="id109" stroke="none" /><text fill="#e1ed5e" style="font-size:6.75px; font-family:Arial;" text-anchor="middle"><textPath startOffset="22.20632615414155" xlink:href="#id109">January</textPath></text><path d="M 100.0 79.0 l 0.0 -11.633205485750238 a32.63320548575024,32.63320548575024 0 0,0 0.561726988532757,0.0048349615338408695 l -0.2002465092602287 11.631481900824957" fill="#ff6709" stroke="none" /><path d="M 101.08401301168833 79.027996857942 l 0.6371243014293901 -12.326210762588518 a33.342665803594656,33.342665803594656 0 0,0 0.5729190102283157,0.034560039270923416 l -0.8492053604973178 12.31341745393729" fill="#ff720a" stroke="none" /><path d="M 101.44485096284872 79.0497635885617 l 0.6913871587942731 -10.025064730561608 a31.048877502253468,31.048877502253468 0 0,0 0.532872383861859,0.04136115273657254 l -0.8638497320184733 10.011678315636571" fill="#ff5007" stroke="none" /><path d="M 101.80526077348638 79.07773832637324 l 0.6877150095740336 -7.9703462228346345 a28.999960677793844,28.999960677793844 0 0,0 0.4969693887289988,0.04719323167832609 l -0.8248095253932767 7.957327446641131" fill="#ff3104" stroke="none" /><path d="M 102.16513564639614 79.11191278185805 l 0.9907891559528725 -9.558611414846371 a30.609823897012117,30.609823897012117 0 0,0 0.5236222830243071,0.05883506457312914 l -1.155178142486905 9.540140396802641" fill="#ff4906" stroke="none" /><path d="M 102.88285421437855 79.19881850522331 l 0.8418825142660736 -6.074587778037365 a27.132648925293857,27.132648925293857 0 0,0 0.4620703285154371,0.06809715512794973 l -0.9463218232101664 6.0591961387484465" fill="#ff1502" stroke="none" /><path d="M 103.2404852339499 79.25152402106235 l 1.482292486054356 -9.490958242438955 a30.606012667799952,30.606012667799952 0 0,0 0.5198224207213262,0.08577515342939118 l -1.6454441129145574 9.46403682606994" fill="#ff4906" stroke="none" /><path d="M 103.95276090670814 79.375362276772 l 1.3732353522966052 -7.165240275924992 a28.29564551938585,28.29564551938585 0 0,0 0.47756796370863686,0.09579564079380952 l -1.4963697254723674 7.1405406790539745" fill="#ff2703" stroke="none" /><path d="M 104.307194497241 79.44645832069477 l 1.632190145898551 -7.788663412754181 a28.957846594999424,28.957846594999424 0 0,0 0.4869844865652397,0.10643594673068628 l -1.7660173566173187 7.759413967927624" fill="#ff3104" stroke="none" /><path d="M 106.0581310904928 79.89281104454417 l 4.702444632646687 -15.607609239354497 a37.30062734042747,37.30062734042747 0 0,0 0.6131772459515268,0.19051715511102932 l -4.970407251308932 15.524351949360947" fill="#ffaa0f" stroke="none" /><path d="M 106.40334571778207 80.00007090966166 l 2.3316869555824726 -7.282688742389009 a28.646850291286803,28.646850291286803 0 0,0 0.4683312282689793,0.15440144267495085 l -2.4567010060938697 7.241473575454822" fill="#ff2c04" stroke="none" /><path d="M 107.08798089147638 80.2323363322302 l 2.5031612664274063 -6.981064252081942 a28.416270923950854,28.416270923950854 0 0,0 0.45901434919233186,0.1690588585889795 l -2.6229579413923143 6.936942125686638" fill="#ff2903" stroke="none" /><line stroke="#e1ed5e" stroke-width="0.3" x1="143.23703022742887" x2="145.7803849466894" y1="26.81831364943548" y2="22.513508569990506" /><path d="M 143.74570117128098 25.957352633546492 a86.0,86.0 0 0,1 28.547481713284135,27.462654790039103" fill="none" id="id110" stroke="none" /><text fill="#e1ed5e" style="font-size:6.75px; font-family:Arial;" text-anchor="middle"><textPath startOffset="19.985693538727396" xlink:href="#id110">February</textPath></text><path d="M 112.19680574252982 82.90503203632743 l 4.607974031776756 -6.458508081011703 a28.933835850962787,28.933835850962787 0 0,0 0.4029445624030823,0.29275636101434754 l -4.718463910533627 6.378232485180681" fill="#ff3004" stroke="none" /><path d="M 113.06298171725822 83.55741782278167 l 8.898183788250272 -11.200284998715107 a35.30468660201693,35.30468660201693 0 0,0 0.4725727342177477,0.3821209525066296 l -9.089659921032512 11.045457948944348" fill="#ff8e0d" stroke="none" /><path d="M 113.6212207817346 84.01681056812373 l 5.238576105148876 -6.146964033809052 a29.07637582349774,29.07637582349774 0 0,0 0.3781399309654539,0.32791922188048567 l -5.343609834761095 6.055879818508895" fill="#ff3304" stroke="none" /><path d="M 113.89432698308785 84.25364557470407 l 6.522477088666436 -7.391882751429902 a30.858125480184633,30.858125480184633 0 0,0 0.3952617475025657,0.35486989957076137 l -6.648749823764992 7.2785138430898435" fill="#ff4d07" stroke="none" /><path d="M 114.94478906791727 85.2469230424477 l 8.74183502919234 -8.629694561080504 a33.283782312266716,33.283782312266716 0 0,0 0.39898654510113796,0.41119070663418056 l -8.889085837996586 8.47793965889621" fill="#ff710a" stroke="none" /><path d="M 115.19652480421416 85.50635884689758 l 4.833761900673187 -4.6101862965713964 a27.67975087870007,27.67975087870007 0 0,0 0.32587328271102145,0.34761889713855926 l -4.912402505354671 4.526297982554783" fill="#ff1d03" stroke="none" /><path d="M 116.60985879189232 87.15038557335679 l 22.589422024524453 -17.475486503084955 a49.56001778573632,49.56001778573632 0 0,0 0.516188966317209,0.6792441726829362 l -22.886886931065774 17.08405755452099" fill="#b6ff1f" stroke="none" /><path d="M 117.04232023915458 87.72973835380427 l 8.31759171217376 -5.988564065362503 a31.249157597352706,31.249157597352706 0 0,0 0.31053832534891074,0.4392344385568539 l -8.419442657326554 5.844503126473856" fill="#ff5307" stroke="none" /><path d="M 117.65298651832404 88.62581576622439 l 6.436252763017845 -4.1470107409713535 a28.656568925777826,28.656568925777826 0 0,0 0.26360277632075974,0.41695628779578087 l -6.50668313558456 4.035606805461366" fill="#ff2c04" stroke="none" /><line stroke="#e1ed5e" stroke-width="0.3" x1="172.23445277983987" x2="176.4835382374775" y1="55.19839476539836" y2="52.563006222186495" /><path d="M 173.08426987136738 54.67131705675599 a86.0,86.0 0 0,1 12.851231095245387,41.99856678651699" fill="none" id="id111" stroke="none" /><text fill="#e1ed5e" style="font-size:6.75px; font-family:Arial;" text-anchor="middle"><textPath startOffset="22.20632615414155" xlink:href="#id111">March</textPath></text><path d="M 118.56541770881063 90.18545643968196 l 6.917513655768632 -3.6569195570222153 a28.82464413403428,28.82464413403428 0 0,0 0.22811352131395637,0.4406427161030164 l -6.979436610242705 3.537304118658854" fill="#ff2f04" stroke="none" /><path d="M 119.04729006885535 91.15688171328212 l 7.304643404062574 -3.391339420511108 a29.053508448224754,29.053508448224754 0 0,0 0.20669175458336203,0.4554178831941325 l -7.361937475609283 3.265099528474913" fill="#ff3204" stroke="none" /><path d="M 119.47837535516314 92.15188598940014 l 7.3785831229207774 -2.9729359112088627 a28.954988173090303,28.954988173090303 0 0,0 0.1822874380753151,0.4639016468603346 l -7.428664110877793 2.8454852594527438" fill="#ff3104" stroke="none" /><path d="M 119.7369772167798 92.82701384747503 l 8.177542568474621 -2.971954568376514 a29.70084572991089,29.70084572991089 0 0,0 0.1704926404801848,0.482005653423361 l -8.227488289764615 2.830751288526539" fill="#ff3c05" stroke="none" /><path d="M 119.97218684219823 93.5106431181261 l 11.496261921837984 -3.7353619314575264 a33.087885130761464,33.087885130761464 0 0,0 0.17133933627037234,0.5431925186729417 l -11.558856741876562 3.5369192463581656" fill="#ff6e0a" stroke="none" /><path d="M 120.08093135843002 93.85539295169968 l 8.879289507325224 -2.7169927488301138 a30.285678852517528,30.285678852517528 0 0,0 0.14824710419083947,0.49981553774831666 l -8.924742508627764 2.563747824335267" fill="#ff4506" stroke="none" /><path d="M 120.18372546131832 94.20196356495316 l 6.540989353361999 -1.8789838706798025 a27.805521442701497,27.805521442701497 0 0,0 0.12818772985496052,0.46115946766832805 l -6.572363853783322 1.7661130995925227" fill="#ff1f03" stroke="none" /><path d="M 120.28053869075195 94.5502522615342 l 7.502097625499879 -2.0159493883148767 a28.768237941694245,28.768237941694245 0 0,0 0.12439340622541765,0.4793385374504761 l -7.535687363595599 1.8865144253155504" fill="#ff2e04" stroke="none" /><path d="M 120.45610955862082 95.25157060432595 l 6.534221020196599 -1.5167736113857968 a27.707953974870087,27.707953974870087 0 0,0 0.10384626202435616,0.46552243044947705 l -6.559361669222993 1.404073011386356" fill="#ff1e03" stroke="none" /><path d="M 120.53481517161879 95.60439243477599 l 8.009088489101826 -1.7143962416521392 a29.190522138402066,29.190522138402066 0 0,0 0.10094458429998229,0.4922416427861444 l -8.037412369316806 1.576278942702583" fill="#ff3405" stroke="none" /><path d="M 120.6074358757038 95.95851677861258 l 9.355943688179858 -1.8348662911820488 a30.534170997150653,30.534170997150653 0 0,0 0.09671229904228788,0.5166409686568775 l -9.386141711132005 1.6735472450626085" fill="#ff4806" stroke="none" /><path d="M 120.67395015179393 96.31383870115 l 19.142048478880596 -3.413023527941383 a40.443938633160116,40.443938633160116 0 0,0 0.11630162699270834,0.6864187859685901 l -19.19796196739353 3.0830189536569548" fill="#ffd413" stroke="none" /><path d="M 120.73433829027371 96.67025291283417 l 7.723400213647642 -1.240308178847105 a28.82235739650698,28.82235739650698 0 0,0 0.07444966790222418,0.4905302912602015 l -7.743605774989166 1.1071787751948214" fill="#ff2f04" stroke="none" /><path d="M 120.78858239683441 97.02765380044208 l 9.435167396084147 -1.3490378235802134 a30.531122013780923,30.531122013780923 0 0,0 0.06990754760361714,0.5208924292249263 l -9.4569909427456 1.1864270522906228" fill="#ff4806" stroke="none" /><path d="M 120.83666639777658 97.38593545837742 l 4.741163785375596 -0.5948028298182053 a25.77832862475121,25.77832862475121 0 0,0 0.051445745372419166,0.4407557289636481 l -4.750699883751604 0.5131033625297045" fill="#ff0000" stroke="none" /><path d="M 120.87857604477298 97.74499172005257 l 8.072305880239469 -0.8718562300021186 a29.119252152134592,29.119252152134592 0 0,0 0.04953444689800934,0.4988051203195408 l -8.086117452819707 0.7327755789781429" fill="#ff3304" stroke="none" /><path d="M 120.96714384426684 98.82574320788733 l 19.038888596442916 -1.0662656017768766 a40.068723117222525,40.068723117222525 0 0,0 0.03263958453460785,0.6889700423536814 l -19.05442178921102 0.7383844528001954" fill="#ffcf13" stroke="none" /><path d="M 120.98425023603335 99.18683210126433 l 6.696068017284645 -0.2594816349481228 a27.70109376228819,27.70109376228819 0 0,0 0.014362760609362783,0.47663010120446997 l -6.699542472349653 0.14418138631865382" fill="#ff1e03" stroke="none" /><line stroke="#e1ed5e" stroke-width="0.3" x1="184.98032266829074" x2="189.97916517819016" y1="98.17113171792111" y2="98.06355123074" /><path d="M 185.9800911702706 98.14961562048488 a86.0,86.0 0 0,1 -9.607161424134198,41.387399972396054" fill="none" id="id112" stroke="none" /><text fill="#e1ed5e" style="font-size:6.75px; font-family:Arial;" text-anchor="middle"><textPath startOffset="21.466115282336823" xlink:href="#id112">April</textPath></text><path d="M 120.99980553446 99.90962569577887 l 9.52607920098174 -0.040996226290351774 a30.52616741580511,30.52616741580511 0 0,0 -0.0022614114947548955,0.5254723898848127 l -9.525373492197483 -0.12298564179814561" fill="#ff4806" stroke="none" /><path d="M 120.9764740272857 100.99374915477107 l 62.92942208185712 2.9812474643131925 a84.0,84.0 0 0,0 -0.0808545964498828,1.4437131346583068 l -62.86878113451971 -4.064032315306923" fill="#4dd2ff" stroke="none" /><path d="M 120.95626037817324 101.35467743843564 l 13.34175478556321 0.8624522634757757 a34.36960151481237,34.36960151481237 0 0,0 -0.04324586425508265,0.5900554587614838 l -13.32493236264379 -1.0919808587340298" fill="#ff800b" stroke="none" /><path d="M 120.92983693683757 101.71520430193887 l 7.86687414862054 0.6446919019601512 a28.89324625985324,28.89324625985324 0 0,0 -0.04488827733779024,0.49533839994269385 l -7.8546112750056745 -0.7800116904514156" fill="#ff3004" stroke="none" /><path d="M 120.89721153311464 102.0752229133903 l 18.997005324112614 1.886520633239729 a40.09044712373186,40.09044712373186 0 0,0 -0.07410566138747834,0.6861263882644055 l -18.961717361224082 -2.213243343388926" fill="#ffd013" stroke="none" /><path d="M 120.8583938346157 102.4346265915055 l 11.412235841262175 1.33205524202727 a32.48971270591225,32.48971270591225 0 0,0 -0.0696184779414073,0.5549277674244745 l -11.38761585407392 -1.5283007637391393" fill="#ff6509" stroke="none" /><path d="M 120.76222939487914 103.15116336523771 l 6.830958232286555 1.0367607891067516 a27.90918687727237,27.90918687727237 0 0,0 -0.07617645852420016,0.4743508799463024 l -6.812100019401067 -1.1541908987462588" fill="#ff2103" stroke="none" /><path d="M 120.70491114924044 103.5080841355445 l 12.409907559408111 2.102641229365065 a33.58677503463379,33.58677503463379 0 0,0 -0.10148573172861106,0.5691858789603726 l -12.371875385340312 -2.315945859058656" fill="#ff750a" stroke="none" /><path d="M 120.64145759157962 103.86396538481128 l 18.756265818631633 3.511068031410541 a40.0820624194651,40.0820624194651 0 0,0 -0.1327862747140858,0.6770743540052876 l -18.69304961094188 -3.8334061124837735" fill="#ffd013" stroke="none" /><path d="M 120.5718875245553 104.21870165774334 l 7.562269710586157 1.5508037231037552 a28.719644769239146,28.719644769239146 0 0,0 -0.10348092995033333,0.4834284541525117 l -7.5344547419113805 -1.6807459966724358" fill="#ff2d04" stroke="none" /><path d="M 120.49622156327973 104.57218783832717 l 7.533896771923088 1.6806215277020577 a28.71907308485732,28.71907308485732 0 0,0 -0.11178479909311094,0.4815659888131191 l -7.5038514068994235 -1.8100561738637417" fill="#ff2d04" stroke="none" /><path d="M 120.41448212921028 104.9243191809786 l 10.372235517903219 2.5019590498137303 a31.66972674091506,31.66972674091506 0 0,0 -0.13239255653426185,0.5288424524728929 l -10.327631647073897 -2.6801293416840193" fill="#ff5908" stroke="none" /><path d="M 120.02730092923936 106.31721596034902 l 16.150775557148794 5.094442705091476 a37.93519700425285,37.93519700425285 0 0,0 -0.2017931173619189,0.6210553552200561 l -16.06069018877063 -5.371696960289327" fill="#ffb210" stroke="none" /><path d="M 119.79798401119884 107.00284435728193 l 17.98317978902419 6.360920841249265 a40.07501164542259,40.07501164542259 0 0,0 -0.23563293705441424,0.648360642454156 l -17.871022590964554 -6.669529280709552" fill="#ffcf13" stroke="none" /><path d="M 119.26925614724726 108.34839909993367 l 20.996542751453156 9.096745472086697 a43.88242962837491,43.88242962837491 0 0,0 -0.3062552993186132,0.6905248509256694 l -20.83684636740327 -9.456818659505055" fill="#fcff18" stroke="none" /><path d="M 119.12269723197855 108.67885076344098 l 8.676307417368262 3.9377487568621725 a30.528073030411193,30.528073030411193 0 0,0 -0.22129274353314068,0.4766448824437223 l -8.607240056995291 -4.086513706584726" fill="#ff4806" stroke="none" /><path d="M 118.97047184881838 109.00673069616215 l 7.749958947318556 3.6794969414088854 a29.579076956582234,29.579076956582234 0 0,0 -0.22233147475901208,0.45806869041112247 l -7.68547421594483 -3.812354587785283" fill="#ff3a05" stroke="none" /><path d="M 118.81262510543309 109.33194174019688 l 7.332782307234433 3.637402909012195 a29.185376978965643,29.185376978965643 0 0,0 -0.227119672794846,0.44812866127317214 l -7.269083964653318 -3.7630857819880617" fill="#ff3405" stroke="none" /><line stroke="#e1ed5e" stroke-width="0.3" x1="174.80103733775053" x2="179.2010983576182" y1="140.37084112569926" y2="142.7455964860345" /><path d="M 175.68104954172406 140.8457921977663 a86.0,86.0 0 0,1 -30.038265399797805,32.042727171017184" fill="none" id="id113" stroke="none" /><text fill="#e1ed5e" style="font-size:6.75px; font-family:Arial;" text-anchor="middle"><textPath startOffset="22.206326154141568" xlink:href="#id113">May</textPath></text><path d="M 118.30583269289576 110.29060199501025 l 10.14538991039324 5.703218826673015 a32.63854120664727,32.63854120664727 0 0,0 -0.27952268973875316,0.48737137059715163 l -10.045715224502107 -5.8770100431284815" fill="#ff6709" stroke="none" /><path d="M 118.12598468904814 110.60418214915192 l 16.088112187045038 9.41197264557413 a39.63900702355098,39.63900702355098 0 0,0 -0.34961438900447306,0.5859738257535799 l -15.923716922342338 -9.687508565213815" fill="#ffca12" stroke="none" /><path d="M 117.94076556474637 110.91462005526583 l 10.266223524173231 6.2456604075449915 a33.016805705954596,33.016805705954596 0 0,0 -0.2995651891522342,0.4829944685461534 l -10.157193695353035 -6.4214512074564185" fill="#ff6d0a" stroke="none" /><line stroke="#e1ed5e" stroke-width="0.3" x1="143.8653032363475" x2="146.44561519142675" y1="172.8068346515853" y2="177.08958963109032" /><path d="M 144.38136562736335 173.6633856474863 a86.0,86.0 0 0,1 -40.68145358897372,12.25698825130547" fill="none" id="id114" stroke="none" /><text fill="#e1ed5e" style="font-size:6.75px; font-family:Arial;" text-anchor="middle"><textPath startOffset="21.466115282336833" xlink:href="#id114">June</textPath></text><line stroke="#e1ed5e" stroke-width="0.3" x1="102.19456741930631" x2="102.32365962044197" y1="184.97166512339345" y2="189.96999836594603" /><path d="M 102.22038585953345 185.97133177190398 a86.0,86.0 0 0,1 -42.740103519485714,-10.115201625700543" fill="none" id="id115" stroke="none" /><text fill="#e1ed5e" style="font-size:6.75px; font-family:Arial;" text-anchor="middle"><textPath startOffset="22.20632615414155" xlink:href="#id115">July</textPath></text><line stroke="#e1ed5e" stroke-width="0.3" x1="58.666819895761336" x2="56.23545636021788" y1="174.27360380694188" y2="178.64263932499728" /><path d="M 58.180547188652646 175.14741091055294 a86.0,86.0 0 0,1 -31.652253787137756,-30.449443065178592" fill="none" id="id116" stroke="none" /><text fill="#e1ed5e" style="font-size:6.75px; font-family:Arial;" text-anchor="middle"><textPath startOffset="22.20632615414155" xlink:href="#id116">August</textPath></text><line stroke="#e1ed5e" stroke-width="0.3" x1="26.63291911575756" x2="22.317208475507996" y1="142.92168965132927" y2="145.44649492493687" /><path d="M 25.769776987707644 143.4266507060508 a86.0,86.0 0 0,1 -11.730757126820373,-40.83630448921669" fill="none" id="id117" stroke="none" /><text fill="#e1ed5e" style="font-size:6.75px; font-family:Arial;" text-anchor="middle"><textPath startOffset="21.46611528233685" xlink:href="#id117">September</textPath></text><line stroke="#e1ed5e" stroke-width="0.3" x1="15.007084014347285" x2="10.007500721073583" y1="101.09737516637583" y2="101.16192664675087" /><path d="M 14.007167355692545 101.11028546245083 a86.0,86.0 0 0,1 10.666146001902534,-42.60595125391555" fill="none" id="id118" stroke="none" /><text fill="#e1ed5e" style="font-size:6.75px; font-family:Arial;" text-anchor="middle"><textPath startOffset="22.20632615414155" xlink:href="#id118">October</textPath></text><line stroke="#e1ed5e" stroke-width="0.3" x1="26.266209847984243" x2="21.928928074336255" y1="57.711370442889674" y2="55.22380399835377" /><path d="M 25.398753493254645 57.213857153982495 a86.0,86.0 0 0,1 29.58750427330803,-30.492523968695096" fill="none" id="id119" stroke="none" /><text fill="#e1ed5e" style="font-size:6.75px; font-family:Arial;" text-anchor="middle"><textPath startOffset="21.46611528233685" xlink:href="#id119">November</textPath></text><line stroke="#e1ed5e" stroke-width="0.3" x1="56.762969772571076" x2="54.21961505331055" y1="26.818313649435495" y2="22.513508569990535" /><path d="M 56.25429882871897 25.957352633546506 a86.0,86.0 0 0,1 42.265352541879196,-11.944610805530505" fill="none" id="id120" stroke="none" /><text fill="#e1ed5e" style="font-size:6.75px; font-family:Arial;" text-anchor="middle"><textPath startOffset="22.20632615414155" xlink:href="#id120">December</textPath></text></svg>