<?xml version="1.0" encoding="utf-8" ?>
<svg baseProfile="full" height="200mm" version="1.1" viewBox="0,0,200,200" width="200mm" xmlns="http://www.w3.org/2000/svg" xmlns:ev="http://www.w3.org/2001/xml-events" xmlns:xlink="http://www.w3.org/1999/xlink"><defs /><rect fill="#1a1a1a" height="200" width="200" x="0" y="0" /><text alignment-baseline="middle" fill="#e1ed5e" style="dominant-baseline: central; font-size:9.0px; font-family:Arial;" text-anchor="middle" x="100.0" y="100.0">2024</text><line stroke="#e1ed5e" stroke-width="0.3" x1="100.0" x2="100.0" y1="15.0" y2="10.0" /><path d="M 100.0 14.0 a86.0,86.0 0 0,1 42.35913384403234,11.155469271406648" fill="none" id="id97" stroke="none" /><text fill="#e1ed5e" style="font-size:6.75px; font-family:Arial;" text-anchor="middle"><textPath startOffset="22.145653131862478" xlink:href="#id97">January</textPath></text><line stroke="#e1ed5e" stroke-width="0.3" x1="143.13028292997686" x2="145.6673583964461" y1="26.7553504044142" y2="22.446841604673864" /><path d="M 143.63769802327073 25.89364864446614 a86.0,86.0 0 0,1 29.32050498858742,28.57503671076993" fill="none" id="id98" stroke="none" /><text fill="#e1ed5e" style="font-size:6.75px; font-family:Arial;" text-anchor="middle"><textPath startOffset="20.669276256404974" xlink:href="#id98">February</textPath></text><line stroke="#e1ed5e" stroke-width="0.3" x1="172.87174338648825" x2="177.1583165268699" y1="56.24261187166439" y2="53.66864786411523" /><path d="M 173.72905801456457 55.72781907015455 a86.0,86.0 0 0,1 12.242430191666344,42.057860355516425" fill="none" id="id99" stroke="none" /><text fill="#e1ed5e" style="font-size:6.75px; font-family:Arial;" text-anchor="middle"><textPath startOffset="22.145653131862474" xlink:href="#id99">March</textPath></text><line stroke="#e1ed5e" stroke-width="0.3" x1="184.99686870605535" x2="189.99668451229388" y1="99.2704041080226" y2="99.22748670261217" /><path d="M 185.99683186730306 99.26182062694052 a86.0,86.0 0 0,1 -10.086455211305974,41.156179273409016" fill="none" id="id100" stroke="none" /><text fill="#e1ed5e" style="font-size:6.75px; font-family:Arial;" text-anchor="middle"><textPath startOffset="21.40746469413373" xlink:href="#id100">April</textPath></text><line stroke="#e1ed5e" stroke-width="0.3" x1="174.33088141563837" x2="178.70328620479359" y1="141.23008692659167" y2="143.65538615756765" /><path d="M 175.20536237346943 141.71514677278685 a86.0,86.0 0 0,1 -30.301960400862466,31.631185727798858" fill="none" id="id101" stroke="none" /><text fill="#e1ed5e" style="font-size:6.75px; font-family:Arial;" text-anchor="middle"><textPath startOffset="22.145653131862474" xlink:href="#id101">May</textPath></text><line stroke="#e1ed5e" stroke-width="0.3" x1="143.1302829299769" x2="145.66735839644613" y1="173.24464959558577" y2="177.55315839532614" /><path d="M 143.63769802327073 174.10635135553383 a86.0,86.0 0 0,1 -40.68552437913181,11.842963189579606" fill="none" id="id102" stroke="none" /><text fill="#e1ed5e" style="font-size:6.75px; font-family:Arial;" text-anchor="middle"><textPath startOffset="21.407464694133747" xlink:href="#id102">June</textPath></text><path d="M 106.72888874123015 119.89276391827305 l 0.8177484211669153 2.4175279028079246 a23.55208809432117,23.55208809432117 0 0,0 -0.3840978406296432,0.12626058936748336 l -0.7761278428895378 -2.4312094135774274" fill="#ff0000" stroke="none" /><path d="M 106.0420521117495 120.11202640906438 l 4.263332377640238 14.191246911455735 a35.81780995505535,35.81780995505535 0 0,0 -0.5903798235409915,0.17185096234504102 l -4.019092541717639 -14.262341568103295" fill="#ffae10" stroke="none" /><path d="M 105.69591212413111 120.21278271476187 l 6.835372883052465 24.256326967226688 a46.20102617734797,46.20102617734797 0 0,0 -0.7652179143040309,0.2085635453164831 l -6.417973567813739 -24.370091006687314" fill="#ceff1d" stroke="none" /><path d="M 103.58742460773223 120.69131181640829 l 7.52554997793231 43.40537243563015 a65.05292565478618,65.05292565478618 0 0,0 -1.1019423403630186,0.18132419276848935 l -6.779330134516219 -43.52816262689431" fill="#35ff64" stroke="none" /><path d="M 103.2317021107853 120.74984581791261 l 1.8346532687185264 11.779790076625627 a32.92180384278265,32.92180384278265 0 0,0 -0.5591609956585236,0.08217741059539976 l -1.6321671674523173 -11.809548560519909" fill="#ff860c" stroke="none" /><path d="M 102.875027216393 120.80226474461374 l 1.6343513619748828 11.82535230402991 a32.93775780826595,32.93775780826595 0 0,0 -0.5607609006497792,0.07260172541345794 l -1.4311126394343283 -11.851665625643763" fill="#ff870c" stroke="none" /><path d="M 102.51750503828377 120.84855314841334 l 1.3881117086200732 11.495556232463198 a32.57906158586833,32.57906158586833 0 0,0 -0.5558051488453882,0.06227912622672591 l -1.1905706581738857 -11.517691119196895" fill="#ff820b" stroke="none" /><path d="M 102.15924093988457 120.88869738790638 l 1.2775776733019917 12.359405064159963 a33.42526049027958,33.42526049027958 0 0,0 -0.5712543135205209,0.054098377421264075 l -1.0652237963964555 -12.37951519708641" fill="#ff8d0d" stroke="none" /><path d="M 101.80034050326958 120.92268563240118 l 0.8384485643990827 9.74404325181884 a30.78004984079627,30.78004984079627 0 0,0 -0.5268240121497975,0.040779510408309315 l -0.6710555574740494 -9.757000529222202" fill="#ff6909" stroke="none" /><path d="M 100.72087961077811 120.9876233191556 l 0.4765435661299555 13.874045973234118 a34.882227682826475,34.882227682826475 0 0,0 -0.5986233539258852,0.015418414133908412 l -0.23830689813332648 -13.880182104718072" fill="#ffa10e" stroke="none" /><line stroke="#e1ed5e" stroke-width="0.3" x1="101.45913802915013" x2="101.54496967792366" y1="184.9874750549273" y2="189.98673829345242" /><path d="M 101.47630435890484 185.9873277026323 a86.0,86.0 0 0,1 -42.54439059252881,-10.42667462771756" fill="none" id="id103" stroke="none" /><text fill="#e1ed5e" style="font-size:6.75px; font-family:Arial;" text-anchor="middle"><textPath startOffset="22.145653131862474" xlink:href="#id103">July</textPath></text><path d="M 100.36049292484886 120.99690560180557 l 0.206968236584273 12.054862180593908 a33.05663875398397,33.05663875398397 0 0,0 -0.5674611614331238,0.004870971584495957 l -1.4765124058542399e-15 -12.056638753983968" fill="#ff880c" stroke="none" /><path d="M 99.63950707515114 120.99690560180557 l -0.20853649460851978 12.14620534830865 a33.1479953833077,33.1479953833077 0 0,0 -0.5688617238756449,-0.014651860115580232 l 0.41701153255490864 -12.14083577084302" fill="#ff8a0c" stroke="none" /><path d="M 98.91894614982273 120.97215588758144 l -0.5434300309878424 10.542397422664397 a31.556394252583615,31.556394252583615 0 0,0 -0.5407498427679726,-0.03253016774060477 l 0.7243242258882613 -10.531515277099102" fill="#ff740a" stroke="none" /><path d="M 98.19965949673042 120.92268563240118 l -0.9897829686239406 11.502778423978247 a32.54528396342496,32.54528396342496 0 0,0 -0.5562150773443751,-0.05267414611914817 l 1.187097609353331 -11.484092522353915" fill="#ff810b" stroke="none" /><path d="M 97.84075906011543 120.88869738790638 l -1.1480358281825174 11.10620522351761 a32.16538314298621,32.16538314298621 0 0,0 -0.5487477138755621,-0.06148832591795623 l 1.3385194436588788 -11.084861137092684" fill="#ff7c0b" stroke="none" /><path d="M 97.12497278360702 120.80226474461374 l -1.6641434293959545 12.04091286298706 a33.15536737115127,33.15536737115127 0 0,0 -0.5631279597925614,-0.08276041771319068 l 1.8705964947962008 -12.010571371974988" fill="#ff8a0c" stroke="none" /><path d="M 96.76829788921471 120.74984581791261 l -1.7063147927188718 10.955764996897148 a32.08784455334255,32.08784455334255 0 0,0 -0.5435413421981032,-0.08943952101695773 l 1.8941336379700386 -10.924859477384523" fill="#ff7b0b" stroke="none" /><path d="M 96.05791012581884 120.62667999033965 l -2.1708148489028347 11.358620588501187 a32.564199011679975,32.564199011679975 0 0,0 -0.5481694664999129,-0.10964924568126386 l 2.3654808009337054 -11.319681946157063" fill="#ff820b" stroke="none" /><path d="M 95.70440661134978 120.55596938700252 l -12.886780165950636 61.667908161007546 a84.0,84.0 0 0,0 -1.4089503335234541,-0.30707416746512495 l 13.943492916093227 -61.43760253540871" fill="#4dd2ff" stroke="none" /><path d="M 95.35216902796893 120.47920084513623 l -2.7320834021153173 12.03806357293851 a33.344199216726174,33.344199216726174 0 0,0 -0.5571146364019443,-0.13147753724635086 l 2.9383301922571494 -11.989389892045931" fill="#ff8c0c" stroke="none" /><path d="M 95.00130118170881 120.39639698878247 l -2.4060271827524273 9.817411964419266 a31.107944622091384,31.107944622091384 0 0,0 -0.5175691042665131,-0.1315640423663106 l 2.574201580244319 -9.774662690217694" fill="#ff6d0a" stroke="none" /><path d="M 94.6519064749342 120.30758222061772 l -1.7283245905780082 6.562729982671064 a27.786496203185145,27.786496203185145 0 0,0 -0.4602219134440605,-0.1254355290251219 l 1.8407279049567637 -6.532093959501798" fill="#ff3e05" stroke="none" /><path d="M 94.30408787586889 120.21278271476187 l -2.590696431882554 9.193467686360949 a30.55152114075721,30.55152114075721 0 0,0 -0.5035763404468943,-0.1465837335038705 l 2.7481327847110553 -9.147640258554562" fill="#ff6609" stroke="none" /><path d="M 93.95794788825049 120.11202640906438 l -3.553788702349092 11.829406782985187 a33.3516913407954,33.3516913407954 0 0,0 -0.54690320584652,-0.16943201117407095 l 3.7563325410672457 -11.766658184004468" fill="#ff8c0c" stroke="none" /><path d="M 93.61358852112213 120.00534299687104 l -3.999123252085559 12.527196628237155 a34.15004342760463,34.15004342760463 0 0,0 -0.5569339705855573,-0.1830752582457466 l 4.21357996031886 -12.456700448589386" fill="#ff970d" stroke="none" /><path d="M 93.27111125876986 119.89276391827306 l -15.077305225021451 44.57337383620724 a68.05433867339698,68.05433867339698 0 0,0 -1.1034337859802343,-0.3838315496659586 l 15.840244783046707 -44.30798385397269" fill="#39ff87" stroke="none" /><path d="M 92.59220618246901 119.65005319985036 l -4.00757104818675 10.630558333398202 a32.3608712775934,32.3608712775934 0 0,0 -0.5181248825430188,-0.20042183515782225 l 4.1894681932232976 -10.56019661010234" fill="#ff7f0b" stroke="none" /><path d="M 91.59046798132341 119.24265499422711 l -4.650479476857203 10.641207136396586 a32.61302065288647,32.61302065288647 0 0,0 -0.5110718090122525,-0.2285959196002058 l 4.832464688725091 -10.559807465886525" fill="#ff820c" stroke="none" /><path d="M 91.26138138417905 119.09545874513695 l -6.663529326083406 14.561014153068406 a37.013299355393066,37.013299355393066 0 0,0 -0.5754885703042354,-0.2693577090237794 l 6.912506610259132 -14.4444802124741" fill="#ffbd11" stroke="none" /><line stroke="#e1ed5e" stroke-width="0.3" x1="58.13341422392154" x2="55.67067388415222" y1="173.97424548756322" y2="178.32567169271397" /><path d="M 57.64086615596768 174.84453072859336 a86.0,86.0 0 0,1 -31.369924170532247,-30.572349798747897" fill="none" id="id104" stroke="none" /><text fill="#e1ed5e" style="font-size:6.75px; font-family:Arial;" text-anchor="middle"><textPath startOffset="22.145653131862474" xlink:href="#id104">August</textPath></text><line stroke="#e1ed5e" stroke-width="0.3" x1="26.387840678322732" x2="22.057713659400548" y1="142.50000000000003" y2="145.00000000000006" /><path d="M 25.521815274538298 143.00000000000003 a86.0,86.0 0 0,1 -11.493303480769221,-40.785679425670985" fill="none" id="id105" stroke="none" /><text fill="#e1ed5e" style="font-size:6.75px; font-family:Arial;" text-anchor="middle"><textPath startOffset="21.40746469413373" xlink:href="#id105">September</textPath></text><line stroke="#e1ed5e" stroke-width="0.3" x1="15.003131293944662" x2="10.003315487706104" y1="100.72959589197737" y2="100.7725132973878" /><path d="M 14.003168132696942 100.73817937305945 a86.0,86.0 0 0,1 10.791469493833604,-42.45332614584628" fill="none" id="id106" stroke="none" /><text fill="#e1ed5e" style="font-size:6.75px; font-family:Arial;" text-anchor="middle"><textPath startOffset="22.145653131862435" xlink:href="#id106">October</textPath></text><line stroke="#e1ed5e" stroke-width="0.3" x1="26.387840678322718" x2="22.05771365940052" y1="57.49999999999999" y2="54.99999999999999" /><path d="M 25.521815274538284 56.99999999999999 a86.0,86.0 0 0,1 29.574782752854787,-30.34633250058573" fill="none" id="id107" stroke="none" /><text fill="#e1ed5e" style="font-size:6.75px; font-family:Arial;" text-anchor="middle"><textPath startOffset="21.40746469413373" xlink:href="#id107">November</textPath></text><line stroke="#e1ed5e" stroke-width="0.3" x1="56.869717070023135" x2="54.33264160355391" y1="26.7553504044142" y2="22.446841604673864" /><path d="M 56.362301976729285 25.89364864446614 a86.0,86.0 0 0,1 42.16139366436587,-11.88097634709845" fill="none" id="id108" stroke="none" /><text fill="#e1ed5e" style="font-size:6.75px; font-family:Arial;" text-anchor="middle"><textPath startOffset="22.145653131862474" xlink:href="#id108">December</textPath></text></svg>