<?xml version="1.0" encoding="utf-8" ?>
<svg baseProfile="full" height="200mm" version="1.1" viewBox="0,0,200,200" width="200mm" xmlns="http://www.w3.org/2000/svg" xmlns:ev="http://www.w3.org/2001/xml-events" xmlns:xlink="http://www.w3.org/1999/xlink"><defs /><rect fill="#1a1a1a" height="200" width="200" x="0" y="0" /><text alignment-baseline="middle" fill="#e1ed5e" style="dominant-baseline: central; font-size:9.0px; font-family:Arial;" text-anchor="middle" x="100.0" y="100.0">2016</text><line stroke="#e1ed5e" stroke-width="0.3" x1="100.0" x2="100.0" y1="15.0" y2="10.0" /><path d="M 100.0 14.0 a86.0,86.0 0 0,1 42.35913384403234,11.155469271406648" fill="none" id="id1" stroke="none" /><text fill="#e1ed5e" style="font-size:6.75px; font-family:Arial;" text-anchor="middle"><textPath startOffset="22.145653131862478" xlink:href="#id1">January</textPath></text><line stroke="#e1ed5e" stroke-width="0.3" x1="143.13028292997686" x2="145.6673583964461" y1="26.7553504044142" y2="22.446841604673864" /><path d="M 143.63769802327073 25.89364864446614 a86.0,86.0 0 0,1 29.32050498858742,28.57503671076993" fill="none" id="id2" stroke="none" /><text fill="#e1ed5e" style="font-size:6.75px; font-family:Arial;" text-anchor="middle"><textPath startOffset="20.669276256404974" xlink:href="#id2">February</textPath></text><line stroke="#e1ed5e" stroke-width="0.3" x1="172.87174338648825" x2="177.1583165268699" y1="56.24261187166439" y2="53.66864786411523" /><path d="M 173.72905801456457 55.72781907015455 a86.0,86.0 0 0,1 12.242430191666344,42.057860355516425" fill="none" id="id3" stroke="none" /><text fill="#e1ed5e" style="font-size:6.75px; font-family:Arial;" text-anchor="middle"><textPath startOffset="22.145653131862474" xlink:href="#id3">March</textPath></text><path d="M 120.51834098615036 95.52812308129327 l 14.23055199414494 -3.101482573373121 a35.56460793193554,35.56460793193554 0 0,0 0.12488645726356232,0.5976269074126032 l -14.281696162232869 2.8567392146751134" fill="#ffbb11" stroke="none" /><path d="M 120.9064616781168 98.02013634271609 l 14.315308419564797 -1.3556745909028345 a35.3793570351279,35.3793570351279 0 0,0 0.05206894082090483,0.6051200192571307 l -14.336470983083442 1.1097335242700417" fill="#ffb911" stroke="none" /><line stroke="#e1ed5e" stroke-width="0.3" x1="184.99686870605535" x2="189.99668451229388" y1="99.2704041080226" y2="99.22748670261217" /><path d="M 185.99683186730306 99.26182062694052 a86.0,86.0 0 0,1 -10.086455211305974,41.156179273409016" fill="none" id="id4" stroke="none" /><text fill="#e1ed5e" style="font-size:6.75px; font-family:Arial;" text-anchor="middle"><textPath startOffset="21.40746469413373" xlink:href="#id4">April</textPath></text><path d="M 120.77682067341334 103.0534771498775 l 12.090231066276695 1.776847616770128 a33.22010125527542,33.22010125527542 0 0,0 -0.08776198326944505,0.5634948887887122 l -12.057947590868983 -1.9841306874902906" fill="#ff9d0e" stroke="none" /><path d="M 120.26092885502905 105.52220625578681 l 14.750782964436326 4.020391490775356 a36.288856916166225,36.288856916166225 0 0,0 -0.16897043572155002,0.5996164666917708 l -14.679594036640195 -4.273015881370136" fill="#ffc412" stroke="none" /><line stroke="#e1ed5e" stroke-width="0.3" x1="174.33088141563837" x2="178.70328620479359" y1="141.23008692659167" y2="143.65538615756765" /><path d="M 175.20536237346943 141.71514677278685 a86.0,86.0 0 0,1 -30.301960400862466,31.631185727798858" fill="none" id="id5" stroke="none" /><text fill="#e1ed5e" style="font-size:6.75px; font-family:Arial;" text-anchor="middle"><textPath startOffset="22.145653131862474" xlink:href="#id5">May</textPath></text><path d="M 111.5731344415666 117.5232005979908 l 6.535759531002782 9.89597294494826 a32.859444893174455,32.859444893174455 0 0,0 -0.4733549617259192,0.30682296727834074 l -6.364918937019853 -10.006709753930496" fill="#ff980e" stroke="none" /><line stroke="#e1ed5e" stroke-width="0.3" x1="143.1302829299769" x2="145.66735839644613" y1="173.24464959558577" y2="177.55315839532614" /><path d="M 143.63769802327073 174.10635135553383 a86.0,86.0 0 0,1 -40.68552437913181,11.842963189579606" fill="none" id="id6" stroke="none" /><text fill="#e1ed5e" style="font-size:6.75px; font-family:Arial;" text-anchor="middle"><textPath startOffset="21.407464694133747" xlink:href="#id6">June</textPath></text><path d="M 106.72888874123015 119.89276391827305 l 7.064053539321366 20.883619088948 a43.04600641065569,43.04600641065569 0 0,0 -0.7020132586056879,0.23076570185878054 l -6.704517543067944 -21.001805712208796" fill="#e7ff1a" stroke="none" /><path d="M 106.38641147887787 120.00534299687104 l 1.8273605148258263 5.724180785866419 a27.008784579299444,27.008784579299444 0 0,0 -0.44289180783972326,0.13720901419595 l -1.7288280741144788 -5.754706387869013" fill="#ff4906" stroke="none" /><path d="M 105.69591212413111 120.21278271476187 l 1.0478171609684332 3.7183334535176717 a24.863149553715026,24.863149553715026 0 0,0 -0.4118031355297295,0.11223877579583236 l -0.9838326245040087 -3.735772723457646" fill="#ff2a04" stroke="none" /><path d="M 104.64783097203109 120.47920084513623 l 11.231532930874609 49.48820645033659 a71.74672314197693,71.74672314197693 0 0,0 -1.2034234464298035,0.2622805390139688 l -10.380347067825669 -49.673718447484276" fill="#3effb4" stroke="none" /><path d="M 104.29559338865022 120.5559693870025 l 0.7516906597470002 3.5971119219713623 a24.674813332284973,24.674813332284973 0 0,0 -0.41536348723001404,0.08308433037891143 l -0.6898306869860275 -3.609485649013135" fill="#ff2803" stroke="none" /><path d="M 102.15924093988457 120.88869738790638 l 2.0813685291861654 20.13535245455558 a41.24264096958359,41.24264096958359 0 0,0 -0.7048572310066004,0.06675071261362546 l -1.73541173479455 -20.16811492267439" fill="#fcff18" stroke="none" /><path d="M 100.72087961077811 120.9876233191556 l 0.7300861422288628 21.255661437137302 a42.26819618362781,42.26819618362781 0 0,0 -0.7253759591821551,0.01868311162286563 l -0.3650968689759638 -21.265062266110213" fill="#f0ff19" stroke="none" /><line stroke="#e1ed5e" stroke-width="0.3" x1="101.45913802915013" x2="101.54496967792366" y1="184.9874750549273" y2="189.98673829345242" /><path d="M 101.47630435890484 185.9873277026323 a86.0,86.0 0 0,1 -42.54439059252881,-10.42667462771756" fill="none" id="id7" stroke="none" /><text fill="#e1ed5e" style="font-size:6.75px; font-family:Arial;" text-anchor="middle"><textPath startOffset="22.145653131862474" xlink:href="#id7">July</textPath></text><path d="M 100.36049292484886 120.99690560180557 l 0.09072953768369828 5.284540712799861 a26.28531951676032,26.28531951676032 0 0,0 -0.4512224625325499,0.0038732021548956125 l -6.472649628671563e-16 -5.285319516760321" fill="#ff3e05" stroke="none" /><path d="M 99.63950707515114 120.99690560180557 l -0.4841915348233954 28.201729490649193 a49.20588569263775,49.20588569263775 0 0,0 -0.8444355272849293,-0.02174966376382479 l 0.9682403761790687 -28.18926210953532" fill="#a0ff22" stroke="none" /><path d="M 99.27912038922189 120.98762331915562 l -0.6485350347559666 18.88138992312739 a39.89252453010138,39.89252453010138 0 0,0 -0.6842028419210309,-0.029382613975728455 l 0.9725636372778362 -18.867474740725836" fill="#fff116" stroke="none" /><path d="M 98.91894614982273 120.97215588758144 l -0.7588290433558335 14.721080718294722 a35.74062546269964,35.74062546269964 0 0,0 -0.6124507586224459,-0.03684351678932899 l 1.0114241541107256 -14.705885223680701" fill="#ffbd11" stroke="none" /><path d="M 98.55909050195518 120.95050786540614 l -0.3989723323128572 5.8009701494381725 a26.8146739888513,26.8146739888513 0 0,0 -0.4589535822184358,-0.03552590988902357 l 0.4984949093065292 -5.793266472554095" fill="#ff4606" stroke="none" /><path d="M 97.48249496171623 120.84855314841334 l -2.2555743399528003 18.679391219316656 a39.81508097052303,39.81508097052303 0 0,0 -0.6778464033417043,-0.08776078787035514 l 2.5758985651852986 -18.637918835245905" fill="#fff016" stroke="none" /><path d="M 97.12497278360702 120.80226474461374 l -2.208735687621221 15.981311155175112 a37.13322099198719,37.13322099198719 0 0,0 -0.6306898893220727,-0.09268969473120844 l 2.482750682550979 -15.941040387145021" fill="#ffcf13" stroke="none" /><path d="M 96.76829788921471 120.74984581791261 l -0.8379245659720551 5.38007680006638 a26.444937460877945,26.444937460877945 0 0,0 -0.4479551992947181,-0.07371085757699931 l 0.9301572683198368 -5.364899943993713" fill="#ff4106" stroke="none" /><path d="M 96.41257539226777 120.69131181640829 l -2.8569487291770765 16.4781210653129 a37.72395377547592,37.72395377547592 0 0,0 -0.6371131484422271,-0.11610323900179763 l 3.1393966111703606 -16.426649652379737" fill="#ffd714" stroke="none" /><path d="M 95.35216902796893 120.47920084513623 l -3.645762156634821 16.06390075039552 a37.4724160043786,37.4724160043786 0 0,0 -0.6260888522675846,-0.14775526438358916 l 3.9209831626422935 -15.998949342365702" fill="#ffd313" stroke="none" /><path d="M 95.00130118170881 120.39639698878247 l -4.032524700643006 16.454076881051783 a37.9410124097959,37.9410124097959 0 0,0 -0.6312566145549003,-0.1604629629100682 l 4.314386608423285 -16.382428686306454" fill="#ffd914" stroke="none" /><path d="M 94.6519064749342 120.30758222061772 l -4.740533659898559 18.00057845226468 a39.6143354433288,39.6143354433288 0 0,0 -0.6561239360381751,-0.17882949642074653 l 5.04883899687143 -17.91654846169979" fill="#ffee16" stroke="none" /><path d="M 94.30408787586889 120.21278271476187 l -4.530044660981349 16.075530384793446 a37.70161614284387,37.70161614284387 0 0,0 -0.6214303307084471,-0.18088931244655126 l 4.805335004071402 -15.995397378044379" fill="#ffd614" stroke="none" /><path d="M 93.95794788825049 120.11202640906438 l -6.978653890165842 23.229669116192852 a45.25529091490207,45.25529091490207 0 0,0 -0.7420992066031326,-0.2299042311716433 l 7.376393729640609 -23.10644829721456" fill="#cdff1d" stroke="none" /><path d="M 93.61358852112213 120.00534299687104 l -4.860262332554829 15.224702532730614 a36.981668159218714,36.981668159218714 0 0,0 -0.6031133556375636,-0.1982553393514781 l 5.120898425840136 -15.139026271977114" fill="#ffcd13" stroke="none" /><path d="M 93.27111125876986 119.89276391827306 l -5.002068274043613 14.787726042924932 a36.61081447390859,36.61081447390859 0 0,0 -0.593608143290307,-0.20648772624906042 l 5.255182189378941 -14.699679884107281" fill="#ffc812" stroke="none" /><path d="M 92.93061703081489 119.77432235084164 l -7.386163250637068 20.660413177597842 a42.94101365557481,42.94101365557481 0 0,0 -0.6919859457150065,-0.25410682427063147 l 7.739738348006194 -20.53057550431849" fill="#e8ff1a" stroke="none" /><path d="M 92.59220618246901 119.65005319985036 l -14.38082645798703 38.14685072477434 a61.767516355953745,61.767516355953745 0 0,0 -0.9889501083693485,-0.3825471469852739 l 15.033548828849908 -37.89436368965102" fill="#31ff43" stroke="none" /><path d="M 92.25597844496254 119.51999308798841 l -10.223560772502974 25.77005167090113 a48.72393835640917,48.72393835640917 0 0,0 -0.774816278445467,-0.3151110351640679 l 10.664431512138883 -25.590753379157768" fill="#a5ff21" stroke="none" /><path d="M 91.92203290615298 119.3841803445677 l -7.3568028425161955 17.653648672001246 a40.125215279784584,40.125215279784584 0 0,0 -0.633529237524383,-0.27041595952206443 l 7.6587671552110095 -17.524758062819778" fill="#fff417" stroke="none" /><path d="M 91.59046798132341 119.24265499422711 l -6.757779320880576 15.463121575615489 a37.87529881845019,37.87529881845019 0 0,0 -0.5935358668566552,-0.2654810437735367 l 7.022228590592865 -15.344836780932097" fill="#ffd814" stroke="none" /><path d="M 91.26138138417905 119.09545874513695 l -6.8797798125517735 15.03356049300094 a37.532976482349255,37.532976482349255 0 0,0 -0.5835685915944275,-0.27313956697178166 l 7.136837118017691 -14.913244694458632" fill="#ffd413" stroke="none" /><path d="M 90.93487009805054 118.94263497670748 l -5.441949362792913 11.37158115284631 a33.606651846663,33.606651846663 0 0,0 -0.5182461789123696,-0.25350017575324685 l 5.636355790967352 -11.276487226995842" fill="#ffa20e" stroke="none" /><path d="M 90.6110303473126 118.78422872680471 l -0.8878388994900138 1.7762725386806897 a22.985800101500345,22.985800101500345 0 0,0 -0.3514340333202351,-0.17944472147993787 l 0.9182001545238312 -1.7607698655279156" fill="#ff0f01" stroke="none" /><path d="M 90.28995756902619 118.62028667847754 l -7.585826373922965 14.546822300696734 a37.40593797450646,37.40593797450646 0 0,0 -0.5668089437848627,-0.30179383692471756 l 7.834424133494389 -14.414457996049443" fill="#ffd313" stroke="none" /><path d="M 89.97174638481275 118.45085714620012 l -10.452945679161214 19.232242709848144 a42.88934062556481,42.88934062556481 0 0,0 -0.6438625665886613,-0.35713971210414985 l 10.781552433905977 -19.049970082310846" fill="#e8ff1a" stroke="none" /><line stroke="#e1ed5e" stroke-width="0.3" x1="58.13341422392154" x2="55.67067388415222" y1="173.97424548756322" y2="178.32567169271397" /><path d="M 57.64086615596768 174.84453072859336 a86.0,86.0 0 0,1 -31.369924170532247,-30.572349798747897" fill="none" id="id8" stroke="none" /><text fill="#e1ed5e" style="font-size:6.75px; font-family:Arial;" text-anchor="middle"><textPath startOffset="22.145653131862474" xlink:href="#id8">August</textPath></text><path d="M 89.65649057296885 118.27599006163327 l -6.522110428342548 11.523944190330376 a34.2415714377616,34.2415714377616 0 0,0 -0.5090703102459702,-0.2939118806569594 l 6.718973206448918 -11.410285412397243" fill="#ffaa0f" stroke="none" /><path d="M 88.4268655584334 117.5232005979908 l -10.373801556303208 15.70725774876968 a39.8237537360603,39.8237537360603 0 0,0 -0.5672110744936368,-0.3816449247452892 l 10.64190891889385 -15.52686314996727" fill="#fff116" stroke="none" /><path d="M 87.83215693770417 117.11559508785305 l -4.49229083547265 6.318969645086438 a28.753067413997854,28.753067413997854 0 0,0 -0.3998305568992973,-0.2894464891417808 l 4.600102402745901 -6.240922384571592" fill="#ff6108" stroke="none" /><path d="M 87.54013794807813 116.9041958592261 l -9.428608906325376 12.791718798201604 a36.891089821680026,36.891089821680026 0 0,0 -0.5065445469478993,-0.38012047147170114 l 9.646806442184042 -12.627979299465888" fill="#ffcc13" stroke="none" /><path d="M 87.2517909369889 116.68781488649013 l -9.044225366211236 11.839181327905084 a35.89846391376759,35.89846391376759 0 0,0 -0.4864926587013989,-0.37829963393074634 l 9.246127969547864 -11.682180642353545" fill="#ffbf11" stroke="none" /><path d="M 86.96720088162412 116.46651593811092 l -13.965922880127085 17.645487328335268 a43.50356027272346,43.50356027272346 0 0,0 -0.5815995730176451,-0.46849544674941007 l 14.266773223499992 -17.403143587792446" fill="#e1ff1b" stroke="none" /><path d="M 86.68645165197938 116.24036423190432 l -12.774905736986467 15.583307828506122 a41.15037715445718,41.15037715445718 0 0,0 -0.5424514550129452,-0.4525322967263434 l 13.040531526161304 -15.361713347867909" fill="#fdff18" stroke="none" /><path d="M 86.40962598614128 116.0094264158162 l -17.011383589550075 20.03936709397439 a47.28618278027217,47.28618278027217 0 0,0 -0.6143162374353439,-0.5306317345484165 l 17.35287930674828 -19.744391226961252" fill="#b5ff1f" stroke="none" /><path d="M 86.13680546590413 115.77377054828092 l -15.101759004603359 17.183029555574546 a43.876180401038695,43.876180401038695 0 0,0 -0.561479245865051,-0.5020782039053682 l 15.394503277291781 -16.921255821785795" fill="#ddff1b" stroke="none" /><path d="M 85.86807049272751 115.53346607816431 l -19.450590403849223 21.379606095754795 a49.903512310235705,49.903512310235705 0 0,0 -0.6287135078169196,-0.5819278366876751 l 19.81473368298011 -21.04256051293474" fill="#98ff23" stroke="none" /><path d="M 85.60350026404147 115.28858382429668 l -10.877818614825616 11.551866409782107 a36.86734241662727,36.86734241662727 0 0,0 -0.45702779067013466,-0.4378222850751101 l 11.074518891361064 -11.363431994401415" fill="#ffcc13" stroke="none" /><path d="M 85.34317274990678 115.03919595460226 l -12.543160905516194 12.870388081224386 a38.971582425123074,38.971582425123074 0 0,0 -0.47509714219774557,-0.4710365072627474 l 12.762249967843902 -12.653171563732979" fill="#ffe615" stroke="none" /><path d="M 85.08716467003676 114.78537596483092 l -1.971372632739511 1.9545233952438512 a23.77605327032279,23.77605327032279 0 0,0 -0.28487470568355594,-0.2923065441231433 l 2.0046341395738763 -1.9203941590529707" fill="#ff1b02" stroke="none" /><path d="M 84.83555147118756 114.52719865689866 l -13.63045995170406 13.057672300254298 a39.87570513638727,39.87570513638727 0 0,0 -0.4692879952434022,-0.49836758827524746 l 13.852603780683715 -12.821763252034561" fill="#fff116" stroke="none" /><path d="M 84.58840730492382 114.26474011684316 l -19.352500593631238 17.91238563340697 a47.36992298635667,47.36992298635667 0 0,0 -0.5472405822587244,-0.6015132623422921 l 19.657138876731842 -17.577534795507002" fill="#b4ff20" stroke="none" /><path d="M 84.3458050057657 113.99807769240083 l -18.578156211167006 16.612701842621643 a45.9224748112696,45.9224748112696 0 0,0 -0.5204305200343994,-0.5921543976862685 l 18.86059779516 -16.291335167124075" fill="#c5ff1e" stroke="none" /><path d="M 84.1078160697243 113.72728997021213 l -13.877029838768351 11.9866478614783 a39.33716674137936,39.33716674137936 0 0,0 -0.4370273741424296,-0.5148171478500795 l 14.080751776417893 -11.746663931178666" fill="#ffeb16" stroke="none" /><path d="M 83.8745106332314 113.45245675266167 l -11.613381753095148 9.688296102667023 a36.123945157136625,36.123945157136625 0 0,0 -0.3931544079672794,-0.47958445170754216 l 11.777982980301058 -9.487509369260986" fill="#ffc212" stroke="none" /><path d="M 83.64595745247003 113.17365903436017 l -33.32879244934759 26.847315975766293 a63.797041734614375,63.797041734614375 0 0,0 -0.6796923743711681,-0.858769111219917 l 33.784751254360316 -26.271226920631694" fill="#34ff5b" stroke="none" /><path d="M 83.4222238831116 112.89097897827486 l -18.48986519200822 14.377831008255399 a44.42215061262709,44.42215061262709 0 0,0 -0.4629380868211013,-0.606000816161044 l 18.733955256183616 -14.058309278853484" fill="#d6ff1c" stroke="none" /><path d="M 83.20337586046588 112.60449989151573 l -19.411450337601675 14.566714218399463 a45.26918967188021,45.26918967188021 0 0,0 -0.46109467837579526,-0.6255634870138111 l 19.6586470355613 -14.231344422116772" fill="#ccff1d" stroke="none" /><path d="M 82.78059297857968 112.02048342749411 l -16.430133532611826 11.469509234237574 a41.03743820885585,41.03743820885585 0 0,0 -0.39827862294151184,-0.5811004135725157 l 16.624601892368663 -11.185774085595007" fill="#ffff18" stroke="none" /><path d="M 82.576782715395 111.72311816256416 l -18.88322426742699 12.705476018648202 a43.759729339216406,43.759729339216406 0 0,0 -0.413999465673617,-0.6268479573177542 l 19.09854817202133 -12.379448182991387" fill="#deff1b" stroke="none" /><path d="M 82.37810715431573 111.42229804090323 l -13.087534677509925 8.483181858853813 a36.59640786801279,36.59640786801279 0 0,0 -0.3371789272620742,-0.530101277587207 l 13.23123129639789 -8.257266906587935" fill="#ffc812" stroke="none" /><path d="M 82.18462484594161 111.11811171558189 l -12.428781868162398 7.756479114465879 a35.65051490492767,35.65051490492767 0 0,0 -0.3195509042270224,-0.5219623868720725 l 12.560100736844825 -7.541979611469249" fill="#ffbc11" stroke="none" /><path d="M 81.99639281039703 110.81064883170644 l -17.342094451822206 10.413429439473846 a41.22838976950027,41.22838976950027 0 0,0 -0.35913125608849666,-0.6098833864301453 l 17.51829941804047 -10.114194884750143" fill="#fcff18" stroke="none" /><line stroke="#e1ed5e" stroke-width="0.3" x1="26.387840678322732" x2="22.057713659400548" y1="142.50000000000003" y2="145.00000000000006" /><path d="M 25.521815274538298 143.00000000000003 a86.0,86.0 0 0,1 -11.493303480769221,-40.785679425670985" fill="none" id="id9" stroke="none" /><text fill="#e1ed5e" style="font-size:6.75px; font-family:Arial;" text-anchor="middle"><textPath startOffset="21.40746469413373" xlink:href="#id9">September</textPath></text><path d="M 81.81346652052679 110.50000000000001 l -17.535407918104067 10.12407248186729 a41.24814496373456,41.24814496373456 0 0,0 -0.3487759190628918,-0.6162536299210349 l 17.706617202188337 -9.821562081847134" fill="#fcff18" stroke="none" /><path d="M 81.63589988554817 110.18625677009913 l -15.181916926556864 8.421153397792763 a38.36106062756623,38.36106062756623 0 0,0 -0.3144778562249433,-0.5786038350747587 l 15.324240132397138 -8.159294729243417" fill="#ffde14" stroke="none" /><path d="M 81.4637452351635 109.86951160357371 l -12.793070187870542 6.811589302497107 a35.49346037555128,35.49346037555128 0 0,0 -0.28173683089341744,-0.5402675216317347 l 12.908115087738908 -6.59097553776087" fill="#ffba11" stroke="none" /><path d="M 81.29705330413844 109.54985784667822 l -15.577854816401869 7.954163665864877 a38.491091455488416,38.491091455488416 0 0,0 -0.2954284505414567,-0.5910548007563136 l 15.712103180155061 -7.685577008944811" fill="#ffe015" stroke="none" /><path d="M 81.1358732173502 109.22738970284198 l -14.153576296940928 6.923223411586704 a36.75610181485479,36.75610181485479 0 0,0 -0.27238151613946326,-0.5691726087148997 l 14.270337071040304 -6.6792383008067" fill="#ffca12" stroke="none" /><path d="M 80.9802524753101 108.90220220490708 l -11.066990947355148 5.17991056849415 a33.21923737908541,33.21923737908541 0 0,0 -0.23730484154906775,-0.5185539054899925 l 11.154280253759271 -4.989167680789469" fill="#ff9d0e" stroke="none" /><path d="M 80.83023694016515 108.57439118712176 l -14.323369183713169 6.406660849974 a36.69089570481984,36.69089570481984 0 0,0 -0.2522343894392925,-0.5771616450095411 l 14.431237455169429 -6.159837135188609" fill="#ffc912" stroke="none" /><path d="M 80.68587082218212 108.24405325689762 l -14.429115060235391 6.1589312109966725 a36.688588052571866,36.688588052571866 0 0,0 -0.24227423634948528,-0.5813699703998537 l 14.532715141121361 -5.910328731155538" fill="#ffc912" stroke="none" /><path d="M 80.41425534168474 107.57618678355246 l -10.137305376716268 3.921327493836505 a31.86930400783411,31.86930400783411 0 0,0 -0.1929903618088628,-0.5119298633323005 l 10.203126422339567 -3.7467293503100594" fill="#ff8b0c" stroke="none" /><path d="M 80.28708602549918 107.23885506374661 l -59.13874192350249 21.716565191239823 a84.0,84.0 0 0,0 -0.48543931982422706,-1.3578601744763141 l 59.50282141337066 -20.698170060382587" fill="#4dd2ff" stroke="none" /><path d="M 80.16572619554312 106.89939002012753 l -7.649775983884499 2.6609891846690266 a29.099378744356976,29.099378744356976 0 0,0 -0.16006678419811482,-0.4732090054780991 l 7.694328189654981 -2.529278504716766" fill="#ff6509" stroke="none" /><path d="M 79.64726062577567 105.17358676015961 l -24.42433381138745 6.208570144240276 a46.2010798452375,46.2010798452375 0 0,0 -0.18879185424466896,-0.7703351906964778 l 24.52731319214841 -5.7883791289356985" fill="#c2ff1e" stroke="none" /><path d="M 79.56144815229197 104.8234425847677 l -15.287055120844846 3.6077033840263475 a36.70699137247053,36.70699137247053 0 0,0 -0.1394675817342665,-0.614519898617001 l 15.346733564136779 -3.3447491514703205" fill="#ffca12" stroke="none" /><path d="M 79.48165901384964 104.47187691870673 l -15.257663451330467 3.325336734946294 a36.615830378012205,36.615830378012205 0 0,0 -0.12857786438768146,-0.6152916268059271 l 15.312499026542515 -3.0629286568549583" fill="#ffc912" stroke="none" /><path d="M 79.407916724674 104.11899336999214 l -15.269080864273315 3.0542438084045647 a36.57155212818861,36.57155212818861 0 0,0 -0.11785392997670945,-0.6166615619686673 l 15.31926108653218 -2.791679681402583" fill="#ffc812" stroke="none" /><path d="M 79.2786578344484 103.40968896794605 l -15.948464144395524 2.62431370585791 a37.162936954397345,37.162936954397345 0 0,0 -0.09817829952331435,-0.6303751112996563 l 15.991163936057106 -2.3501504126268036" fill="#ffcf13" stroke="none" /><path d="M 79.0935383218832 101.97986365728391 l -15.604474384120358 1.4777599480870445 a36.67429090162737,36.67429090162737 0 0,0 -0.05397473675707178,-0.6272682568708003 l 15.627542743575171 -1.209670643840582" fill="#ffc912" stroke="none" /><path d="M 79.06263194458094 101.62068470465958 l -16.880525815431728 1.306659458021059 a37.93102214116717,37.93102214116717 0 0,0 -0.04467920174917377,-0.6496257876960939 l 16.90046897834597 -1.0166902461706218" fill="#ffd914" stroke="none" /><path d="M 79.00696218219943 100.54070618675478 l -24.831782923563814 0.6395786437128939 a45.840018196541024,45.840018196541024 0 0,0 -0.013508766101318478,-0.7868179014751414 l 24.8391031212638 -0.2132138262687001" fill="#c6ff1e" stroke="none" /><line stroke="#e1ed5e" stroke-width="0.3" x1="15.003131293944662" x2="10.003315487706104" y1="100.72959589197737" y2="100.7725132973878" /><path d="M 14.003168132696942 100.73817937305945 a86.0,86.0 0 0,1 10.791469493833604,-42.45332614584628" fill="none" id="id10" stroke="none" /><text fill="#e1ed5e" style="font-size:6.75px; font-family:Arial;" text-anchor="middle"><textPath startOffset="22.145653131862435" xlink:href="#id10">October</textPath></text><path d="M 79.00077361379809 100.18025310272382 l -8.251934876941842 0.0708329363038365 a29.25223887912575,29.25223887912575 0 0,0 0.0,-0.5021720780553051 l 8.251934876941842 0.07083293630383346" fill="#ff6809" stroke="none" /><path d="M 79.00077361379809 99.81974689727619 l -10.216297666299255 -0.08769462830833216 a31.21667403582329,31.21667403582329 0 0,0 0.009199358215849458,-0.5358164966381578 l 10.213286876484739 0.2630580409155423" fill="#ff820c" stroke="none" /><path d="M 79.01933749520258 99.09900007780938 l -17.498552691686225 -0.7514631442192407 a38.514680789578755,38.514680789578755 0 0,0 0.03403672657343553,-0.660303402540021 l 17.48307437565622 1.0517383401359737" fill="#ffe015" stroke="none" /><path d="M 79.03789590574601 98.7389718711861 l -5.086734796752063 -0.3060053338958073 a26.095930744904305,26.095930744904305 0 0,0 0.030738569349512364,-0.4469320521532456 l 5.080732266237487 0.3932808102033779" fill="#ff3c05" stroke="none" /><path d="M 79.06263194458094 98.37931529534042 l -15.284252505496879 -1.1830978082941264 a36.32997374674132,36.32997374674132 0 0,0 0.05346799409513685,-0.6213791390106459 l 15.261690888703999 1.445297994680453" fill="#ffc512" stroke="none" /><path d="M 79.0935383218832 98.0201363427161 l -4.1319117670093775 -0.3912963402682533 a25.15039849607937,25.15039849607937 0 0,0 0.04439357620868689,-0.4294675792131759 l 4.124585798319027 0.4621684417643419" fill="#ff2e04" stroke="none" /><path d="M 79.13060592940154 97.66154086499901 l -24.13594797803267 -2.7044833137084314 a45.28699682530606,45.28699682530606 0 0,0 0.09320045344546439,-0.7718334531869194 l 24.085965438327538 3.1184104438187874" fill="#ccff1d" stroke="none" /><path d="M 79.22317932658666 96.9465228501225 l -14.809885056239997 -2.1765430968660153 a35.96896907711269,35.96896907711269 0 0,0 0.09502403493919089,-0.610122469952846 l 14.77033952916254 2.4304537487503115" fill="#ffc011" stroke="none" /><path d="M 79.2786578344484 96.59031103205396 l -17.551623671797355 -2.8881129960181267 a38.787655556429186,38.787655556429186 0 0,0 0.11374975459481157,-0.6560783566819015 l 17.49945909971031 3.188984385620621" fill="#ffe415" stroke="none" /><path d="M 79.407916724674 95.88100663000787 l -15.411609227587906 -3.0827534728070956 a36.716903892242165,36.716903892242165 0 0,0 0.1289327878312216,-0.6169900639669995 l 15.356418728932319 3.3468599880595042" fill="#ffca12" stroke="none" /><path d="M 79.64726062577567 94.8264132398404 l -0.8919692095418158 -0.22673508504706782 a21.920335737414316,21.920335737414316 0 0,0 0.09583416214222554,-0.363897923274124 l 0.8879455665948647 0.24201351269397642" fill="#ff0000" stroke="none" /><path d="M 80.41425534168474 92.42381321644754 l -18.369289212681398 -7.105635684741976 a40.69570624941923,40.69570624941923 0 0,0 0.25762576723747044,-0.649385227045487 l 18.244604770477796 7.419921929001045" fill="#fffb17" stroke="none" /><path d="M 80.5471966667186 92.08871423366112 l -14.515718783264713 -5.903416460379568 a36.670239873706606,36.670239873706606 0 0,0 0.24215307357766733,-0.5810792238552501 l 14.412239865150566 6.151728193676083" fill="#ffc912" stroke="none" /><path d="M 80.68587082218212 91.75594674310238 l -14.194384604347011 -6.058738737313611 a36.433368698477594,36.433368698477594 0 0,0 0.250464000192542,-0.5731106479498956 l 14.088286722137491 6.301511455039373" fill="#ffc612" stroke="none" /><path d="M 80.83023694016515 91.42560881287825 l -14.175352467300966 -6.340454855419425 a36.52874706297412,36.52874706297412 0 0,0 0.2609466447060334,-0.5702155120541134 l 14.064421357739885 6.58285934968821" fill="#ffc712" stroke="none" /><path d="M 80.9802524753101 91.09779779509293 l -14.197588326115637 -6.645188214882478 a36.67577879051207,36.67577879051207 0 0,0 0.27178628144180317,-0.5679287971286172 l 14.08142278671393 6.887929514076183" fill="#ffc912" stroke="none" /><path d="M 81.63589988554816 89.8137432299009 l -13.775651227783436 -7.641121520084986 a36.752945909709624,36.752945909709624 0 0,0 0.3107665205113704,-0.5490946646707227 l 13.642451342250697 7.876472954854814" fill="#ffca12" stroke="none" /><line stroke="#e1ed5e" stroke-width="0.3" x1="26.387840678322718" x2="22.05771365940052" y1="57.49999999999999" y2="54.99999999999999" /><path d="M 25.521815274538284 56.99999999999999 a86.0,86.0 0 0,1 29.574782752854787,-30.34633250058573" fill="none" id="id11" stroke="none" /><text fill="#e1ed5e" style="font-size:6.75px; font-family:Arial;" text-anchor="middle"><textPath startOffset="21.40746469413373" xlink:href="#id11">November</textPath></text><path d="M 82.576782715395 88.27688183743585 l -5.76599731162535 -3.879620319545574 a27.949689116895925,27.949689116895925 0 0,0 0.2712587378497491,-0.39577460518837737 l 5.6985488369602875 3.978029659803986" fill="#ff5607" stroke="none" /><path d="M 82.78059297857968 87.97951657250589 l -8.179213122994785 -5.709725989553363 a30.974993643464202,30.974993643464202 0 0,0 0.3081051664404645,-0.4333885016656015 l 8.07999285802435 5.849291717928485" fill="#ff7f0b" stroke="none" /><path d="M 83.42222388311158 87.10902102172516 l -11.056912229055033 -8.597921826448923 a35.00641166661731,35.00641166661731 0 0,0 0.37295759202872236,-0.47121973396500383 l 10.907688206384748 8.786461504328608" fill="#ffb410" stroke="none" /><path d="M 84.10781606972428 86.27271002978789 l -12.10684490244632 -10.45760427449204 a36.998036774984755,36.998036774984755 0 0,0 0.4192915908428328,-0.4770768620834225 l 11.925542247644893 10.663893414386763" fill="#ffcd13" stroke="none" /><path d="M 84.58840730492382 85.73525988315684 l -11.441560531994767 -10.590137615833768 a36.59039198126839,36.59039198126839 0 0,0 0.43062390092731373,-0.4573076599743699 l 11.258080797331182 10.784986735752648" fill="#ffc812" stroke="none" /><path d="M 84.83555147118756 85.47280134310135 l -11.486051591194538 -11.003377599365756 a36.90609002080042,36.90609002080042 0 0,0 0.44219330319762096,-0.4537292841845836 l 11.295471486846115 11.19892957561807" fill="#ffcc13" stroke="none" /><path d="M 85.08716467003674 85.21462403516908 l -11.131757566381548 -11.036614911022962 a36.67555087424066,36.67555087424066 0 0,0 0.4471065408328435,-0.4432851403694063 l 10.940659105418728 11.226080061621042" fill="#ffc912" stroke="none" /><path d="M 85.34317274990677 84.96080404539775 l -10.982452284230781 -11.26896354486031 a36.735431279465985,36.735431279465985 0 0,0 0.4553925478880698,-0.4362557594805812 l 10.78738725047741 11.455831434646457" fill="#ffca12" stroke="none" /><path d="M 85.60350026404147 84.71141617570332 l -9.87258990683334 -10.484348357019387 a35.401027461255765,35.401027461255765 0 0,0 0.4460027586259742,-0.4128134949496348 l 9.691157376893413 10.652279598101387" fill="#ffb911" stroke="none" /><path d="M 86.40962598614128 83.9905735841838 l -10.217819858532375 -12.03656610100856 a36.788691084613916,36.788691084613916 0 0,0 0.48495494784809945,-0.40456666551529336 l 10.009690576522365 12.210194950435735" fill="#ffcb12" stroke="none" /><path d="M 88.4268655584334 82.4767994020092 l -10.33191075905884 -15.643829742551564 a39.74774090249534,39.74774090249534 0 0,0 0.5725839384919011,-0.37114199116756275 l 10.061841188309911 15.818885575423034" fill="#fff016" stroke="none" /><line stroke="#e1ed5e" stroke-width="0.3" x1="56.869717070023135" x2="54.33264160355391" y1="26.7553504044142" y2="22.446841604673864" /><path d="M 56.362301976729285 25.89364864446614 a86.0,86.0 0 0,1 42.16139366436587,-11.88097634709845" fill="none" id="id12" stroke="none" /><text fill="#e1ed5e" style="font-size:6.75px; font-family:Arial;" text-anchor="middle"><textPath startOffset="22.145653131862474" xlink:href="#id12">December</textPath></text><path d="M 89.65649057296885 81.72400993836675 l -1.736330762794157 -3.067930085856974 a24.525200636776823,24.525200636776823 0 0,0 0.36817676368483554,-0.204221444465253 l 1.683409810953219 3.097284445755373" fill="#ff2603" stroke="none" /><path d="M 90.28995756902619 81.37971332152246 l -4.6878670703018335 -8.989603225746203 a31.138494159645546,31.138494159645546 0 0,0 0.4760820395948946,-0.24309088163598994 l 4.532857808993357 9.068752059055027" fill="#ff810b" stroke="none" /><path d="M 90.61103034731259 81.2157712731953 l -5.403377990162022 -10.810375559743543 a33.085558052786304,33.085558052786304 0 0,0 0.5102104225161994,-0.24956948462299028 l 5.217007318383769 10.901538794463747" fill="#ff9b0e" stroke="none" /><path d="M 90.93487009805054 81.0573650232925 l -3.1767241983301626 -6.638131782060978 a28.359101180732907,28.359101180732907 0 0,0 0.44093174285565356,-0.20637831960532713 l 3.0623037416029866 6.691686333236848" fill="#ff5b08" stroke="none" /><path d="M 92.592206182469 80.34994680014964 l -7.967096785599965 -21.133670771843274 a43.585541204137215,43.585541204137215 0 0,0 0.7023723797383846,-0.2579208667111191 l 7.603135254207453 21.267322487563113" fill="#e0ff1b" stroke="none" /><path d="M 93.27111125876988 80.10723608172694 l -2.3110015659699568 -6.832065491722688 a28.21233991996381,28.21233991996381 0 0,0 0.46009928287333285,-0.15124377301344255 l 2.1933795454488627 6.87073018613816" fill="#ff5908" stroke="none" /><path d="M 93.61358852112211 79.99465700312896 l -4.70223995450089 -14.729699684165961 a36.4620539830717,36.4620539830717 0 0,0 0.5979071349434065,-0.1852331587853575 l 4.448692186685867 14.80824943075796" fill="#ffc712" stroke="none" /><path d="M 93.95794788825049 79.88797359093562 l -2.480103878930417 -8.255459202888039 a29.619949066023217,29.619949066023217 0 0,0 0.48822137157000933,-0.14211412584952404 l 2.338022494978784 8.296817023040084" fill="#ff6d0a" stroke="none" /><path d="M 94.6519064749342 79.69241777938228 l -3.126911294303002 -11.873391500732039 a33.2782327707246,33.2782327707246 0 0,0 0.5536780181383302,-0.14074278706971707 l 2.922627982939294 11.925319519637018" fill="#ff9d0e" stroke="none" /><path d="M 95.00130118170881 79.60360301121753 l -2.8594543347119457 -11.66754947680912 a33.01283438186391,33.01283438186391 0 0,0 0.5515781951669416,-0.1301709521898375 l 2.6587439858050983 11.714916572645189" fill="#ff9a0e" stroke="none" /><path d="M 95.35216902796891 79.52079915486377 l -0.6337377695584542 -2.792365545140445 a23.86337718406996,23.86337718406996 0 0,0 0.4002656338392034,-0.08723603192505935 l 0.5857097191001324 2.8028330351992183" fill="#ff1c02" stroke="none" /><path d="M 96.05791012581881 79.37332000966035 l -3.4124591552184294 -17.855428268087262 a39.178591698006855,39.178591698006855 0 0,0 0.6616802696985081,-0.1205801868685615 l 3.1054441519688827 17.911376628887183" fill="#ffe915" stroke="none" /><path d="M 99.63950707515114 79.00309439819443 l -0.23857008914046726 -13.895511661420082 a34.89755949870674,34.89755949870674 0 0,0 0.599063013989316,-0.005142235481094429 l 3.403920351210221e-15 13.897559498706741" fill="#ffb310" stroke="none" /></svg>