<?xml version="1.0" encoding="utf-8" ?>
<svg baseProfile="full" height="200mm" version="1.1" viewBox="0,0,200,200" width="200mm" xmlns="http://www.w3.org/2000/svg" xmlns:ev="http://www.w3.org/2001/xml-events" xmlns:xlink="http://www.w3.org/1999/xlink"><defs /><rect fill="#1a1a1a" height="200" width="200" x="0" y="0" /><text alignment-baseline="middle" fill="#e1ed5e" style="dominant-baseline: central; font-size:9.0px; font-family:Arial;" text-anchor="middle" x="100.0" y="100.0">2026</text><line stroke="#e1ed5e" stroke-width="0.3" x1="100.0" x2="100.0" y1="15.0" y2="10.0" /><path d="M 100.0 14.0 a86.0,86.0 0 0,1 42.46469731375804,11.215312516191453" fill="none" id="id121" stroke="none" /><text fill="#e1ed5e" style="font-size:6.75px; font-family:Arial;" text-anchor="middle"><textPath startOffset="22.20632615414155" xlink:href="#id121">January</textPath></text><path d="M 100.0 79.0 l 0.0 -26.1820834718989 a47.1820834718989,47.1820834718989 0 0,0 0.8121620069761168,0.006990534802739918 l -0.4506815277035885 26.17820431370472" fill="red" stroke="none" /><path d="M 100.36148047927253 79.00311137660856 l 0.3614594419982109 -20.995666656145318 a41.998777851679414,41.998777851679414 0 0,0 0.7227256985697453,0.018665872545551722 l -0.722811775762824 20.986333991457407" fill="red" stroke="none" /><path d="M 101.44485096284872 79.0497635885617 l 1.8014269187948544 -26.120562464291105 a47.18260724975059,47.18260724975059 0 0,0 0.8097654544892209,0.06285338414649647 l -2.250782562646416 26.085683817956145" fill="red" stroke="none" /><path d="M 101.80526077348638 79.07773832637324 l 2.032269163900256 -23.553199550361096 a44.64071333555039,44.64071333555039 0 0,0 0.7650033827729541,0.07264628908078366 l -2.437397673763454 23.514727716765133" fill="red" stroke="none" /><path d="M 102.16513564639614 79.11191278185805 l 2.701577344086946 -26.063393895792824 a47.20303458596608,47.20303458596608 0 0,0 0.8074715104124307,0.09072883258841778 l -3.149815558009102 26.013029109733807" fill="red" stroke="none" /><path d="M 102.52436894288641 79.15227682838746 l 2.5269294102212263 -20.8688690165322 a42.02130029930163,42.02130029930163 0 0,0 0.7173341545832606,0.09313056089299343 l -2.885778293312333 20.822280132475072" fill="red" stroke="none" /><path d="M 102.88285421437855 79.19881850522331 l 2.8834773787414956 -20.805677925761586 a42.00453940804789,42.00453940804789 0 0,0 0.7153393454821368,0.1054224246229558 l -3.2411857046522883 20.75296101697766" fill="red" stroke="none" /><path d="M 103.59715602781102 79.31037775812273 l 4.037828575780729 -23.224221375017127 a44.57262221483206,44.57262221483206 0 0,0 0.7547734249919764,0.1379300190269638 l -4.436997121875606 23.151275874639424" fill="red" stroke="none" /><path d="M 103.95276090670814 79.375362276772 l 4.928068839775005 -25.71358017708535 a47.18155969404722,47.18155969404722 0 0,0 0.7963204575858246,0.15973439239779993 l -5.369955706827954 25.624941828610346" fill="red" stroke="none" /><path d="M 104.307194497241 79.44645832069477 l 4.8557995828556715 -23.17143541497995 a44.67475889590955,44.67475889590955 0 0,0 0.7512960071798742,0.16420420774217365 l -5.253938314189074 23.084417709141906" fill="red" stroke="none" /><path d="M 104.66035177308747 79.52364482259891 l 5.815482030911361 -25.551692531107932 a47.2051296973728,47.2051296973728 0 0,0 0.7907450705427471,0.1871438102488936 l -6.254450788416631 25.44780280871817" fill="red" stroke="none" /><path d="M 105.36241919743992 79.69619591428918 l 5.357158427026743 -20.283885155862862 a41.97939807116728,41.97939807116728 0 0,0 0.6970621293587673,0.1905334116282367 l -5.705518445609221 20.18866520340833" fill="red" stroke="none" /><path d="M 105.71112130821622 79.79150937346287 l 7.138806671497271 -25.26027725905058 a47.24965081476555,47.24965081476555 0 0,0 0.780766240089328,0.2279270755020711 l -7.572563129310026 25.133651854629804" fill="red" stroke="none" /><path d="M 106.0581310904928 79.89281104454417 l 6.052641098067916 -20.088967442351862 a41.980969404722316,41.980969404722316 0 0,0 0.6901164145854264,0.2144225293262641 l -6.397542885364061 19.98180477814308" fill="red" stroke="none" /><path d="M 106.74666289553966 80.11325718540242 l 5.0581461583894205 -14.909600987628588 a36.74423844363153,36.74423844363153 0 0,0 0.59721284894293,0.2083558364145056 l -5.314041011395624 14.820324298041875" fill="red" stroke="none" /><path d="M 107.08798089147638 80.2323363322302 l 8.848190313062672 -24.6767101738912 a47.2150814765547,47.2150814765547 0 0,0 0.7626757203302472,0.28089990428280354 l -9.271648359165496 24.520747001802068" fill="red" stroke="none" /><path d="M 107.4271985657038 80.35727306442388 l 9.357232805557793 -24.74709235874178 a47.45706684403059,47.45706684403059 0 0,0 0.7616109745797348,0.29549322580052484 l -9.781826945137194 24.582356429050712" fill="red" stroke="none" /><path d="M 107.76421540070413 80.48803036053334 l 7.751950677340869 -19.48114760561649 a41.96682740272697,41.96682740272697 0 0,0 0.6689035273282283,0.2728625439645248 l -8.086138074257484 19.344824175468386" fill="red" stroke="none" /><path d="M 108.09893153111575 80.62456947434976 l 9.09311779696979 -21.753866106887568 a44.57785999334885,44.57785999334885 0 0,0 0.7054260437494825,0.30202661725058555 l -9.466227598509587 21.594119961674192" fill="red" stroke="none" /><path d="M 108.43124777332544 80.76684994638697 l 8.41729850240016 -19.20132932813357 a41.96525606917193,41.96525606917193 0 0,0 0.6590900883206371,0.29571451061453297 l -8.746570709187576 19.053594487002506" fill="red" stroke="none" /><path d="M 109.08828744355905 81.06846463323043 l 11.346607489394549 -23.635773220461026 a47.218224143664784,47.218224143664784 0 0,0 0.7296985931124272,0.3580599305940719 l -11.751777349517408 23.436958129732123" fill="red" stroke="none" /><path d="M 109.41281617654863 81.2277094730956 l 9.398182017710788 -18.74310514006925 a41.967351180578646,41.967351180578646 0 0,0 0.642978814572897,0.32935872225688645 l -9.71942131987244 18.578553892499862" fill="red" stroke="none" /><path d="M 109.73455568895987 81.39251694778311 l 10.921511074180065 -20.87633362125425 a44.56057532424343,44.56057532424343 0 0,0 0.6765885796039679,0.3614101874780787 l -11.279244700312343 20.685244707274418" fill="red" stroke="none" /><path d="M 110.36928655335952 81.73862282372117 l 11.64294667590137 -20.504423288702707 a44.579431326903894,44.579431326903894 0 0,0 0.664028180185383,0.3846479820167035 l -11.994171588552083 20.300971149295954" fill="red" stroke="none" /><line stroke="#e1ed5e" stroke-width="0.3" x1="143.23703022742887" x2="145.7803849466894" y1="26.81831364943548" y2="22.513508569990506" /><path d="M 143.74570117128098 25.957352633546492 a86.0,86.0 0 0,1 28.547481713284135,27.462654790039103" fill="none" id="id122" stroke="none" /><text fill="#e1ed5e" style="font-size:6.75px; font-family:Arial;" text-anchor="middle"><textPath startOffset="19.985693538727396" xlink:href="#id122">February</textPath></text><path d="M 110.68208982089419 81.91981866633111 l 16.361235129979 -27.692530483520255 a53.16467409378117,53.16467409378117 0 0,0 0.7838952303148141,0.4722881052010779 l -16.835492426511454 27.406795768860565" fill="red" stroke="none" /><path d="M 110.99172775467656 82.1063720568725 l 10.959834563901842 -17.841708454000855 a41.939067176587955,41.939067176587955 0 0,0 0.6118727119180767,0.38315463606978917 l -11.265326428192182 17.65040947660812" fill="red" stroke="none" /><path d="M 111.2981086023043 82.29822771554956 l 14.080742200863176 -22.0615769249107 a47.172131692716995,47.172131692716995 0 0,0 0.6807005412828405,0.44274656696775927 l -14.458409767930297 21.815931433783412" fill="red" stroke="none" /><path d="M 111.60114157652 82.49532879139004 l 13.020902168525124 -19.646912314286215 a44.570003325573666,44.570003325573666 0 0,0 0.6358554174584138,0.42933241626534335 l -13.35716228039008 19.419867985722203" fill="red" stroke="none" /><path d="M 112.48926042617603 83.11751280151076 l 21.8280664909403 -29.506315068001427 a57.70268540073163,57.70268540073163 0 0,0 0.7934224927586315,0.5975893721724889 l -22.332735137457316 29.126209106323092" fill="red" stroke="none" /><path d="M 112.77801427241765 83.33499621200491 l 16.5992014636763 -21.64857147381482 a48.27992184901896,48.27992184901896 0 0,0 0.6551526650674917,0.511357046944555 l -16.969386683903224 21.35963603764704" fill="red" stroke="none" /><path d="M 113.34407831869373 83.78471172551755 l 14.308495285973448 -17.38721628387783 a43.51773362154972,43.51773362154972 0 0,0 0.5743148515158724,0.48097217173360785 l -14.605667674448439 17.138342954750403" fill="red" stroke="none" /><path d="M 113.6212207817346 84.01681056812373 l 16.99402439449153 -19.940849315893328 a47.19989191885601,47.19989191885601 0 0,0 0.6138372945829551,0.5323136530091938 l -17.33475548772125 19.645370669464462" fill="red" stroke="none" /><path d="M 113.89432698308785 84.25364557470407 l 14.896432791021724 -16.882034709960408 a43.51459095443964,43.51459095443964 0 0,0 0.5573784212380564,0.5004198499283684 l -15.18482219985577 16.623115851262742" fill="red" stroke="none" /><path d="M 115.9244219780498 86.31012108654704 l 40.42457150187779 -34.75212411174133 a74.30906218822747,74.30906218822747 0 0,0 0.825500739535202,0.9771324992730083 l -41.016782854900114 34.051132662839215" fill="red" stroke="none" /><path d="M 117.45458315368197 88.32363383020206 l 21.810537780586447 -14.590312655654476 a47.24074659128699,47.24074659128699 0 0,0 0.44632014628166566,0.6797762030521525 l -22.058454562226036 14.212718388624648" fill="red" stroke="none" /><line stroke="#e1ed5e" stroke-width="0.3" x1="172.23445277983987" x2="176.4835382374775" y1="55.19839476539836" y2="52.563006222186495" /><path d="M 173.08426987136738 54.67131705675599 a86.0,86.0 0 0,1 12.851231095245387,41.99856678651699" fill="none" id="id123" stroke="none" /><text fill="#e1ed5e" style="font-size:6.75px; font-family:Arial;" text-anchor="middle"><textPath startOffset="22.20632615414155" xlink:href="#id123">March</textPath></text><path d="M 118.03404312379186 89.2402003453031 l 19.178188310669608 -11.442440419287784 a43.3323162620552,43.3323162620552 0 0,0 0.376661672210966,0.6438368944834916 l -19.3723096573509 11.110624112450399" fill="red" stroke="none" /><path d="M 118.21658344932153 89.55222093294921 l 18.261867440436827 -10.473750849068157 a42.05220319255072,42.05220319255072 0 0,0 0.3547250696370626,0.6310163175974017 l -18.439450151366323 10.157851021535961" fill="red" stroke="none" /><path d="M 118.3937258080291 89.86733742301442 l 23.071677857144582 -12.70963421175437 a47.340788160957764,47.340788160957764 0 0,0 0.38704904304051596,0.7171430941919174 l -23.287034999403563 12.310610134229993" fill="red" stroke="none" /><path d="M 119.04729006885535 91.15688171328212 l 19.059958702090377 -8.848999974969773 a42.01396740937812,42.01396740937812 0 0,0 0.2988947326732639,0.6585749234473397 l -19.20945575172699 8.51960304268037" fill="red" stroke="none" /><path d="M 119.34039704204932 91.81776055985345 l 24.136101579621002 -10.211132783199181 a47.207224808779515,47.207224808779515 0 0,0 0.3101701545666405,0.7511016317590924 l -24.30829342107384 9.794156580986785" fill="red" stroke="none" /><path d="M 119.47837535516314 92.15188598940014 l 19.49618896747663 -7.855291367942434 a42.01920518789491,42.01920518789491 0 0,0 0.26453380736590587,0.6732096856645459 l -19.628516324724238 7.518532677382104" fill="red" stroke="none" /><path d="M 120.18372546131832 94.20196356495316 l 26.165176193515617 -7.516285593071827 a48.22335384103758,48.22335384103758 0 0,0 0.22231707711770604,0.7997928120981742 l -26.290680041199685 7.0647814775547015" fill="red" stroke="none" /><path d="M 120.37134235888165 94.90015583598534 l 20.756311274592807 -5.1962188379821015 a42.39684901895577,42.39684901895577 0 0,0 0.17113629376674788,0.7094704226841656 l -20.842680368620375 4.83816318363853" fill="red" stroke="none" /><path d="M 120.53481517161879 95.60439243477599 l 25.61849650987364 -5.483801832514304 a47.198844363152645,47.198844363152645 0 0,0 0.16321968141193452,0.7959171328546039 l -25.70909548720057 5.0420090434962885" fill="red" stroke="none" /><path d="M 120.78858239683441 97.02765380044208 l 26.11915654285343 -3.7345103289789727 a47.384785500498836,47.384785500498836 0 0,0 0.10849762241191505,0.8084333100013799 l -26.179570164323177 3.2843586769129285" fill="red" stroke="none" /><path d="M 120.87857604477298 97.74499172005257 l 26.903992836144454 -2.9057885211640504 a48.06045892916528,48.06045892916528 0 0,0 0.08175513018957056,0.8232630039235848 l -26.95002509201625 2.4422499865360305" fill="red" stroke="none" /><line stroke="#e1ed5e" stroke-width="0.3" x1="184.98032266829074" x2="189.97916517819016" y1="98.17113171792111" y2="98.06355123074" /><path d="M 185.9800911702706 98.14961562048488 a86.0,86.0 0 0,1 -9.607161424134198,41.387399972396054" fill="none" id="id124" stroke="none" /><text fill="#e1ed5e" style="font-size:6.75px; font-family:Arial;" text-anchor="middle"><textPath startOffset="21.466115282336823" xlink:href="#id124">April</textPath></text><path d="M 120.99513854157772 99.54816195383933 l 15.74321196659442 -0.3388109166887505 a36.746857332889924,36.746857332889924 0 0,0 0.008166539124710446,0.6325074550507008 l -15.746711512836844 0.06776720357758699" fill="red" stroke="none" /><path d="M 120.99980553446 99.90962569577887 l 10.92014330531983 -0.046995690107407895 a31.920244429664116,31.920244429664116 0 0,0 -0.0023646862275692767,0.5494698007021528 l -10.919334321802756 -0.14098358879842957" fill="red" stroke="none" /><path d="M 120.9764740272857 100.99374915477107 l 62.92942208185712 2.9812474643131925 a84.0,84.0 0 0,0 -0.0808545964498828,1.4437131346583068 l -62.86878113451971 -4.064032315306923" fill="red" stroke="none" /><path d="M 120.81339534386255 102.79330883721812 l 23.471654233723008 3.1500664890084744 a44.68209178583305,44.68209178583305 0 0,0 -0.10886674422787954,0.7614137555689198 l -23.413953438478526 -3.5536257165578036" fill="red" stroke="none" /><path d="M 120.76222939487914 103.15116336523771 l 23.291223598939457 3.5349985370376507 a44.55795643498503,44.55795643498503 0 0,0 -0.12161828057616576,0.7573171492414987 l -23.226923564002004 -3.935394915972354" fill="red" stroke="none" /><path d="M 120.64145759157962 103.86396538481128 l 25.821557337188462 4.833651077698947 a47.27007815098104,47.27007815098104 0 0,0 -0.15659916691473078,0.7984957783088564 l -25.73452823729807 -5.277410583075748" fill="red" stroke="none" /><path d="M 120.5718875245553 104.21870165774334 l 17.978509319244086 3.686874477527488 a39.35265214499501,39.35265214499501 0 0,0 -0.14179315491874545,0.6624104144084948 l -17.912382125600896 -3.995798711352152" fill="red" stroke="none" /><line stroke="#e1ed5e" stroke-width="0.3" x1="174.80103733775053" x2="179.2010983576182" y1="140.37084112569926" y2="142.7455964860345" /><path d="M 175.68104954172406 140.8457921977663 a86.0,86.0 0 0,1 -30.038265399797805,32.042727171017184" fill="none" id="id125" stroke="none" /><text fill="#e1ed5e" style="font-size:6.75px; font-family:Arial;" text-anchor="middle"><textPath startOffset="22.206326154141568" xlink:href="#id125">May</textPath></text><line stroke="#e1ed5e" stroke-width="0.3" x1="143.8653032363475" x2="146.44561519142675" y1="172.8068346515853" y2="177.08958963109032" /><path d="M 144.38136562736335 173.6633856474863 a86.0,86.0 0 0,1 -40.68145358897372,12.25698825130547" fill="none" id="id126" stroke="none" /><text fill="#e1ed5e" style="font-size:6.75px; font-family:Arial;" text-anchor="middle"><textPath startOffset="21.466115282336833" xlink:href="#id126">June</textPath></text><line stroke="#e1ed5e" stroke-width="0.3" x1="102.19456741930631" x2="102.32365962044197" y1="184.97166512339345" y2="189.96999836594603" /><path d="M 102.22038585953345 185.97133177190398 a86.0,86.0 0 0,1 -42.740103519485714,-10.115201625700543" fill="none" id="id127" stroke="none" /><text fill="#e1ed5e" style="font-size:6.75px; font-family:Arial;" text-anchor="middle"><textPath startOffset="22.20632615414155" xlink:href="#id127">July</textPath></text><line stroke="#e1ed5e" stroke-width="0.3" x1="58.666819895761336" x2="56.23545636021788" y1="174.27360380694188" y2="178.64263932499728" /><path d="M 58.180547188652646 175.14741091055294 a86.0,86.0 0 0,1 -31.652253787137756,-30.449443065178592" fill="none" id="id128" stroke="none" /><text fill="#e1ed5e" style="font-size:6.75px; font-family:Arial;" text-anchor="middle"><textPath startOffset="22.20632615414155" xlink:href="#id128">August</textPath></text><line stroke="#e1ed5e" stroke-width="0.3" x1="26.63291911575756" x2="22.317208475507996" y1="142.92168965132927" y2="145.44649492493687" /><path d="M 25.769776987707644 143.4266507060508 a86.0,86.0 0 0,1 -11.730757126820373,-40.83630448921669" fill="none" id="id129" stroke="none" /><text fill="#e1ed5e" style="font-size:6.75px; font-family:Arial;" text-anchor="middle"><textPath startOffset="21.46611528233685" xlink:href="#id129">September</textPath></text><line stroke="#e1ed5e" stroke-width="0.3" x1="15.007084014347285" x2="10.007500721073583" y1="101.09737516637583" y2="101.16192664675087" /><path d="M 14.007167355692545 101.11028546245083 a86.0,86.0 0 0,1 10.666146001902534,-42.60595125391555" fill="none" id="id130" stroke="none" /><text fill="#e1ed5e" style="font-size:6.75px; font-family:Arial;" text-anchor="middle"><textPath startOffset="22.20632615414155" xlink:href="#id130">October</textPath></text><line stroke="#e1ed5e" stroke-width="0.3" x1="26.266209847984243" x2="21.928928074336255" y1="57.711370442889674" y2="55.22380399835377" /><path d="M 25.398753493254645 57.213857153982495 a86.0,86.0 0 0,1 29.58750427330803,-30.492523968695096" fill="none" id="id131" stroke="none" /><text fill="#e1ed5e" style="font-size:6.75px; font-family:Arial;" text-anchor="middle"><textPath startOffset="21.46611528233685" xlink:href="#id131">November</textPath></text><line stroke="#e1ed5e" stroke-width="0.3" x1="56.762969772571076" x2="54.21961505331055" y1="26.818313649435495" y2="22.513508569990535" /><path d="M 56.25429882871897 25.957352633546506 a86.0,86.0 0 0,1 42.265352541879196,-11.944610805530505" fill="none" id="id132" stroke="none" /><text fill="#e1ed5e" style="font-size:6.75px; font-family:Arial;" text-anchor="middle"><textPath startOffset="22.20632615414155" xlink:href="#id132">December</textPath></text></svg>