<?xml version="1.0" encoding="utf-8" ?>
<svg baseProfile="full" height="200mm" version="1.1" viewBox="0,0,200,200" width="200mm" xmlns="http://www.w3.org/2000/svg" xmlns:ev="http://www.w3.org/2001/xml-events" xmlns:xlink="http://www.w3.org/1999/xlink"><defs /><rect fill="#1a1a1a" height="200" width="200" x="0" y="0" /><rect fill="#1a1a1a" height="200" width="180" x="10" y="0" /><text alignment-baseline="middle" fill="#e1ed5e" style="dominant-baseline: central; font-size:9.0px; font-family:Arial;" text-anchor="middle" x="100.0" y="100.0">2025</text><line stroke="#e1ed5e" stroke-width="0.3" x1="100.0" x2="100.0" y1="15.0" y2="10.0" /><path d="M 100.0 14.0 a86.0,86.0 0 0,1 42.46469731375804,11.215312516191453" fill="none" id="id109" stroke="none" /><text fill="#e1ed5e" style="font-size:6.75px; font-family:Arial;" text-anchor="middle"><textPath startOffset="22.20632615414155" xlink:href="#id109">January</textPath></text><path d="M 100.0 79.0 l 0.0 -11.632650727914836 a32.632650727914836,32.632650727914836 0 0,0 0.561717439288556,0.004834879340481227 l -0.20023696001602767 11.630927225182914" fill="#ff740a" stroke="none" /><path d="M 101.08401301168833 79.027996857942 l 0.6372387523739372 -12.328425003139852 a33.34488300007622,33.34488300007622 0 0,0 0.5729571077823981,0.03456233741942557 l -0.8493579089959472 12.315629396340121" fill="#ff7e0b" stroke="none" /><path d="M 101.44485096284872 79.0497635885617 l 0.6913639625379433 -10.024728386491205 a31.048540359257096,31.048540359257096 0 0,0 0.5328665976883599,0.04136070361814737 l -0.8638207495886443 10.011342420684594" fill="#ff5d08" stroke="none" /><path d="M 101.80526077348638 79.07773832637324 l 0.6880176144079949 -7.973853293731442 a29.003480779491348,29.003480779491348 0 0,0 0.4970297123552378,0.0471989601335053 l -0.8251724538534769 7.9608287890827585" fill="#ff4006" stroke="none" /><path d="M 102.16513564639614 79.11191278185805 l 0.9907444701790955 -9.558180310060111 a30.60939048248177,30.60939048248177 0 0,0 0.5236148688847604,0.058834231508163935 l -1.1551260425735812 9.539710125081346" fill="#ff5708" stroke="none" /><path d="M 102.88285421437855 79.19881850522331 l 0.8418583466915953 -6.074413397348775 a27.132472877867833,27.132472877867833 0 0,0 0.46206733041922465,0.06809671328650206 l -0.9462946575394757 6.059022199901304" fill="#ff2403" stroke="none" /><path d="M 103.2404852339499 79.25152402106235 l 1.482222690150833 -9.49051134682823 a30.60556035468381,30.60556035468381 0 0,0 0.5198147384890306,0.08577388579523851 l -1.6453666347787388 9.463591198093367" fill="#ff5708" stroke="none" /><path d="M 103.95276090670814 79.375362276772 l 1.3731752770035357 -7.164926816248347 a28.295326354836252,28.295326354836252 0 0,0 0.4775625769163852,0.09579456025396015 l -1.4963042633870463 7.140228299917178" fill="#ff3505" stroke="none" /><path d="M 104.307194497241 79.44645832069477 l 1.632662356121546 -7.790916757130883 a28.96014888589649,28.96014888589649 0 0,0 0.4870232042214975,0.1064444089107201 l -1.7665282844965715 7.761658850124292" fill="#ff3f05" stroke="none" /><path d="M 106.0581310904928 79.89281104454417 l 4.702278681462384 -15.607058440474395 a37.30005208465662,37.30005208465662 0 0,0 0.613167789441692,0.19051421692739173 l -4.970231843614794 15.523804088664482" fill="#ffb510" stroke="none" /><path d="M 106.40334571778207 80.00007090966166 l 2.3316084718949224 -7.282443609882513 a28.64659290124241,28.64659290124241 0 0,0 0.4683270203440449,0.15440005538825857 l -2.4566183144813847 7.241229830235018" fill="#ff3a05" stroke="none" /><path d="M 107.08798089147638 80.2323363322302 l 2.5039265667728268 -6.9831985975414925 a28.41853832668513,28.41853832668513 0 0,0 0.4590509750533822,0.16907234820270273 l -2.6237598675987854 6.939062981532465" fill="#ff3705" stroke="none" /><line stroke="#e1ed5e" stroke-width="0.3" x1="143.23703022742887" x2="145.7803849466894" y1="26.81831364943548" y2="22.513508569990506" /><path d="M 143.74570117128098 25.957352633546492 a86.0,86.0 0 0,1 28.547481713284135,27.462654790039103" fill="none" id="id110" stroke="none" /><text fill="#e1ed5e" style="font-size:6.75px; font-family:Arial;" text-anchor="middle"><textPath startOffset="19.985693538727396" xlink:href="#id110">February</textPath></text><path d="M 112.19680574252982 82.90503203632743 l 4.609732336274107 -6.4609725097881485 a28.936863233313858,28.936863233313858 0 0,0 0.40298672298154703,0.2927869924676075 l -4.7202643756094425 6.380666282503866" fill="#ff3f05" stroke="none" /><path d="M 113.06298171725822 83.55741782278167 l 8.899358690425041 -11.201763866708415 a35.306575370309204,35.306575370309204 0 0,0 0.47259801642478855,0.38214139562646365 l -9.09086010541432 11.04691637381782" fill="#ff990e" stroke="none" /><path d="M 113.6212207817346 84.01681056812373 l 5.240461792408758 -6.149176706018608 a29.07928301023908,29.07928301023908 0 0,0 0.3781777390953373,0.32795200871815305 l -5.345533330150859 6.058059703880783" fill="#ff4106" stroke="none" /><path d="M 113.89432698308785 84.25364557470407 l 6.522259214809225 -7.391635836341476 a30.857796183846133,30.857796183846133 0 0,0 0.39525752954557136,0.3548661126473253 l -6.648527731950786 7.278270714924853" fill="#ff5b08" stroke="none" /><path d="M 114.94478906791727 85.2469230424477 l 8.74154323481604 -8.629406509849419 a33.283372290962674,33.283372290962674 0 0,0 0.39898163000519177,0.41118564119575884 l -8.88878912852434 8.477656673103546" fill="#ff7d0b" stroke="none" /><path d="M 115.19652480421416 85.50635884689758 l 4.836127871674633 -4.612442834504603 a27.683020401941107,27.683020401941107 0 0,0 0.3259117747580101,0.34765995777050634 l -4.914806968403107 4.5285134598560415" fill="#ff2c04" stroke="none" /><path d="M 116.60985879189232 87.15038557335679 l 22.588538015219935 -17.47480262137019 a49.55890012449504,49.55890012449504 0 0,0 0.5161773253932019,0.6792288545914769 l -22.88599128083725 17.08338899089768" fill="#aeff20" stroke="none" /><path d="M 117.04232023915458 87.72973835380427 l 8.321223856704007 -5.991179164896928 a31.253633222388782,31.253633222388782 0 0,0 0.3105828018471735,0.4392973474094778 l -8.423119278355063 5.8470553171556565" fill="#ff6008" stroke="none" /><path d="M 117.65298651832404 88.62581576622439 l 6.435955968705994 -4.146819510259257 a28.656215859142762,28.656215859142762 0 0,0 0.26359952857168445,0.4169511506366924 l -6.506383093523635 4.035420711908358" fill="#ff3a05" stroke="none" /><line stroke="#e1ed5e" stroke-width="0.3" x1="172.23445277983987" x2="176.4835382374775" y1="55.19839476539836" y2="52.563006222186495" /><path d="M 173.08426987136738 54.67131705675599 a86.0,86.0 0 0,1 12.851231095245387,41.99856678651699" fill="none" id="id111" stroke="none" /><text fill="#e1ed5e" style="font-size:6.75px; font-family:Arial;" text-anchor="middle"><textPath startOffset="22.20632615414155" xlink:href="#id111">March</textPath></text><path d="M 118.56541770881063 90.18545643968196 l 6.917161716274642 -3.656733505431643 a28.824246042836457,28.824246042836457 0 0,0 0.22811037088529829,0.44063663047761026 l -6.979081520320057 3.537124152693688" fill="#ff3d05" stroke="none" /><path d="M 119.04729006885535 91.15688171328212 l 7.307281115783427 -3.3925640354914774 a29.056416575624382,29.056416575624382 0 0,0 0.20671244351171822,0.45546346850534397 l -7.364595876258492 3.2662785581440708" fill="#ff4006" stroke="none" /><path d="M 119.47837535516314 92.15188598940014 l 7.378367975276688 -2.972849225168105 a28.954756218399858,28.954756218399858 0 0,0 0.1822859777940669,0.46389793060383844 l -7.428447502952455 2.845402289668482" fill="#ff3f05" stroke="none" /><path d="M 119.7369772167798 92.82701384747503 l 8.177242000707704 -2.971845333390512 a29.70052592799614,29.70052592799614 0 0,0 0.17049080471182412,0.4820004634589981 l -8.227185886229337 2.8306472435048993" fill="#ff4a06" stroke="none" /><path d="M 119.97218684219823 93.5106431181261 l 11.495698405045665 -3.7351788337525442 a33.08729261414162,33.08729261414162 0 0,0 0.17133626803545882,0.543182791529795 l -11.558290156849331 3.53674587579633" fill="#ff7a0b" stroke="none" /><path d="M 120.08093135843002 93.85539295169968 l 8.878833147327882 -2.7168531062604453 a30.285201605731853,30.285201605731853 0 0,0 0.14824476808821138,0.4998076615715936 l -8.924283812527795 2.5636160579423217" fill="#ff5207" stroke="none" /><path d="M 120.18372546131832 94.20196356495316 l 6.540701972570394 -1.8789013168270143 a27.805222439594502,27.805222439594502 0 0,0 0.12818635140465579,0.4611545086491657 l -6.572075094541414 1.7660355047588967" fill="#ff2e04" stroke="none" /><path d="M 120.28053869075195 94.5502522615342 l 7.504567804992266 -2.0166131702443177 a28.77079575192459,28.77079575192459 0 0,0 0.1244044661564317,0.4793811558763031 l -7.538168603019001 1.887135588819164" fill="#ff3c05" stroke="none" /><path d="M 120.45610955862082 95.25157060432595 l 6.534026479847007 -1.5167284531844294 a27.70775426204934,27.70775426204934 0 0,0 0.10384551352340472,0.46551907506647805 l -6.559166380372449 1.4040312085679874" fill="#ff2c04" stroke="none" /><path d="M 120.53481517161879 95.60439243477599 l 8.012373883498025 -1.7150995011819663 a29.193881958383088,29.193881958383088 0 0,0 0.10095620299010709,0.4922982996454867 l -8.04070938240313 1.5769255453730677" fill="#ff4206" stroke="none" /><path d="M 120.6074358757038 95.95851677861258 l 9.360906784791078 -1.835839642345258 a30.539228638939,30.539228638939 0 0,0 0.09672831834620575,0.5167265444189604 l -9.391120827047144 1.6744350204637348" fill="#ff5608" stroke="none" /><path d="M 120.67395015179393 96.31383870115 l 19.14891494144095 -3.4142478168829795 a40.450913387027114,40.450913387027114 0 0,0 0.11632168377377418,0.68653716222579 l -19.204848486734946 3.0841248663413516" fill="#ffde14" stroke="none" /><path d="M 120.73433829027371 96.67025291283417 l 7.723157765811065 -1.2402692439186627 a28.822111842272413,28.822111842272413 0 0,0 0.07444903362269721,0.4905261121506115 l -7.7433626928730614 1.107144019375969" fill="#ff3d05" stroke="none" /><path d="M 120.78858239683441 97.02765380044208 l 9.438684025941468 -1.3495406304187045 a30.534674407378237,30.534674407378237 0 0,0 0.06991568157014477,0.5209530367233874 l -9.460515706569447 1.1868692516306525" fill="#ff5607" stroke="none" /><path d="M 120.83666639777658 97.38593545837742 l 4.7445611149547 -0.5952290418916438 a25.781752585177472,25.781752585177472 0 0,0 0.05145257856159985,0.44081427155558983 l -4.754104046519889 0.5134710320112011" fill="#ff0f01" stroke="none" /><path d="M 120.87857604477298 97.74499172005257 l 8.077145857597147 -0.8723789758537955 a29.124120277446075,29.124120277446075 0 0,0 0.04954272801366007,0.4988885100240235 l -8.090965711293036 0.7332149351253371" fill="#ff4106" stroke="none" /><path d="M 120.96714384426684 98.82574320788733 l 19.038048347784436 -1.0662185439753173 a40.067881551868695,40.067881551868695 0 0,0 0.03263889900381548,0.6889555718821424 l -19.053580855021746 0.7383518654701752" fill="#ffd914" stroke="none" /><path d="M 120.98425023603335 99.18683210126433 l 6.698325034374532 -0.25956909739370704 a27.703352473386012,27.703352473386012 0 0,0 0.014363931730151809,0.4766689650019931 l -6.7018006605603295 0.14422998496671488" fill="#ff2c04" stroke="none" /><line stroke="#e1ed5e" stroke-width="0.3" x1="184.98032266829074" x2="189.97916517819016" y1="98.17113171792111" y2="98.06355123074" /><path d="M 185.9800911702706 98.14961562048488 a86.0,86.0 0 0,1 -9.607161424134198,41.387399972396054" fill="none" id="id112" stroke="none" /><text fill="#e1ed5e" style="font-size:6.75px; font-family:Arial;" text-anchor="middle"><textPath startOffset="21.466115282336823" xlink:href="#id112">April</textPath></text><path d="M 120.99980553446 99.90962569577887 l 9.525592066117461 -0.04099412986739448 a30.52568027642979,30.52568027642979 0 0,0 -0.0022613754069431536,0.5254640043482902 l -9.524886393421014 -0.12297935268458043" fill="#ff5607" stroke="none" /><path d="M 120.9764740272857 100.99374915477107 l 62.92942208185712 2.9812474643131925 a84.0,84.0 0 0,0 -0.0808545964498828,1.4437131346583068 l -62.86878113451971 -4.064032315306923" fill="#4dd2ff" stroke="none" /><path d="M 120.95626037817324 101.35467743843564 l 13.344096349627824 0.8626036294137696 a34.37194796615768,34.37194796615768 0 0,0 -0.04324881669886692,0.5900957425111926 l -13.32727097426462 -1.0921725084217324" fill="#ff8c0c" stroke="none" /><path d="M 120.92983693683757 101.71520430193887 l 7.866531550027182 0.6446638259372496 a28.892902512767094,28.892902512767094 0 0,0 -0.04488774329553004,0.4953325068308536 l -7.854269210454577 -0.7799777213166738" fill="#ff3e05" stroke="none" /><path d="M 120.89721153311464 102.0752229133903 l 18.996280761260685 1.8864486796477329 a40.08971899692574,40.08971899692574 0 0,0 -0.07410431547286743,0.6861139267666791 l -18.960994144286765 -2.2131589282992032" fill="#ffda14" stroke="none" /><path d="M 120.8583938346157 102.4346265915055 l 11.411804248284895 1.3320048657735888 a32.48927818288067,32.48927818288067 0 0,0 -0.06961754685185403,0.5549203457246278 l -11.387185192186193 -1.5282429657856114" fill="#ff720a" stroke="none" /><path d="M 120.76222939487914 103.15116336523771 l 6.830714917408727 1.0367238602724416 a27.908940775934347,27.908940775934347 0 0,0 -0.07617578680529802,0.47434669715205763 l -6.81185737624214 -1.1541497871177042" fill="#ff2f04" stroke="none" /><path d="M 120.70491114924044 103.5080841355445 l 12.414338211642516 2.1033919256951092 a33.591268833049625,33.591268833049625 0 0,0 -0.10149931018084417,0.5692620341315242 l -12.376292459122483 -2.3167727105598517" fill="#ff810b" stroke="none" /><path d="M 120.64145759157962 103.86396538481128 l 18.759333926811482 3.5116423640976206 a40.08518382072715,40.08518382072715 0 0,0 -0.13279661548051486,0.6771270813505269 l -18.696107378355304 -3.8340331725160923" fill="#ffda14" stroke="none" /><path d="M 120.5718875245553 104.21870165774334 l 7.565356008361511 1.5514366338916268 a28.7227952945959,28.7227952945959 0 0,0 -0.10349228173745913,0.4834814859227589 l -7.5375296878996085 -1.6814319392305548" fill="#ff3b05" stroke="none" /><path d="M 120.49622156327973 104.57218783832717 l 7.537659875541335 1.681460980795624 a28.72292868213115,28.72292868213115 0 0,0 -0.11179980644259488,0.481630640081917 l -7.507599503168188 -1.810960278226106" fill="#ff3b05" stroke="none" /><path d="M 120.41448212921028 104.9243191809786 l 10.374680081970869 2.5025487201101044 a31.672241418735233,31.672241418735233 0 0,0 -0.13240306892763348,0.5288844442588176 l -10.330065698748175 -2.6807610037663183" fill="#ff6609" stroke="none" /><path d="M 120.02730092923936 106.31721596034902 l 16.150074843304274 5.094221678768564 a37.934462257679314,37.934462257679314 0 0,0 -0.2017892089387854,0.6210433263305218 l -16.05999338334924 -5.371463905076881" fill="#ffbd11" stroke="none" /><path d="M 119.79798401119884 107.00284435728193 l 17.982386150034564 6.3606401192163 a40.07416982138774,40.07416982138774 0 0,0 -0.23562798729989964,0.6483470228555668 l -17.87023390172944 -6.669234939077998" fill="#ffd914" stroke="none" /><path d="M 119.26925614724726 108.34839909993367 l 20.99907111891782 9.097840886486974 a43.88518509108464,43.88518509108464 0 0,0 -0.3062745296817466,0.6905682103178676 l -20.8393555045048 -9.45795743329753" fill="#f4ff19" stroke="none" /><path d="M 119.12269723197855 108.67885076344098 l 8.680652879300737 3.93972094808356 a30.532845092609058,30.532845092609058 0 0,0 -0.2213273353901185,0.4767193902262164 l -8.611550927070788 -4.088560405588607" fill="#ff5607" stroke="none" /><path d="M 118.97047184881838 109.00673069616215 l 7.754356723298545 3.681584901277753 a29.583945222185523,29.583945222185523 0 0,0 -0.2223680671338413,0.45814408154157404 l -7.68983539954999 -3.814517938784602" fill="#ff4806" stroke="none" /><path d="M 118.81262510543309 109.33194174019688 l 7.332514811495227 3.6372702186173127 a29.185078381056428,29.185078381056428 0 0,0 -0.22711734911544013,0.44812407643325686 l -7.268818792593518 -3.762948506753264" fill="#ff4206" stroke="none" /><line stroke="#e1ed5e" stroke-width="0.3" x1="174.80103733775053" x2="179.2010983576182" y1="140.37084112569926" y2="142.7455964860345" /><path d="M 175.68104954172406 140.8457921977663 a86.0,86.0 0 0,1 -30.038265399797805,32.042727171017184" fill="none" id="id113" stroke="none" /><text fill="#e1ed5e" style="font-size:6.75px; font-family:Arial;" text-anchor="middle"><textPath startOffset="22.206326154141568" xlink:href="#id113">May</textPath></text><path d="M 118.30583269289576 110.29060199501025 l 10.147364513737884 5.704328847585947 a32.64080642292741,32.64080642292741 0 0,0 -0.27954208948286113,0.48740519568621316 l -10.047670428102643 -5.878153889130475" fill="#ff740a" stroke="none" /><path d="M 118.12598468904814 110.60418214915192 l 16.08736815892665 9.411537369376626 a39.63814502400976,39.63814502400976 0 0,0 -0.3496067862044648,0.5859610830234538 l -15.922980497023959 -9.687060546286183" fill="#ffd413" stroke="none" /><path d="M 117.94076556474637 110.91462005526583 l 10.265833777952574 6.245423297712577 a33.01634950074951,33.01634950074951 0 0,0 -0.2995610499511325,0.48298779483602716 l -10.156808088333479 -6.421207423913877" fill="#ff790b" stroke="none" /><path d="M 117.75023020441432 111.22182372390056 l 3.18664413791996 2.014619437309925 a24.7700652963744,24.7700652963744 0 0,0 -0.2309456342315719,0.3584327529573045 l -3.1514936403113376 -2.069173790188682" fill="#ff0000" stroke="none" /><path d="M 117.55443506779139 111.5257021239791 l 6.903823984114969 4.532838479279132 a29.258898854137556,29.258898854137556 0 0,0 -0.28004513375159334,0.4186294779359215 l -6.824775744952655 -4.65100487142086" fill="#ff4306" stroke="none" /><path d="M 117.35343817320211 111.8261652097733 l 6.467614118600566 4.4076033991780985 a28.826685129195354,28.826685129195354 0 0,0 -0.2829669867645271,0.40763504910943166 l -6.390786224673903 -4.51827971047455" fill="#ff3d05" stroke="none" /><path d="M 116.93607887273984 112.41649034213515 l 7.784173784080443 5.706876977710983 a30.652036383038187,30.652036383038187 0 0,0 -0.3156265486040062,0.4228333408084783 l -7.684785968781345 -5.840023198028776" fill="#ff5808" stroke="none" /><path d="M 116.71984013943494 112.70617746262583 l 7.606151810463324 5.780265475354356 a30.55327244086486,30.55327244086486 0 0,0 -0.3218178845523035,0.4159929972712551 l -7.505527108692952 -5.9103364667388645" fill="#ff5608" stroke="none" /><path d="M 116.498646956653 112.99209946851258 l 6.747553351179388 5.31345900896846 a29.588499453746287,29.588499453746287 0 0,0 -0.31854427312698924,0.3974329591469987 l -6.655091165997544 -5.4288198016937095" fill="#ff4806" stroke="none" /><path d="M 116.27256486870786 113.27417163493432 l 6.1226696976495285 4.994502654397155 a28.901401204298892,28.901401204298892 0 0,0 -0.3177832927025799,0.38279044755305974 l -6.035790405053405 -5.099154359063985" fill="#ff3e05" stroke="none" /><path d="M 116.0416608686014 113.55231037782055 l 7.296529763224617 6.164251746885785 a30.55182423333926,30.55182423333926 0 0,0 -0.34284601080301885,0.3988073659404802 l -7.18934124285082 -6.288936211987794" fill="#ff5608" stroke="none" /><path d="M 115.80600337817218 113.82643327865902 l 6.75680498332866 5.910571511576381 a29.97715262074748,29.97715262074748 0 0,0 -0.34308301643513234,0.385457405962957 l -6.654063117245189 -6.026003087280205" fill="#ff4e07" stroke="none" /><path d="M 115.56566222782051 114.09645910891815 l 7.77630570862153 7.042320065516343 a31.49119642267334,31.49119642267334 0 0,0 -0.3673276990593383,0.3986616692272572 l -7.65393160156647 -7.1751329895449345" fill="#ff6409" stroke="none" /><path d="M 115.32070863581623 114.36230785411682 l 8.347390338696648 7.825211788348492 a32.44171599888209,32.44171599888209 0 0,0 -0.3854283620831102,0.40412009672185595 l -8.211455425234574 -7.967739001652855" fill="#ff710a" stroke="none" /><path d="M 115.07121518719521 114.62390073753431 l 6.835417205499403 6.6325416677605284 a30.52436545643944,30.52436545643944 0 0,0 -0.36914041770922673,0.37393729423225114 l -6.72023616273464 -6.749219455973444" fill="#ff5607" stroke="none" /><path d="M 114.81725581225074 114.88116024355365 l 13.367639941212493 13.425292413379372 a39.94550801595569,39.94550801595569 0 0,0 -0.4914249475378688,0.48096274240666526 l -13.13456504129883 -13.65340525870861" fill="#ffd814" stroke="none" /><path d="M 114.0293411484842 115.62618273729858 l 5.767098352702101 6.423518522324433 a29.63255545110394,29.63255545110394 0 0,0 -0.38248241704482394,0.3374962625739751 l -5.655673582750689 -6.521837926670697" fill="#ff4906" stroke="none" /><path d="M 112.63410532772338 116.77436683061366 l 4.47884268405268 5.946582540676673 a28.44458700678371,28.44458700678371 0 0,0 -0.3936392616384843,0.2912049151745014 l -4.375818451995631 -6.022797404590943" fill="#ff3705" stroke="none" /><path d="M 112.34349029814194 116.9893568818739 l 5.615373456020277 7.728898501560036 a30.55344393912447,30.55344393912447 0 0,0 -0.4281449329231171,0.30547004168762587 l -5.481501195248274 -7.824412805091882" fill="#ff5608" stroke="none" /><path d="M 112.04921762599082 117.19931262002967 l 6.791895651145324 9.694898059994372 a32.83726720699205,32.83726720699205 0 0,0 -0.46573114120958786,0.320334125687232 l -6.624007625312853 -9.810372975046699" fill="#ff770a" stroke="none" /><path d="M 111.7513745106137 117.40417183066458 l 5.354407230112159 7.9300530674141605 a30.568459564521454,30.568459564521454 0 0,0 -0.43862144225403105,0.2906943746297595 l -5.217111089118164 -8.02104546313524" fill="#ff5608" stroke="none" /><path d="M 111.45004920935366 117.60387380957326 l 9.733880028269809 14.965350153709922 a38.85245433064864,38.85245433064864 0 0,0 -0.5637642795090089,0.35982103676633725 l -9.474833946713868 -15.130685619300069" fill="#ffc912" stroke="none" /><line stroke="#e1ed5e" stroke-width="0.3" x1="143.8653032363475" x2="146.44561519142675" y1="172.8068346515853" y2="177.08958963109032" /><path d="M 144.38136562736335 173.6633856474863 a86.0,86.0 0 0,1 -40.68145358897372,12.25698825130547" fill="none" id="id114" stroke="none" /><text fill="#e1ed5e" style="font-size:6.75px; font-family:Arial;" text-anchor="middle"><textPath startOffset="21.466115282336833" xlink:href="#id114">June</textPath></text><path d="M 110.5260780823613 118.17145234162733 l 9.592653858499876 16.560056941963595 a40.137776620340965,40.137776620340965 0 0,0 -0.6008266463640786,0.3411650504177733 l -9.306178445214599 -16.722725158175997" fill="#ffda14" stroke="none" /><path d="M 109.89434966115114 118.52300852407294 l 7.203437992654045 13.485408127878722 a36.28874590309713,36.28874590309713 0 0,0 -0.5535054975555415,0.28956791603569115 l -6.970241592572008 -13.60740546285913" fill="#ffa70f" stroke="none" /><path d="M 109.57404056367764 118.69057910512821 l 3.4888694383675283 6.811020884188115 a28.65259534032877,28.65259534032877 0 0,0 -0.44090353423687556,0.22107818507359717 l -3.371111996447892 -6.870066910171014" fill="#ff3a05" stroke="none" /><path d="M 109.2508944713604 118.85261126421891 l 5.049558069171733 10.290610884051647 a32.46275311872761,32.46275311872761 0 0,0 -0.5037714287252031,0.24184089992740498 l -4.871673972446297 -10.376006060478613" fill="#ff720a" stroke="none" /><path d="M 108.92500713936063 119.00905698771935 l 4.070801707781371 8.670256554491097 a30.578349297492316,30.578349297492316 0 0,0 -0.47837935146805105,0.2196004972334674 l -3.9209543605459 -8.739044122058639" fill="#ff5608" stroke="none" /><path d="M 108.59647513512805 119.15986991738527 l 3.129983358109427 6.976123706785326 a28.646116517187938,28.646116517187938 0 0,0 -0.45162556810409327,0.19797937700481788 l -3.0094371153475805 -7.028967637084598" fill="#ff3a05" stroke="none" /><path d="M 107.2578585660854 119.70592522655815 l 2.8550291241035026 7.75173419638216 a29.260785334993265,29.260785334993265 0 0,0 -0.4741368042909772,0.17000858903925725 l -2.7211727591827906 -7.799730326461378" fill="#ff4306" stroke="none" /><path d="M 106.91757812671514 119.82793768551818 l 2.9668795662954657 8.504002713573716 a30.0066884321248,30.0066884321248 0 0,0 -0.4891522697447002,0.1659470079802675 l -2.8200575636135388 -8.553812708452107" fill="#ff4e07" stroke="none" /><path d="M 101.98527174616119 120.90594882070398 l 1.0007747428881508 10.538680962104483 a31.586092126324345,31.586092126324345 0 0,0 -0.5417100266492791,0.04674102049621673 l -0.8192203984973299 -10.554346234879363" fill="#ff6509" stroke="none" /><path d="M 101.62511606390274 120.93702456842531 l 0.7900861851620914 10.17899843423259 a31.20961533575548,31.20961533575548 0 0,0 -0.5359690243732578,0.036963561924293974 l -0.6147544000099033 -10.191090340673169" fill="#ff6008" stroke="none" /><path d="M 101.26447882468166 120.96189622390904 l 0.6992146167361938 11.591229483779092 a32.61229960110775,32.61229960110775 0 0,0 -0.5606394891654389,0.028978657737411272 l -0.4995870591572753 -11.601547948278704" fill="#ff740a" stroke="none" /><line stroke="#e1ed5e" stroke-width="0.3" x1="102.19456741930631" x2="102.32365962044197" y1="184.97166512339345" y2="189.96999836594603" /><path d="M 102.22038585953345 185.97133177190398 a86.0,86.0 0 0,1 -42.740103519485714,-10.115201625700543" fill="none" id="id115" stroke="none" /><text fill="#e1ed5e" style="font-size:6.75px; font-family:Arial;" text-anchor="middle"><textPath startOffset="22.20632615414155" xlink:href="#id115">July</textPath></text><path d="M 100.54218724476979 120.99299961872073 l 0.1476746035024488 5.717827051313089 a26.719733733072488,26.719733733072488 0 0,0 -0.45988518316509813,0.007917340488040363 l -0.04922973044468269 -5.719521869080289" fill="#ff1e03" stroke="none" /><path d="M 100.18074693466247 120.99922214144158 l 0.08200685361614693 9.527575886263651 a30.5279288091669,30.5279288091669 0 0,0 -0.5255075765571982,0.0 l 0.08200685361614037 -9.527575886263651" fill="#ff5607" stroke="none" /><path d="M 99.81925306533755 120.99922214144158 l -0.08233930075707452 9.566199674688063 a30.566554028303564,30.566554028303564 0 0,0 -0.5260945127096457,-0.009057194139948226 l 0.24699350335938816 -9.563365003268954" fill="#ff5608" stroke="none" /><path d="M 99.09653310690486 120.98055641714683 l -0.37458003069879775 8.698600387989156 a29.70666175461775,29.70666175461775 0 0,0 -0.5106885400486518,-0.02639676422814637 l 0.5242566391609385 -8.690863816998808" fill="#ff4a06" stroke="none" /><path d="M 98.73552117531835 120.96189622390904 l -0.5170017186957864 8.570595381549508 a29.58617469956046,29.58617469956046 0 0,0 -0.5080893506077026,-0.035040816390879435 l 0.6644538300824189 -8.560426220642343" fill="#ff4806" stroke="none" /><path d="M 98.37488393609728 120.93702456842531 l -0.2951569944091353 3.802626397431615 a24.81406412764552,24.81406412764552 0 0,0 -0.4255679140713004,-0.03671979032246572 l 0.36056922622197735 -3.7969823548304857" fill="#ff0100" stroke="none" /><path d="M 98.01472825383883 120.90594882070398 l -0.5422922827905433 5.710621093461837 a26.736311898168147,26.736311898168147 0 0,0 -0.457786011693681,-0.04745139188611835 l 0.6405108910898176 -5.700440333119958" fill="#ff1e03" stroke="none" /><path d="M 97.65516085044442 120.86867818915974 l -1.0798921621904332 9.610860521507105 a30.67133946492543,30.67133946492543 0 0,0 -0.5241477443925434,-0.06346699236827068 l 1.245167329634366 -9.590848000413486" fill="#ff5808" stroke="none" /><path d="M 96.93821686468263 120.77559828337769 l -1.2710023413697882 8.624331931593241 a29.717485200335375,29.717485200335375 0 0,0 -0.5054295208240218,-0.078937696469621 l 1.4192677258023272 -8.601175927776515" fill="#ff4a06" stroke="none" /><path d="M 95.51606077576429 120.51570834832081 l -1.8399436180563191 8.418434050437364 a29.61715871846338,29.61715871846338 0 0,0 -0.497116746690088,-0.11314215307348693 l 1.9845805141392698 -8.385515163786192" fill="#ff4906" stroke="none" /><path d="M 95.16358092515715 120.4354850818985 l -2.1971315417240507 9.283614208996022 a30.54006707487487,30.54006707487487 0 0,0 -0.5105233443027071,-0.12547421705834894 l 2.3566081707699684 -9.244418733623643" fill="#ff5608" stroke="none" /><path d="M 94.11515582081647 120.15858648285463 l -4.280044930899403 14.661332273713597 a36.273292004370035,36.273292004370035 0 0,0 -0.5978616248642383,-0.1801308032379031 l 4.5317815302038875 -14.58548610136997" fill="#ffa70f" stroke="none" /><path d="M 93.76903079525671 120.05430185196036 l -4.663875236789798 15.010628158339465 a36.71848243095607,36.71848243095607 0 0,0 -0.6019709400776903,-0.19273208539713643 l 4.921567521958429 -14.928123226282622" fill="#ffad10" stroke="none" /><path d="M 93.42475214034765 119.94407469862007 l -2.4532452549280737 7.441195778877856 a28.835164765364972,28.835164765364972 0 0,0 -0.4700547454726899,-0.15946809086428443 l 2.5809697333379895 -7.397864701115449" fill="#ff3d05" stroke="none" /><path d="M 93.08242187328487 119.8279376855182 l -3.2640200944760194 9.355700196230671 a30.908731166950382,30.908731166950382 0 0,0 -0.5008398391365494,-0.17958334728640526 l 3.424579494242295 -9.29812930790431" fill="#ff5b08" stroke="none" /><path d="M 92.7421414339146 119.70592522655815 l -1.401734574032182 3.8058714498012027 a25.05580045224726,25.05580045224726 0 0,0 -0.40343391788537,-0.15254418727613445 l 1.4670387126778348 -3.781179012418435" fill="#ff0400" stroke="none" /><path d="M 91.7346041902142 119.30500536409082 l -3.233139772589234 7.5514569524660295 a29.2144808048985,29.2144808048985 0 0,0 -0.46058621881476686,-0.20190746294712358 l 3.362646666061744 -7.494684936224454" fill="#ff4306" stroke="none" /><line stroke="#e1ed5e" stroke-width="0.3" x1="58.666819895761336" x2="56.23545636021788" y1="174.27360380694188" y2="178.64263932499728" /><path d="M 58.180547188652646 175.14741091055294 a86.0,86.0 0 0,1 -31.652253787137756,-30.449443065178592" fill="none" id="id116" stroke="none" /><text fill="#e1ed5e" style="font-size:6.75px; font-family:Arial;" text-anchor="middle"><textPath startOffset="22.20632615414155" xlink:href="#id116">August</textPath></text><path d="M 87.95078237400918 117.19931262002967 l -4.7964119467875985 6.846501664083058 a29.359434944993524,29.359434944993524 0 0,0 -0.4114133035290482,-0.29353246836727326 l 4.913552578165533 -6.762924933871566" fill="#ff4506" stroke="none" /><path d="M 87.36589467227662 116.77436683061367 l -5.305202583796933 7.043744843257944 a29.818135623364416,29.818135623364416 0 0,0 -0.4073317371537242,-0.3123246065331466 l 5.425663049444144 -6.95138089489743" fill="#ff4b07" stroke="none" /><path d="M 87.07902340077011 116.55440617244103 l -5.865131392016847 7.514429468432623 a30.532387763916766,30.532387763916766 0 0,0 -0.41152207552499326,-0.32693802535950495 l 5.993610960259199 -7.412357529067988" fill="#ff5607" stroke="none" /><path d="M 85.18274418774928 114.88116024355367 l -5.46406912771018 5.487634775400324 a28.744042023425393,28.744042023425393 0 0,0 -0.3476104259831713,-0.35212752628311583 l 5.557720178748885 -5.3927667551365435" fill="#ff3c05" stroke="none" /><path d="M 84.67929136418377 114.36230785411682 l -7.229392831780147 6.777151626370586 a30.90928377245357,30.90928377245357 0 0,0 -0.36054000411151554,-0.39129496694742655 l 7.3449792438873915 -6.651705404621816" fill="#ff5b08" stroke="none" /><path d="M 83.72743513129214 113.27417163493432 l -12.12367005980658 9.889754843052351 a36.64578622424351,36.64578622424351 0 0,0 -0.3945217078080089,-0.49222649097620647 l 12.29210967966945 -9.679600518497885" fill="#ffac0f" stroke="none" /><path d="M 83.50135304334701 112.99209946851258 l -14.243049995374323 11.215896840575866 a39.12900480195127,39.12900480195127 0 0,0 -0.4121461481539564,-0.5327544543488607 l 14.434002960746346 -10.96906439211375" fill="#ffcd13" stroke="none" /><path d="M 83.28015986056508 112.70617746262583 l -6.222627564787663 4.728861607685889 a28.815575853045047,28.815575853045047 0 0,0 -0.29671636294829307,-0.39750005686427314 l 6.303105194431041 -4.621048671312308" fill="#ff3d05" stroke="none" /><path d="M 82.85270091963577 112.12312394758628 l -6.390039372115348 4.517751686434415 a28.825770471810767,28.825770471810767 0 0,0 -0.2829580083529343,-0.40762211503789564 l 6.466858287630417 -4.407088309209507" fill="#ff3d05" stroke="none" /><line stroke="#e1ed5e" stroke-width="0.3" x1="26.63291911575756" x2="22.317208475507996" y1="142.92168965132927" y2="145.44649492493687" /><path d="M 25.769776987707644 143.4266507060508 a86.0,86.0 0 0,1 -11.730757126820373,-40.83630448921669" fill="none" id="id117" stroke="none" /><text fill="#e1ed5e" style="font-size:6.75px; font-family:Arial;" text-anchor="middle"><textPath startOffset="21.46611528233685" xlink:href="#id117">September</textPath></text><path d="M 81.51974371655577 109.97397251340807 l -16.77025924678178 9.051070623948888 a40.05684849716711,40.05684849716711 0 0,0 -0.3222620991434345,-0.6095984439364038 l 16.9235738541501 -8.761057164926358" fill="#ffd914" stroke="none" /><path d="M 81.35079622478065 109.6543875284942 l -8.690880400621593 4.4991265237225315 a30.78639574176173,30.78639574176173 0 0,0 -0.23957874974310076,-0.47271160208502205 l 8.76703782015096 -4.348860709934824" fill="#ff5908" stroke="none" /><path d="M 81.18737489456691 109.33194174019688 l -15.383750658671218 7.631059678692847 a38.172444675931814,38.172444675931814 0 0,0 -0.2869236228166975,-0.5911476469722473 l 15.512827538102634 -7.365123075755315" fill="#ffc011" stroke="none" /><path d="M 81.02952815118164 109.00673069616217 l -10.460223969907105 4.966266578359352 a32.57929571381387,32.57929571381387 0 0,0 -0.23616170348209087,-0.5086712993689756 l 10.544160290229023 -4.785475211711549" fill="#ff730a" stroke="none" /><path d="M 80.87730276802145 108.67885076344099 l -15.927466120934577 7.228692680036295 a38.49108844228766,38.49108844228766 0 0,0 -0.26862915093400236,-0.6056878193314632 l 16.04953635659986 -6.953456524212136" fill="#ffc512" stroke="none" /><path d="M 80.73074385275274 108.34839909993369 l -8.217530329627934 3.560242402888191 a29.955620061485305,29.955620061485305 0 0,0 -0.20091522349696483,-0.47490423894925354 l 8.277596534317205 -3.4182636382727787" fill="#ff4d07" stroke="none" /><path d="M 80.45479744820244 107.68017299344265 l -9.220023107258504 3.6229541382149284 a30.906292080591477,30.906292080591477 0 0,0 -0.19030287440830027,-0.49682075442755674 l 9.281020261260313 -3.4637098169542138" fill="#ff5b08" stroke="none" /><path d="M 80.20201598880116 107.00284435728193 l -9.342249381393788 3.304493948869117 a30.90945527071318,30.90945527071318 0 0,0 -0.17310644525647736,-0.5031283592461987 l 9.397746657593494 -3.1431928865336216" fill="#ff5b08" stroke="none" /><path d="M 80.0844068197444 106.66101706037122 l -12.075815764817833 4.038906303182429 a33.733345613455626,33.733345613455626 0 0,0 -0.17944171924619087,-0.5522648252064278 l 12.143549735080272 -3.8304425779981983" fill="#ff830c" stroke="none" /><path d="M 79.97269907076064 106.31721596034903 l -10.907858151302472 3.440668108503244 a32.43763815137579,32.43763815137579 0 0,0 -0.16338255616901412,-0.5339436468117745 l 10.965467479977617 -3.252397489139421" fill="#ff710a" stroke="none" /><path d="M 79.86692584326677 105.97154293290107 l -8.516107754220712 2.5259084966183987 a29.882809522599658,29.882809522599658 0 0,0 -0.14202497242311862,-0.49440756093082494 l 8.558325363529935 -2.3789434601829775" fill="#ff4c07" stroke="none" /><path d="M 79.76711848015287 105.62410040840567 l -8.138503702016378 2.2622463315184396 a29.447070555654363,29.447070555654363 0 0,0 -0.1315469683297817,-0.48953520582850285 l 8.176238746687934 -2.121820192514398" fill="#ff4606" stroke="none" /><path d="M 79.50377843672027 104.57218783832718 l -4.354572035262179 0.9713947148393064 a25.461603445209484,25.461603445209484 0 0,0 -0.09174174763327937,-0.42858690254225457 l 4.370647821619899 -0.8962939928808881" fill="#ff0b01" stroke="none" /><path d="M 79.4281124754447 104.21870165774334 l -9.870698712149583 2.0241960282120823 a31.07611346832999,31.07611346832999 0 0,0 -0.10295082365940533,-0.524944031855653 l 9.904079468784655 -1.8539882692884746" fill="#ff5e08" stroke="none" /><path d="M 79.35854240842038 103.8639653848113 l -9.963603476931313 1.865130830613104 a31.13667140933459,31.13667140933459 0 0,0 -0.09408250355418793,-0.5276646437696868 l 9.994232422824691 -1.6933474361102037" fill="#ff5f08" stroke="none" /><path d="M 79.29508885075956 103.50808413554451 l -9.786272488528535 1.6581122718018564 a30.925747605376152,30.925747605376152 0 0,0 -0.08440998084788925,-0.5256210313154337 l 9.813364223737716 -1.489412010793209" fill="#ff5c08" stroke="none" /><path d="M 79.0235259727143 100.99374915477108 l -7.626872609741918 0.3613189804739767 a28.635426459005565,28.635426459005565 0 0,0 -0.01908737596773179,-0.4925603608785823 l 7.631962118560851 -0.22998137258139764" fill="#ff3a05" stroke="none" /><line stroke="#e1ed5e" stroke-width="0.3" x1="15.007084014347285" x2="10.007500721073583" y1="101.09737516637583" y2="101.16192664675087" /><path d="M 14.007167355692545 101.11028546245083 a86.0,86.0 0 0,1 10.666146001902534,-42.60595125391555" fill="none" id="id118" stroke="none" /><text fill="#e1ed5e" style="font-size:6.75px; font-family:Arial;" text-anchor="middle"><textPath startOffset="22.20632615414155" xlink:href="#id118">October</textPath></text><path d="M 79.32604984820605 96.31383870115002 l -8.260729326195413 -1.472886435292791 a29.391009680123986,29.391009680123986 0 0,0 0.09309151106817602,-0.4972985745170377 l 8.234152091217377 1.6148630872724015" fill="#ff4506" stroke="none" /><path d="M 80.65960295795068 91.81776055985345 l -8.020235135359203 -3.3930784410014154 a29.70845295866257,29.70845295866257 0 0,0 0.2033038422076909,-0.46925329806653093 l 7.960640583308831 3.5306308836545455" fill="#ff4a06" stroke="none" /><path d="M 80.95270993114464 91.15688171328213 l -7.922918555988271 -3.6783870940884276 a29.73516857643741,29.73516857643741 0 0,0 0.21953305916718333,-0.46239261051633124 l 7.858427302979336 3.814222120245291" fill="#ff4a06" stroke="none" /><line stroke="#e1ed5e" stroke-width="0.3" x1="26.266209847984243" x2="21.928928074336255" y1="57.711370442889674" y2="55.22380399835377" /><path d="M 25.398753493254645 57.213857153982495 a86.0,86.0 0 0,1 29.58750427330803,-30.492523968695096" fill="none" id="id119" stroke="none" /><text fill="#e1ed5e" style="font-size:6.75px; font-family:Arial;" text-anchor="middle"><textPath startOffset="21.46611528233685" xlink:href="#id119">November</textPath></text><path d="M 81.96595687620814 89.24020034530311 l -8.1904566155723 -4.886739576871704 a30.537494600980715,30.537494600980715 0 0,0 0.2732148950211534,-0.4490934503951341 l 8.105125922264929 5.027000800473912" fill="#ff5607" stroke="none" /><path d="M 83.17141714833178 87.43820079747576 l -5.69504597161705 -4.251102102605517 a28.10671637998933,28.10671637998933 0 0,0 0.29274357683813357,-0.38521623210262146 l 5.621026454554808 4.348503110589165" fill="#ff3204" stroke="none" /><path d="M 86.93701828274178 83.55741782278169 l -6.249843977552928 -7.866777694401908 a31.047225539266748,31.047225539266748 0 0,0 0.421307072919708,-0.3288368530758875 l 6.113504349473794 7.973192936701017" fill="#ff5d08" stroke="none" /><path d="M 87.22198572758235 83.33499621200491 l -4.995991025610779 -6.515739268370711 a29.21065067710054,29.21065067710054 0 0,0 0.401651796868232,-0.3025158062861405 l 4.883093074984157 6.600771664162706" fill="#ff4306" stroke="none" /><path d="M 88.09926311788651 82.69761687909137 l -6.15812476913834 -8.95324677097356 a31.866606112960184,31.866606112960184 0 0,0 0.45462312364946394,-0.3069635624820178 l 6.003096951082337 9.057922245754245" fill="#ff6909" stroke="none" /><path d="M 88.70189139769569 82.29822771554957 l -4.753357500570401 -7.447516661728696 a29.83515206179019,29.83515206179019 0 0,0 0.43528186560925347,-0.2725734643116806 l 4.624456482588906 7.528234467363307" fill="#ff4c07" stroke="none" /><line stroke="#e1ed5e" stroke-width="0.3" x1="56.762969772571076" x2="54.21961505331055" y1="26.818313649435495" y2="22.513508569990535" /><path d="M 56.25429882871897 25.957352633546506 a86.0,86.0 0 0,1 42.265352541879196,-11.944610805530505" fill="none" id="id120" stroke="none" /><text fill="#e1ed5e" style="font-size:6.75px; font-family:Arial;" text-anchor="middle"><textPath startOffset="22.20632615414155" xlink:href="#id120">December</textPath></text><path d="M 89.3179101791058 81.91981866633112 l -7.081736291974894 -11.986332118803666 a34.92203816153866,34.92203816153866 0 0,0 0.5201775069476227,-0.30132038715890114 l 6.874362052561951 12.106456663352615" fill="#ff940d" stroke="none" /><path d="M 89.94658935756843 81.56283822128135 l -4.743608432442318 -8.699403535224514 a30.908654945501667,30.908654945501667 0 0,0 0.46930370164383806,-0.25068578440170686 l 4.593159684270174 8.77976804612797" fill="#ff5b08" stroke="none" /><path d="M 90.91171255644093 81.06846463323043 l -3.555950427747819 -7.407292265287787 a29.21661500546254,29.21661500546254 0 0,0 0.45525300104086436,-0.21374738826497391 l 3.4279192154073463 7.467404636192769" fill="#ff4306" stroke="none" /><path d="M 91.56875222667455 80.76684994638697 l -3.977142530438063 -9.072557363872981 a30.906006250158796,30.906006250158796 0 0,0 0.4890746599410485,-0.20939624562179404 l 3.8203841127067064 9.139673137457562" fill="#ff5b08" stroke="none" /><path d="M 92.23578459929587 80.48803036053334 l -4.229909820112809 -10.630033780391772 a32.44070606468661,32.44070606468661 0 0,0 0.5206220991950707,-0.20199328613808618 l 4.046304555918062 10.701269770420408" fill="#ff710a" stroke="none" /><path d="M 92.57280143429618 80.3572730644239 l -4.050550394677386 -10.712498748698572 a32.45271094285932,32.45271094285932 0 0,0 0.5242158632577059,-0.19307312647746885 l 3.8655522056471106 10.780635142982362" fill="#ff710a" stroke="none" /><path d="M 92.91201910852362 80.23233633223022 l -3.2202740927622977 -8.981019582079906 a30.54090551081074,30.54090551081074 0 0,0 0.49638860300202325,-0.17318023674169042 l 3.065203485696989 9.035120671993807" fill="#ff5608" stroke="none" /><path d="M 93.25333710446033 80.11325718540243 l -4.2913056944689725 -12.64923029445302 a34.35733250336645,34.35733250336645 0 0,0 0.5616886871588052,-0.18517992906872482 l 4.072934185067758 12.72122394778098" fill="#ff8c0c" stroke="none" /><path d="M 93.59665428221793 80.00007090966166 l -3.8379622410695546 -11.98732288647599 a33.58673365685104,33.58673365685104 0 0,0 0.5521253210101835,-0.17154802484620915 l 3.631051547348642 12.051611046204725" fill="#ff810b" stroke="none" /><path d="M 93.94186890950719 79.89281104454417 l -2.863052000574389 -9.50258862096728 a30.924528062196703,30.924528062196703 0 0,0 0.5110054166604203,-0.14917649381433898 l 2.6990563661905473 9.550463443700318" fill="#ff5b08" stroke="none" /><path d="M 94.28887869178378 79.79150937346287 l -2.2303312061386245 -7.891905081491428 a29.201008663838003,29.201008663838003 0 0,0 0.48487873132746084,-0.1325356736719858 l 2.094154585587441 7.9291272959897094" fill="#ff4206" stroke="none" /><path d="M 94.63758080256005 79.69619591428918 l -2.4343261256717805 -9.217123637026287 a30.5331690337661,30.5331690337661 0 0,0 0.5093094148955567,-0.12983431010404567 l 2.2753078220912246 9.257660943299197" fill="#ff5607" stroke="none" /><path d="M 95.33964822691252 79.52364482259891 l -1.94941520224863 -8.565215677490192 a29.784255189410302,29.784255189410302 0 0,0 0.5008822107527857,-0.10947345094716979 l 1.8016902673423234 8.59750262653323" fill="#ff4b07" stroke="none" /><path d="M 96.04723909329186 79.375362276772 l -1.8671753420466701 -9.742510590535032 a30.91982138773851,30.91982138773851 0 0,0 0.5235828257193772,-0.09568141474301899 l 1.6991973952243997 9.773207486628786" fill="#ff5b08" stroke="none" /><path d="M 96.40284397218896 79.31037775812273 l -1.6649411600268986 -9.576177232676613 a30.719835361670775,30.719835361670775 0 0,0 0.5217556221776118,-0.08609414823398669 l 1.4998563317104012 9.603417643850229" fill="#ff5908" stroke="none" /><path d="M 96.75951476605007 79.25152402106235 l -1.2635326022150697 -8.090262399902395 a29.188336847989024,29.188336847989024 0 0,0 0.49707879364468355,-0.07325649285984091 l 1.1240848281417373 8.110813376923204" fill="#ff4206" stroke="none" /><path d="M 97.47563105711357 79.15227682838746 l -1.0686785029796928 -8.825775508115305 a29.890241113849438,29.890241113849438 0 0,0 0.5113128499151187,-0.057451956337830894 l 0.9165989495548562 8.842863417923734" fill="#ff4c07" stroke="none" /><path d="M 97.83486435360386 79.11191278185805 l -1.0216011089423336 -9.855868892675211 a30.908674000863844,30.908674000863844 0 0,0 0.5296788156128663,-0.05029938589225323 l 0.8517971662392311 9.871993823082645" fill="#ff5b08" stroke="none" /><path d="M 98.19473922651362 79.07773832637324 l -0.852031413162796 -9.87470865270895 a30.91139891765543,30.91139891765543 0 0,0 0.5305129252598829,-0.04117801333853639 l 0.6819282985405789 9.88791192823595" fill="#ff5b08" stroke="none" /><path d="M 98.55514903715128 79.0497635885617 l -1.181254145241675 -17.12810126520696 a38.168786046393464,38.168786046393464 0 0,0 0.6558450740599716,-0.03956236590250314 l 0.8862470223420804 17.14589690048977" fill="#ffc011" stroke="none" /><path d="M 99.27714615592234 79.0124445844662 l -0.3412633997905239 -9.908343952346174 a30.91421911125791,30.91421911125791 0 0,0 0.5319797800265738,-0.013739468224857526 l 0.17065698456907114 9.91275021271339" fill="#ff5b08" stroke="none" /></svg>