<?xml version="1.0" encoding="utf-8" ?>
<svg baseProfile="full" height="200mm" version="1.1" viewBox="0,0,200,200" width="200mm" xmlns="http://www.w3.org/2000/svg" xmlns:ev="http://www.w3.org/2001/xml-events" xmlns:xlink="http://www.w3.org/1999/xlink"><defs /><rect fill="#1a1a1a" height="200" width="200" x="0" y="0" /><text alignment-baseline="middle" fill="#e1ed5e" style="dominant-baseline: central; font-size:9.0px; font-family:Arial;" text-anchor="middle" x="100.0" y="100.0">2025</text><line stroke="#e1ed5e" stroke-width="0.3" x1="100.0" x2="100.0" y1="15.0" y2="10.0" /><path d="M 100.0 14.0 a86.0,86.0 0 0,1 42.46469731375804,11.215312516191453" fill="none" id="id109" stroke="none" /><text fill="#e1ed5e" style="font-size:6.75px; font-family:Arial;" text-anchor="middle"><textPath startOffset="22.20632615414155" xlink:href="#id109">January</textPath></text><path d="M 100.0 79.0 l 0.0 -11.633205485750238 a32.63320548575024,32.63320548575024 0 0,0 0.561726988532757,0.0048349615338408695 l -0.2002465092602287 11.631481900824957" fill="#ff740a" stroke="none" /><path d="M 101.08401301168833 79.027996857942 l 0.6371243014293901 -12.326210762588518 a33.342665803594656,33.342665803594656 0 0,0 0.5729190102283157,0.034560039270923416 l -0.8492053604973178 12.31341745393729" fill="#ff7e0b" stroke="none" /><path d="M 101.44485096284872 79.0497635885617 l 0.6913871587942731 -10.025064730561608 a31.048877502253468,31.048877502253468 0 0,0 0.532872383861859,0.04136115273657254 l -0.8638497320184733 10.011678315636571" fill="#ff5d08" stroke="none" /><path d="M 101.80526077348638 79.07773832637324 l 0.6877150095740336 -7.9703462228346345 a28.999960677793844,28.999960677793844 0 0,0 0.4969693887289988,0.04719323167832609 l -0.8248095253932767 7.957327446641131" fill="#ff3f05" stroke="none" /><path d="M 102.16513564639614 79.11191278185805 l 0.9907891559528725 -9.558611414846371 a30.609823897012117,30.609823897012117 0 0,0 0.5236222830243071,0.05883506457312914 l -1.155178142486905 9.540140396802641" fill="#ff5708" stroke="none" /><path d="M 102.88285421437855 79.19881850522331 l 0.8418825142660736 -6.074587778037365 a27.132648925293857,27.132648925293857 0 0,0 0.4620703285154371,0.06809715512794973 l -0.9463218232101664 6.0591961387484465" fill="#ff2403" stroke="none" /><path d="M 103.2404852339499 79.25152402106235 l 1.482292486054356 -9.490958242438955 a30.606012667799952,30.606012667799952 0 0,0 0.5198224207213262,0.08577515342939118 l -1.6454441129145574 9.46403682606994" fill="#ff5708" stroke="none" /><path d="M 103.95276090670814 79.375362276772 l 1.3732353522966052 -7.165240275924992 a28.29564551938585,28.29564551938585 0 0,0 0.47756796370863686,0.09579564079380952 l -1.4963697254723674 7.1405406790539745" fill="#ff3505" stroke="none" /><path d="M 104.307194497241 79.44645832069477 l 1.632190145898551 -7.788663412754181 a28.957846594999424,28.957846594999424 0 0,0 0.4869844865652397,0.10643594673068628 l -1.7660173566173187 7.759413967927624" fill="#ff3f05" stroke="none" /><path d="M 106.0581310904928 79.89281104454417 l 4.702444632646687 -15.607609239354497 a37.30062734042747,37.30062734042747 0 0,0 0.6131772459515268,0.19051715511102932 l -4.970407251308932 15.524351949360947" fill="#ffb510" stroke="none" /><path d="M 106.40334571778207 80.00007090966166 l 2.3316869555824726 -7.282688742389009 a28.646850291286803,28.646850291286803 0 0,0 0.4683312282689793,0.15440144267495085 l -2.4567010060938697 7.241473575454822" fill="#ff3a05" stroke="none" /><path d="M 107.08798089147638 80.2323363322302 l 2.5031612664274063 -6.981064252081942 a28.416270923950854,28.416270923950854 0 0,0 0.45901434919233186,0.1690588585889795 l -2.6229579413923143 6.936942125686638" fill="#ff3705" stroke="none" /><line stroke="#e1ed5e" stroke-width="0.3" x1="143.23703022742887" x2="145.7803849466894" y1="26.81831364943548" y2="22.513508569990506" /><path d="M 143.74570117128098 25.957352633546492 a86.0,86.0 0 0,1 28.547481713284135,27.462654790039103" fill="none" id="id110" stroke="none" /><text fill="#e1ed5e" style="font-size:6.75px; font-family:Arial;" text-anchor="middle"><textPath startOffset="19.985693538727396" xlink:href="#id110">February</textPath></text><path d="M 112.19680574252982 82.90503203632743 l 4.607974031776756 -6.458508081011703 a28.933835850962787,28.933835850962787 0 0,0 0.4029445624030823,0.29275636101434754 l -4.718463910533627 6.378232485180681" fill="#ff3e05" stroke="none" /><path d="M 113.06298171725822 83.55741782278167 l 8.898183788250272 -11.200284998715107 a35.30468660201693,35.30468660201693 0 0,0 0.4725727342177477,0.3821209525066296 l -9.089659921032512 11.045457948944348" fill="#ff990e" stroke="none" /><path d="M 113.6212207817346 84.01681056812373 l 5.238576105148876 -6.146964033809052 a29.07637582349774,29.07637582349774 0 0,0 0.3781399309654539,0.32791922188048567 l -5.343609834761095 6.055879818508895" fill="#ff4106" stroke="none" /><path d="M 113.89432698308785 84.25364557470407 l 6.522477088666436 -7.391882751429902 a30.858125480184633,30.858125480184633 0 0,0 0.3952617475025657,0.35486989957076137 l -6.648749823764992 7.2785138430898435" fill="#ff5b08" stroke="none" /><path d="M 114.94478906791727 85.2469230424477 l 8.74183502919234 -8.629694561080504 a33.283782312266716,33.283782312266716 0 0,0 0.39898654510113796,0.41119070663418056 l -8.889085837996586 8.47793965889621" fill="#ff7d0b" stroke="none" /><path d="M 115.19652480421416 85.50635884689758 l 4.833761900673187 -4.6101862965713964 a27.67975087870007,27.67975087870007 0 0,0 0.32587328271102145,0.34761889713855926 l -4.912402505354671 4.526297982554783" fill="#ff2c04" stroke="none" /><path d="M 116.60985879189232 87.15038557335679 l 22.589422024524453 -17.475486503084955 a49.56001778573632,49.56001778573632 0 0,0 0.516188966317209,0.6792441726829362 l -22.886886931065774 17.08405755452099" fill="#aeff20" stroke="none" /><path d="M 117.04232023915458 87.72973835380427 l 8.31759171217376 -5.988564065362503 a31.249157597352706,31.249157597352706 0 0,0 0.31053832534891074,0.4392344385568539 l -8.419442657326554 5.844503126473856" fill="#ff6008" stroke="none" /><path d="M 117.65298651832404 88.62581576622439 l 6.436252763017845 -4.1470107409713535 a28.656568925777826,28.656568925777826 0 0,0 0.26360277632075974,0.41695628779578087 l -6.50668313558456 4.035606805461366" fill="#ff3a05" stroke="none" /><line stroke="#e1ed5e" stroke-width="0.3" x1="172.23445277983987" x2="176.4835382374775" y1="55.19839476539836" y2="52.563006222186495" /><path d="M 173.08426987136738 54.67131705675599 a86.0,86.0 0 0,1 12.851231095245387,41.99856678651699" fill="none" id="id111" stroke="none" /><text fill="#e1ed5e" style="font-size:6.75px; font-family:Arial;" text-anchor="middle"><textPath startOffset="22.20632615414155" xlink:href="#id111">March</textPath></text><path d="M 118.56541770881063 90.18545643968196 l 6.917513655768632 -3.6569195570222153 a28.82464413403428,28.82464413403428 0 0,0 0.22811352131395637,0.4406427161030164 l -6.979436610242705 3.537304118658854" fill="#ff3d05" stroke="none" /><path d="M 119.04729006885535 91.15688171328212 l 7.304643404062574 -3.391339420511108 a29.053508448224754,29.053508448224754 0 0,0 0.20669175458336203,0.4554178831941325 l -7.361937475609283 3.265099528474913" fill="#ff4006" stroke="none" /><path d="M 119.47837535516314 92.15188598940014 l 7.3785831229207774 -2.9729359112088627 a28.954988173090303,28.954988173090303 0 0,0 0.1822874380753151,0.4639016468603346 l -7.428664110877793 2.8454852594527438" fill="#ff3f05" stroke="none" /><path d="M 119.7369772167798 92.82701384747503 l 8.177542568474621 -2.971954568376514 a29.70084572991089,29.70084572991089 0 0,0 0.1704926404801848,0.482005653423361 l -8.227488289764615 2.830751288526539" fill="#ff4a06" stroke="none" /><path d="M 119.97218684219823 93.5106431181261 l 11.496261921837984 -3.7353619314575264 a33.087885130761464,33.087885130761464 0 0,0 0.17133933627037234,0.5431925186729417 l -11.558856741876562 3.5369192463581656" fill="#ff7a0b" stroke="none" /><path d="M 120.08093135843002 93.85539295169968 l 8.879289507325224 -2.7169927488301138 a30.285678852517528,30.285678852517528 0 0,0 0.14824710419083947,0.49981553774831666 l -8.924742508627764 2.563747824335267" fill="#ff5207" stroke="none" /><path d="M 120.18372546131832 94.20196356495316 l 6.540989353361999 -1.8789838706798025 a27.805521442701497,27.805521442701497 0 0,0 0.12818772985496052,0.46115946766832805 l -6.572363853783322 1.7661130995925227" fill="#ff2e04" stroke="none" /><path d="M 120.28053869075195 94.5502522615342 l 7.502097625499879 -2.0159493883148767 a28.768237941694245,28.768237941694245 0 0,0 0.12439340622541765,0.4793385374504761 l -7.535687363595599 1.8865144253155504" fill="#ff3c05" stroke="none" /><path d="M 120.45610955862082 95.25157060432595 l 6.534221020196599 -1.5167736113857968 a27.707953974870087,27.707953974870087 0 0,0 0.10384626202435616,0.46552243044947705 l -6.559361669222993 1.404073011386356" fill="#ff2c04" stroke="none" /><path d="M 120.53481517161879 95.60439243477599 l 8.009088489101826 -1.7143962416521392 a29.190522138402066,29.190522138402066 0 0,0 0.10094458429998229,0.4922416427861444 l -8.037412369316806 1.576278942702583" fill="#ff4206" stroke="none" /><path d="M 120.6074358757038 95.95851677861258 l 9.355943688179858 -1.8348662911820488 a30.534170997150653,30.534170997150653 0 0,0 0.09671229904228788,0.5166409686568775 l -9.386141711132005 1.6735472450626085" fill="#ff5607" stroke="none" /><path d="M 120.67395015179393 96.31383870115 l 19.142048478880596 -3.413023527941383 a40.443938633160116,40.443938633160116 0 0,0 0.11630162699270834,0.6864187859685901 l -19.19796196739353 3.0830189536569548" fill="#ffde14" stroke="none" /><path d="M 120.73433829027371 96.67025291283417 l 7.723400213647642 -1.240308178847105 a28.82235739650698,28.82235739650698 0 0,0 0.07444966790222418,0.4905302912602015 l -7.743605774989166 1.1071787751948214" fill="#ff3d05" stroke="none" /><path d="M 120.78858239683441 97.02765380044208 l 9.435167396084147 -1.3490378235802134 a30.531122013780923,30.531122013780923 0 0,0 0.06990754760361714,0.5208924292249263 l -9.4569909427456 1.1864270522906228" fill="#ff5607" stroke="none" /><path d="M 120.83666639777658 97.38593545837742 l 4.741163785375596 -0.5948028298182053 a25.77832862475121,25.77832862475121 0 0,0 0.051445745372419166,0.4407557289636481 l -4.750699883751604 0.5131033625297045" fill="#ff0f01" stroke="none" /><path d="M 120.87857604477298 97.74499172005257 l 8.072305880239469 -0.8718562300021186 a29.119252152134592,29.119252152134592 0 0,0 0.04953444689800934,0.4988051203195408 l -8.086117452819707 0.7327755789781429" fill="#ff4106" stroke="none" /><path d="M 120.96714384426684 98.82574320788733 l 19.038888596442916 -1.0662656017768766 a40.068723117222525,40.068723117222525 0 0,0 0.03263958453460785,0.6889700423536814 l -19.05442178921102 0.7383844528001954" fill="#ffd914" stroke="none" /><path d="M 120.98425023603335 99.18683210126433 l 6.696068017284645 -0.2594816349481228 a27.70109376228819,27.70109376228819 0 0,0 0.014362760609362783,0.47663010120446997 l -6.699542472349653 0.14418138631865382" fill="#ff2c04" stroke="none" /><line stroke="#e1ed5e" stroke-width="0.3" x1="184.98032266829074" x2="189.97916517819016" y1="98.17113171792111" y2="98.06355123074" /><path d="M 185.9800911702706 98.14961562048488 a86.0,86.0 0 0,1 -9.607161424134198,41.387399972396054" fill="none" id="id112" stroke="none" /><text fill="#e1ed5e" style="font-size:6.75px; font-family:Arial;" text-anchor="middle"><textPath startOffset="21.466115282336823" xlink:href="#id112">April</textPath></text><path d="M 120.99980553446 99.90962569577887 l 9.52607920098174 -0.040996226290351774 a30.52616741580511,30.52616741580511 0 0,0 -0.0022614114947548955,0.5254723898848127 l -9.525373492197483 -0.12298564179814561" fill="#ff5607" stroke="none" /><path d="M 120.9764740272857 100.99374915477107 l 62.92942208185712 2.9812474643131925 a84.0,84.0 0 0,0 -0.0808545964498828,1.4437131346583068 l -62.86878113451971 -4.064032315306923" fill="#4dd2ff" stroke="none" /><path d="M 120.95626037817324 101.35467743843564 l 13.34175478556321 0.8624522634757757 a34.36960151481237,34.36960151481237 0 0,0 -0.04324586425508265,0.5900554587614838 l -13.32493236264379 -1.0919808587340298" fill="#ff8c0c" stroke="none" /><path d="M 120.92983693683757 101.71520430193887 l 7.86687414862054 0.6446919019601512 a28.89324625985324,28.89324625985324 0 0,0 -0.04488827733779024,0.49533839994269385 l -7.8546112750056745 -0.7800116904514156" fill="#ff3e05" stroke="none" /><path d="M 120.89721153311464 102.0752229133903 l 18.997005324112614 1.886520633239729 a40.09044712373186,40.09044712373186 0 0,0 -0.07410566138747834,0.6861263882644055 l -18.961717361224082 -2.213243343388926" fill="#ffda14" stroke="none" /><path d="M 120.8583938346157 102.4346265915055 l 11.412235841262175 1.33205524202727 a32.48971270591225,32.48971270591225 0 0,0 -0.0696184779414073,0.5549277674244745 l -11.38761585407392 -1.5283007637391393" fill="#ff720a" stroke="none" /><path d="M 120.76222939487914 103.15116336523771 l 6.830958232286555 1.0367607891067516 a27.90918687727237,27.90918687727237 0 0,0 -0.07617645852420016,0.4743508799463024 l -6.812100019401067 -1.1541908987462588" fill="#ff2f04" stroke="none" /><path d="M 120.70491114924044 103.5080841355445 l 12.409907559408111 2.102641229365065 a33.58677503463379,33.58677503463379 0 0,0 -0.10148573172861106,0.5691858789603726 l -12.371875385340312 -2.315945859058656" fill="#ff810b" stroke="none" /><path d="M 120.64145759157962 103.86396538481128 l 18.756265818631633 3.511068031410541 a40.0820624194651,40.0820624194651 0 0,0 -0.1327862747140858,0.6770743540052876 l -18.69304961094188 -3.8334061124837735" fill="#ffda14" stroke="none" /><path d="M 120.5718875245553 104.21870165774334 l 7.562269710586157 1.5508037231037552 a28.719644769239146,28.719644769239146 0 0,0 -0.10348092995033333,0.4834284541525117 l -7.5344547419113805 -1.6807459966724358" fill="#ff3b05" stroke="none" /><path d="M 120.49622156327973 104.57218783832717 l 7.533896771923088 1.6806215277020577 a28.71907308485732,28.71907308485732 0 0,0 -0.11178479909311094,0.4815659888131191 l -7.5038514068994235 -1.8100561738637417" fill="#ff3b05" stroke="none" /><path d="M 120.41448212921028 104.9243191809786 l 10.372235517903219 2.5019590498137303 a31.66972674091506,31.66972674091506 0 0,0 -0.13239255653426185,0.5288424524728929 l -10.327631647073897 -2.6801293416840193" fill="#ff6609" stroke="none" /><path d="M 120.02730092923936 106.31721596034902 l 16.150775557148794 5.094442705091476 a37.93519700425285,37.93519700425285 0 0,0 -0.2017931173619189,0.6210553552200561 l -16.06069018877063 -5.371696960289327" fill="#ffbd11" stroke="none" /><path d="M 119.79798401119884 107.00284435728193 l 17.98317978902419 6.360920841249265 a40.07501164542259,40.07501164542259 0 0,0 -0.23563293705441424,0.648360642454156 l -17.871022590964554 -6.669529280709552" fill="#ffda14" stroke="none" /><path d="M 119.26925614724726 108.34839909993367 l 20.996542751453156 9.096745472086697 a43.88242962837491,43.88242962837491 0 0,0 -0.3062552993186132,0.6905248509256694 l -20.83684636740327 -9.456818659505055" fill="#f4ff19" stroke="none" /><path d="M 119.12269723197855 108.67885076344098 l 8.676307417368262 3.9377487568621725 a30.528073030411193,30.528073030411193 0 0,0 -0.22129274353314068,0.4766448824437223 l -8.607240056995291 -4.086513706584726" fill="#ff5607" stroke="none" /><path d="M 118.97047184881838 109.00673069616215 l 7.749958947318556 3.6794969414088854 a29.579076956582234,29.579076956582234 0 0,0 -0.22233147475901208,0.45806869041112247 l -7.68547421594483 -3.812354587785283" fill="#ff4806" stroke="none" /><path d="M 118.81262510543309 109.33194174019688 l 7.332782307234433 3.637402909012195 a29.185376978965643,29.185376978965643 0 0,0 -0.227119672794846,0.44812866127317214 l -7.269083964653318 -3.7630857819880617" fill="#ff4206" stroke="none" /><line stroke="#e1ed5e" stroke-width="0.3" x1="174.80103733775053" x2="179.2010983576182" y1="140.37084112569926" y2="142.7455964860345" /><path d="M 175.68104954172406 140.8457921977663 a86.0,86.0 0 0,1 -30.038265399797805,32.042727171017184" fill="none" id="id113" stroke="none" /><text fill="#e1ed5e" style="font-size:6.75px; font-family:Arial;" text-anchor="middle"><textPath startOffset="22.206326154141568" xlink:href="#id113">May</textPath></text><path d="M 118.30583269289576 110.29060199501025 l 10.14538991039324 5.703218826673015 a32.63854120664727,32.63854120664727 0 0,0 -0.27952268973875316,0.48737137059715163 l -10.045715224502107 -5.8770100431284815" fill="#ff740a" stroke="none" /><path d="M 118.12598468904814 110.60418214915192 l 16.088112187045038 9.41197264557413 a39.63900702355098,39.63900702355098 0 0,0 -0.34961438900447306,0.5859738257535799 l -15.923716922342338 -9.687508565213815" fill="#ffd413" stroke="none" /><path d="M 117.94076556474637 110.91462005526583 l 10.266223524173231 6.2456604075449915 a33.016805705954596,33.016805705954596 0 0,0 -0.2995651891522342,0.4829944685461534 l -10.157193695353035 -6.4214512074564185" fill="#ff790b" stroke="none" /><path d="M 117.75023020441432 111.22182372390056 l 3.186807441524892 2.014722679028309 a24.770258498133707,24.770258498133707 0 0,0 -0.23094743556323188,0.3584355486640431 l -3.1516551425846098 -2.0692798276138054" fill="#ff0000" stroke="none" /><path d="M 117.55443506779139 111.5257021239791 l 6.901622982442297 4.5313933692795425 a29.256265842311905,29.256265842311905 0 0,0 -0.2800199324563375,0.41859180541887064 l -6.822599944575239 -4.64952208890422" fill="#ff4306" stroke="none" /><path d="M 117.35343817320211 111.8261652097733 l 6.464510292311836 4.405488177853853 a28.8229290808888,28.8229290808888 0 0,0 -0.2829301168411667,0.40758193523494224 l -6.387719268308533 -4.516111375275814" fill="#ff3d05" stroke="none" /><path d="M 116.93607887273984 112.41649034213515 l 7.78455547583703 5.707156810607662 a30.65250966418836,30.65250966418836 0 0,0 -0.31563142201907335,0.42283986954436287 l -7.685162787122865 -5.84030955966134" fill="#ff5808" stroke="none" /><path d="M 116.71984013943494 112.70617746262583 l 7.606419188786798 5.780468668470999 a30.55360826613269,30.55360826613269 0 0,0 -0.32182142180277257,0.4159975696443125 l -7.505790949765957 -5.910544232228565" fill="#ff5608" stroke="none" /><path d="M 116.498646956653 112.99209946851258 l 6.747786011427405 5.313642220664095 a29.588795591073257,29.588795591073257 0 0,0 -0.3185474612862845,0.3974369368659214 l -6.655320638086266 -5.429006991108267" fill="#ff4806" stroke="none" /><path d="M 116.27256486870786 113.27417163493432 l 6.122847734868251 4.99464788636383 a28.90163096412,28.90163096412 0 0,0 -0.3177858190102826,0.38279349065343155 l -6.035965915964425 -5.099302634131032" fill="#ff3e05" stroke="none" /><path d="M 116.0416608686014 113.55231037782055 l 7.296873591451798 6.1645422197295625 a30.552274335908436,30.552274335908436 0 0,0 -0.3428510617573945,0.39881324134152485 l -7.189680020123625 -6.289232560232616" fill="#ff5608" stroke="none" /><path d="M 115.80600337817218 113.82643327865902 l 6.755232700695882 5.9091961442303695 a29.975063671726126,29.975063671726126 0 0,0 -0.34305910879652196,0.38543054547753514 l -6.652514742251022 -6.024600859448771" fill="#ff4e07" stroke="none" /><path d="M 115.56566222782051 114.09645910891815 l 7.776569103770272 7.042558599469437 a31.49155177524637,31.49155177524637 0 0,0 -0.3673318440540618,0.3986661678003831 l -7.654190851720489 -7.175376022071155" fill="#ff6409" stroke="none" /><path d="M 115.32070863581623 114.36230785411682 l 8.343618569565628 7.821675965645896 a32.436546058402556,32.436546058402556 0 0,0 -0.385366939879329,0.40405569578675415 l -8.207745078307335 -7.964138778015157" fill="#ff710a" stroke="none" /><path d="M 115.07121518719521 114.62390073753431 l 6.82741064399331 6.624772741415853 a30.513209236483746,30.513209236483746 0 0,0 -0.3690055021546224,0.3738006254877347 l -6.712364516783151 -6.741313860884253" fill="#ff5607" stroke="none" /><path d="M 114.81725581225074 114.88116024355365 l 13.364357821114169 13.421996138027131 a39.940856377154404,39.940856377154404 0 0,0 -0.4913677212947335,0.48090673448322974 l -13.131340147443641 -13.650052975432933" fill="#ffd814" stroke="none" /><path d="M 114.0293411484842 115.62618273729858 l 5.767399247885191 6.4238536658686645 a29.633005849934364,29.633005849934364 0 0,0 -0.38248823057088244,0.33750139233479465 l -5.6559686644077205 -6.522178199975748" fill="#ff4906" stroke="none" /><path d="M 112.63410532772338 116.77436683061366 l 4.479004001277943 5.946796722388987 a28.444855143042087,28.444855143042087 0 0,0 -0.3936429723254681,0.29120766025202205 l -4.37597605853391 -6.023014331380778" fill="#ff3705" stroke="none" /><path d="M 112.34349029814194 116.9893568818739 l 5.613341869904447 7.726102263160329 a30.549987598381136,30.549987598381136 0 0,0 -0.42809649927424065,0.30543548556514566 l -5.479518042781322 -7.821582010569694" fill="#ff5608" stroke="none" /><path d="M 112.04921762599082 117.19931262002967 l 6.790491231107133 9.692893360599237 a32.83481951107374,32.83481951107374 0 0,0 -0.4656964255249304,0.3203102479227701 l -6.62263792095932 -9.808344397887103" fill="#ff770a" stroke="none" /><path d="M 111.7513745106137 117.40417183066458 l 5.353561133303947 7.928799970236277 a30.566947568375266,30.566947568375266 0 0,0 -0.438599746887638,0.2906799961239263 l -5.2162866876763445 -8.019777987451521" fill="#ff5608" stroke="none" /><path d="M 111.45004920935366 117.60387380957326 l 9.734249281099789 14.96591786133318 a38.853131560002666,38.853131560002666 0 0,0 -0.5637741063713118,0.3598273087348008 l -9.475193372681547 -15.13125959889179" fill="#ffc912" stroke="none" /><line stroke="#e1ed5e" stroke-width="0.3" x1="143.8653032363475" x2="146.44561519142675" y1="172.8068346515853" y2="177.08958963109032" /><path d="M 144.38136562736335 173.6633856474863 a86.0,86.0 0 0,1 -40.68145358897372,12.25698825130547" fill="none" id="id114" stroke="none" /><text fill="#e1ed5e" style="font-size:6.75px; font-family:Arial;" text-anchor="middle"><textPath startOffset="21.466115282336833" xlink:href="#id114">June</textPath></text><path d="M 110.5260780823613 118.17145234162733 l 9.591567952974943 16.558182313983504 a40.13561018989601,40.13561018989601 0 0,0 -0.6007942168363761,0.3411466360855852 l -9.305124969217369 -16.72083211586372" fill="#ffda14" stroke="none" /><path d="M 109.89434966115114 118.52300852407294 l 7.202629967458202 13.483895440526563 a36.28703093145232,36.28703093145232 0 0,0 -0.5534793394117443,0.2895542313311667 l -6.969459725519963 -13.605879090802448" fill="#ffa70f" stroke="none" /><path d="M 109.57404056367764 118.69057910512821 l 3.487640283981419 6.808621311391948 a28.649899274656537,28.649899274656537 0 0,0 -0.4408620474232274,0.22105738272398184 l -3.3699243288754315 -6.867646535025233" fill="#ff3a05" stroke="none" /><path d="M 109.2508944713604 118.85261126421891 l 5.047415307948712 10.28624410152108 a32.457888941990674,32.457888941990674 0 0,0 -0.5036959442690518,0.24180466280126955 l -4.869606695679427 -10.371603040821908" fill="#ff710a" stroke="none" /><path d="M 108.92500713936063 119.00905698771935 l 4.069762437250933 8.668043048952079 a30.575903957023854,30.575903957023854 0 0,0 -0.4783410956297113,0.219582935854416 l -3.919953345853802 -8.73681305514057" fill="#ff5608" stroke="none" /><path d="M 108.59647513512805 119.15986991738527 l 3.12856756858197 6.972968187488162 a28.642657939153423,28.642657939153423 0 0,0 -0.4515710412620785,0.19795547403967476 l -3.0080758526621376 -7.025788214822292" fill="#ff3a05" stroke="none" /><path d="M 107.2578585660854 119.70592522655815 l 2.8541915960439725 7.749460210857924 a29.258362018378595,29.258362018378595 0 0,0 -0.4740975372794356,0.1699945092859718 l -2.7203744981348024 -7.797442261183855" fill="#ff4306" stroke="none" /><path d="M 106.91757812671514 119.82793768551818 l 2.9661290764442785 8.501851575454221 a30.004410136659793,30.004410136659793 0 0,0 -0.4891151302449391,0.16593440824549277 l -2.8193442132621125 -8.551648970597839" fill="#ff4e07" stroke="none" /><path d="M 101.98527174616119 120.90594882070398 l 1.000808705811569 10.539038609434204 a31.586451382629264,31.586451382629264 0 0,0 -0.5417161879921174,0.04674155212280239 l -0.81924820007791 -10.554704413835669" fill="#ff6509" stroke="none" /><path d="M 101.62511606390274 120.93702456842531 l 0.790123111062648 10.17947416547686 a31.210092497928024,31.210092497928024 0 0,0 -0.5359772187755705,0.036964127058254234 l -0.6147831315081471 -10.191566637051398" fill="#ff6008" stroke="none" /><path d="M 101.26447882468166 120.96189622390904 l 0.6990161886462294 11.587940042351878 a32.609004180252995,32.609004180252995 0 0,0 -0.5605828374393358,0.028975729490270816 l -0.499445282793414 -11.59825557860435" fill="#ff740a" stroke="none" /><line stroke="#e1ed5e" stroke-width="0.3" x1="102.19456741930631" x2="102.32365962044197" y1="184.97166512339345" y2="189.96999836594603" /><path d="M 102.22038585953345 185.97133177190398 a86.0,86.0 0 0,1 -42.740103519485714,-10.115201625700543" fill="none" id="id115" stroke="none" /><text fill="#e1ed5e" style="font-size:6.75px; font-family:Arial;" text-anchor="middle"><textPath startOffset="22.20632615414155" xlink:href="#id115">July</textPath></text><path d="M 100.54218724476979 120.99299961872073 l 0.147678710404143 5.717986066831311 a26.719892801616446,26.719892801616446 0 0,0 -0.4598879209643294,0.00791738762173698 l -0.04923109954714563 -5.719680931732207" fill="#ff1e03" stroke="none" /><path d="M 100.18074693466247 120.99922214144158 l 0.08198677282326651 9.525242894939291 a30.52559573142328,30.52559573142328 0 0,0 -0.5254674149714373,0.0 l 0.08198677282325995 -9.525242894939291" fill="#ff5607" stroke="none" /><path d="M 99.81925306533755 120.99922214144158 l -0.08231972568866741 9.563925438554087 a30.56427970792675,30.56427970792675 0 0,0 -0.5260553683733468,-0.009056520234699694 l 0.24693478395468207 -9.561091441040226" fill="#ff5608" stroke="none" /><path d="M 99.09653310690486 120.98055641714683 l -0.37459216047461835 8.698882068975893 a29.706943696650356,29.706943696650356 0 0,0 -0.5106933869266417,-0.02639701475637543 l 0.524273615814749 -8.691145247457316" fill="#ff4a06" stroke="none" /><path d="M 98.73552117531835 120.96189622390904 l -0.5168382499210729 8.567885478129607 a29.583459870176227,29.583459870176227 0 0,0 -0.5080427282946508,-0.035037601043206024 l 0.6642437389946537 -8.557719532570117" fill="#ff4806" stroke="none" /><path d="M 98.37488393609728 120.93702456842531 l -0.29487862275907667 3.7990400233836996 a24.810466966322043,24.810466966322043 0 0,0 -0.4255062217812694,-0.036714467252094235 l 0.3602291622818877 -3.793401303852942" fill="#ff0100" stroke="none" /><path d="M 98.01472825383883 120.90594882070398 l -0.5423073850856004 5.710780128519959 a26.73647164868936,26.73647164868936 0 0,0 -0.4577887469832097,-0.04745167541006192 l 0.6405287286744035 -5.700599084654137" fill="#ff1e03" stroke="none" /><path d="M 97.65516085044442 120.86867818915974 l -1.0795982671322424 9.608244904400946 a30.66870738834006,30.66870738834006 0 0,0 -0.5241027643874521,-0.0634615459160625 l 1.2448284545710837 -9.588237829759533" fill="#ff5808" stroke="none" /><path d="M 96.93821686468263 120.77559828337769 l -1.2705211794991653 8.621067028335387 a29.714185032153466,29.714185032153466 0 0,0 -0.5053733921707533,-0.07892893032832451 l 1.4187304352784358 -8.597919790659958" fill="#ff4a06" stroke="none" /><path d="M 95.51606077576429 120.51570834832081 l -1.8392991151809532 8.415485207386773 a29.614140265334147,29.614140265334147 0 0,0 -0.4970660826944662,-0.11313062211303122 l 1.9838853472682823 -8.382577851696055" fill="#ff4806" stroke="none" /><path d="M 95.16358092515715 120.4354850818985 l -2.1972219252939253 9.283996109750536 a30.540459525350727,30.540459525350727 0 0,0 -0.5105299047051095,-0.12547582944564567 l 2.3567051147422453 -9.24479902199086" fill="#ff5608" stroke="none" /><path d="M 94.11515582081647 120.15858648285463 l -4.2802103192048335 14.66189881283626 a36.27388219067035,36.27388219067035 0 0,0 -0.5978713523998708,-0.18013373406459293 l 4.53195664604495 -14.586049709665941" fill="#ffa70f" stroke="none" /><path d="M 93.76903079525671 120.05430185196036 l -4.663303777604519 15.00878892360389 a36.71655646366326,36.71655646366326 0 0,0 -0.6019393653429774,-0.19272197616417866 l 4.920964488038437 -14.926294100780005" fill="#ffad10" stroke="none" /><path d="M 93.42475214034765 119.94407469862007 l -2.452457148855337 7.438805291595764 a28.832647715379824,28.832647715379824 0 0,0 -0.47001371393013625,-0.1594541707372795 l 2.580140595722699 -7.395488133960361" fill="#ff3d05" stroke="none" /><path d="M 93.08242187328487 119.8279376855182 l -3.264173198491115 9.356139040117235 a30.909195951627638,30.909195951627638 0 0,0 -0.5008473704286537,-0.17958604773980333 l 3.4247401295494955 -9.298565451337474" fill="#ff5b08" stroke="none" /><path d="M 92.7421414339146 119.70592522655815 l -1.4015090376310249 3.80525909239349 a25.055147881743004,25.055147881743004 0 0,0 -0.4034234105748679,-0.1525402143103774 l 1.4668026689661757 -3.7805706279764797" fill="#ff0400" stroke="none" /><path d="M 91.7346041902142 119.30500536409082 l -3.2324102384226823 7.549753021847016 a29.212627267832623,29.212627267832623 0 0,0 -0.460556996538516,-0.20189465275997875 l 3.361887909618942 -7.492993815792585" fill="#ff4306" stroke="none" /><line stroke="#e1ed5e" stroke-width="0.3" x1="58.666819895761336" x2="56.23545636021788" y1="174.27360380694188" y2="178.64263932499728" /><path d="M 58.180547188652646 175.14741091055294 a86.0,86.0 0 0,1 -31.652253787137756,-30.449443065178592" fill="none" id="id116" stroke="none" /><text fill="#e1ed5e" style="font-size:6.75px; font-family:Arial;" text-anchor="middle"><textPath startOffset="22.20632615414155" xlink:href="#id116">August</textPath></text><path d="M 87.95078237400918 117.19931262002967 l -4.796587389379901 6.846752094616022 a29.35974071542217,29.35974071542217 0 0,0 -0.4114175882852912,-0.2935355254270853 l 4.913732305514079 -6.763172307344718" fill="#ff4506" stroke="none" /><path d="M 87.36589467227662 116.77436683061367 l -5.303540624017547 7.0415382506837965 a29.815373167736432,29.815373167736432 0 0,0 -0.40729400052712994,-0.31229567169704636 l 5.423963353038164 -6.9492032371593835" fill="#ff4b07" stroke="none" /><path d="M 87.07902340077011 116.55440617244103 l -5.865407841239391 7.514783656266715 a30.532837066926398,30.532837066926398 0 0,0 -0.4115281313273921,-0.32694283645518124 l 5.993893465284141 -7.412706905806403" fill="#ff5607" stroke="none" /><path d="M 85.18274418774928 114.88116024355367 l -5.4643342406567665 5.487901031736233 a28.744417759118214,28.744417759118214 0 0,0 -0.34761496986896623,-0.3521321292154363 l 5.557989835581266 -5.393028408540132" fill="#ff3c05" stroke="none" /><line stroke="#e1ed5e" stroke-width="0.3" x1="26.63291911575756" x2="22.317208475507996" y1="142.92168965132927" y2="145.44649492493687" /><path d="M 25.769776987707644 143.4266507060508 a86.0,86.0 0 0,1 -11.730757126820373,-40.83630448921669" fill="none" id="id117" stroke="none" /><text fill="#e1ed5e" style="font-size:6.75px; font-family:Arial;" text-anchor="middle"><textPath startOffset="21.46611528233685" xlink:href="#id117">September</textPath></text><line stroke="#e1ed5e" stroke-width="0.3" x1="15.007084014347285" x2="10.007500721073583" y1="101.09737516637583" y2="101.16192664675087" /><path d="M 14.007167355692545 101.11028546245083 a86.0,86.0 0 0,1 10.666146001902534,-42.60595125391555" fill="none" id="id118" stroke="none" /><text fill="#e1ed5e" style="font-size:6.75px; font-family:Arial;" text-anchor="middle"><textPath startOffset="22.20632615414155" xlink:href="#id118">October</textPath></text><line stroke="#e1ed5e" stroke-width="0.3" x1="26.266209847984243" x2="21.928928074336255" y1="57.711370442889674" y2="55.22380399835377" /><path d="M 25.398753493254645 57.213857153982495 a86.0,86.0 0 0,1 29.58750427330803,-30.492523968695096" fill="none" id="id119" stroke="none" /><text fill="#e1ed5e" style="font-size:6.75px; font-family:Arial;" text-anchor="middle"><textPath startOffset="21.46611528233685" xlink:href="#id119">November</textPath></text><line stroke="#e1ed5e" stroke-width="0.3" x1="56.762969772571076" x2="54.21961505331055" y1="26.818313649435495" y2="22.513508569990535" /><path d="M 56.25429882871897 25.957352633546506 a86.0,86.0 0 0,1 42.265352541879196,-11.944610805530505" fill="none" id="id120" stroke="none" /><text fill="#e1ed5e" style="font-size:6.75px; font-family:Arial;" text-anchor="middle"><textPath startOffset="22.20632615414155" xlink:href="#id120">December</textPath></text></svg>