<?xml version="1.0" encoding="utf-8" ?>
<svg baseProfile="full" height="200mm" version="1.1" viewBox="0,0,200,200" width="200mm" xmlns="http://www.w3.org/2000/svg" xmlns:ev="http://www.w3.org/2001/xml-events" xmlns:xlink="http://www.w3.org/1999/xlink"><defs /><rect fill="#1a1a1a" height="200" width="200" x="0" y="0" /><text alignment-baseline="middle" fill="#e1ed5e" style="dominant-baseline: central; font-size:9.0px; font-family:Arial;" text-anchor="middle" x="100.0" y="100.0">2026</text><line stroke="#e1ed5e" stroke-width="0.3" x1="100.0" x2="100.0" y1="15.0" y2="10.0" /><path d="M 100.0 14.0 a86.0,86.0 0 0,1 42.46469731375804,11.215312516191453" fill="none" id="id121" stroke="none" /><text fill="#e1ed5e" style="font-size:6.75px; font-family:Arial;" text-anchor="middle"><textPath startOffset="22.20632615414155" xlink:href="#id121">January</textPath></text><path d="M 100.0 79.0 l 0.0 -62.34520509977827 a83.34520509977827,83.34520509977827 0 0,0 1.4346506992635726,0.012348491503951975 l -1.0731702199910442 62.33596798488288" fill="red" stroke="none" /><path d="M 100.36148047927253 79.00311137660856 l 0.860713131207333 -49.99522460803688 a71.00263303769401,71.00263303769401 0 0,0 1.2218314481359775,0.031556301551455265 l -1.7211712145381783 49.97300151434306" fill="red" stroke="none" /><path d="M 101.44485096284872 79.0497635885617 l 4.2895872226925285 -62.198710270924394 a83.34645232815964,83.34645232815964 0 0,0 1.430422814329175,0.11102834054294794 l -5.359600226384045 62.11565666819298" fill="red" stroke="none" /><path d="M 101.80526077348638 79.07773832637324 l 4.839272549768822 -56.08526373767485 a77.29365299334812,77.29365299334812 0 0,0 1.3245735022719962,0.1257842144514494 l -5.803971179131063 55.993653978708224" fill="red" stroke="none" /><path d="M 102.16513564639614 79.11191278185805 l 6.433040128024585 -62.06257954121715 a83.39509423503326,83.39509423503326 0 0,0 1.4265854577699097,0.16029349828697673 l -7.500392289304219 61.94265008945957" fill="red" stroke="none" /><path d="M 102.52436894288641 79.15227682838746 l 6.017165613347505 -49.69329199612951 a71.05626385809313,71.05626385809313 0 0,0 1.2129820971612686,0.15747988903081922 l -6.871662439016619 49.58235378393455" fill="red" stroke="none" /><path d="M 102.88285421437855 79.19881850522331 l 6.86618346363294 -49.54282033795144 a71.01635254988913,71.01635254988913 0 0,0 1.2094119318407086,0.17823588067373308 l -7.717964375902305 49.41728997311674" fill="red" stroke="none" /><path d="M 103.59715602781102 79.31037775812273 l 9.614943401467098 -55.30189552951892 a77.1315133037694,77.1315133037694 0 0,0 1.306111545120805,0.23868353641593149 l -10.565450067690804 55.12819651175225" fill="red" stroke="none" /><path d="M 103.95276090670814 79.375362276772 l 11.734798068738867 -61.229597396654796 a83.34395787139691,83.34395787139691 0 0,0 1.4066618208371355,0.28216312807257776 l -12.787026299043129 61.01853031250501" fill="red" stroke="none" /><path d="M 104.307194497241 79.44645832069477 l 11.562709332948211 -55.17620073871135 a77.37472283813747,77.37472283813747 0 0,0 1.3012117303282114,0.2843944853179708 l -12.51076378742995 54.96899275529751" fill="red" stroke="none" /><path d="M 104.66035177308747 79.52364482259891 l 13.847920863913892 -60.84410788805951 a83.40008314855876,83.40008314855876 0 0,0 1.3970558931913797,0.33063799285280815 l -14.893200444067794 60.596723983065836" fill="red" stroke="none" /><path d="M 105.36241919743992 79.69619591428918 l 12.756553207213665 -48.300318865758335 a70.95648558758316,70.95648558758316 0 0,0 1.1782226808408376,0.32205276629341867 l -13.586073777278212 48.07357955863862" fill="red" stroke="none" /><path d="M 105.71112130821622 79.79150937346287 l 16.999043127329976 -60.15018507916146 a83.50609756097562,83.50609756097562 0 0,0 1.3798777492095429,0.4028241537335528 l -18.031911094262945 59.8486625965092" fill="red" stroke="none" /><path d="M 106.0581310904928 79.89281104454417 l 14.412647910904518 -47.83617762048785 a70.96022727272728,70.96022727272728 0 0,0 1.1665004004912989,0.3624373526656387 l -15.233933684106535 47.58100013293969" fill="red" stroke="none" /><path d="M 106.74666289553966 80.11325718540242 l 12.04454030588928 -35.502985563667366 a58.490437915742795,58.490437915742795 0 0,0 0.9506590024220402,0.33166625926621995 l -12.653881312374594 35.290398451228945" fill="red" stroke="none" /><path d="M 107.08798089147638 80.2323363322302 l 21.06945539387034 -58.760585597791305 a83.42378048780489,83.42378048780489 0 0,0 1.3475628948729663,0.4963187867328016 l -22.077800614515883 58.38920354325218" fill="red" stroke="none" /><path d="M 107.4271985657038 80.35727306442388 l 22.28159569711141 -58.92818080672834 a84.0,84.0 0 0,0 1.3480673400013319,0.5230291844378128 l -23.292646202112408 58.53590891839998" fill="red" stroke="none" /><path d="M 107.76421540070413 80.48803036053334 l 18.459071655657265 -46.38882709066265 a70.92655210643017,70.92655210643017 0 0,0 1.1304886221191386,0.4611546938412458 l -19.254844147364793 46.064211510637826" fill="red" stroke="none" /><path d="M 108.09893153111575 80.62456947434976 l 21.652680721799303 -51.800661532634564 a77.14398558758316,77.14398558758316 0 0,0 1.220771399978272,0.5226706040110949 l -22.541135879567893 51.42027140066068" fill="red" stroke="none" /><path d="M 108.43124777332544 80.76684994638697 l 20.04340877155312 -45.722519234793836 a70.92281042128603,70.92281042128603 0 0,0 1.1138862421681295,0.49976828785621996 l -20.827477132188033 45.370730616421085" fill="red" stroke="none" /><path d="M 109.08828744355905 81.06846463323043 l 27.018727209858575 -56.28188951055298 a83.43126385809313,83.43126385809313 0 0,0 1.2893258262659675,0.6326665834681248 l -27.983524303134974 55.808467766950024" fill="red" stroke="none" /><path d="M 109.41281617654863 81.2277094730956 l 22.379104630389886 -44.63138830866982 a70.92779933481154,70.92779933481154 0 0,0 1.0866797892564215,0.5566395949291425 l -23.144044907235063 44.23955618842818" fill="red" stroke="none" /><path d="M 109.73455568895987 81.39251694778311 l 26.006480677905806 -49.711066834899846 a77.10282705099777,77.10282705099777 0 0,0 1.1706961110419793,0.6253453187448068 l -26.858321835476097 49.256042789653286" fill="red" stroke="none" /><path d="M 110.36928655335952 81.73862282372117 l 27.724374924323268 -48.82546787229097 a77.14772727272728,77.14772727272728 0 0,0 1.1491457701801333,0.6656594023154513 l -28.560717426968733 48.34100431258547" fill="red" stroke="none" /><line stroke="#e1ed5e" stroke-width="0.3" x1="143.23703022742887" x2="145.7803849466894" y1="26.81831364943548" y2="22.513508569990506" /><path d="M 143.74570117128098 25.957352633546492 a86.0,86.0 0 0,1 28.547481713284135,27.462654790039103" fill="none" id="id122" stroke="none" /><text fill="#e1ed5e" style="font-size:6.75px; font-family:Arial;" text-anchor="middle"><textPath startOffset="19.985693538727396" xlink:href="#id122">February</textPath></text><line stroke="#e1ed5e" stroke-width="0.3" x1="172.23445277983987" x2="176.4835382374775" y1="55.19839476539836" y2="52.563006222186495" /><path d="M 173.08426987136738 54.67131705675599 a86.0,86.0 0 0,1 12.851231095245387,41.99856678651699" fill="none" id="id123" stroke="none" /><text fill="#e1ed5e" style="font-size:6.75px; font-family:Arial;" text-anchor="middle"><textPath startOffset="22.20632615414155" xlink:href="#id123">March</textPath></text><line stroke="#e1ed5e" stroke-width="0.3" x1="184.98032266829074" x2="189.97916517819016" y1="98.17113171792111" y2="98.06355123074" /><path d="M 185.9800911702706 98.14961562048488 a86.0,86.0 0 0,1 -9.607161424134198,41.387399972396054" fill="none" id="id124" stroke="none" /><text fill="#e1ed5e" style="font-size:6.75px; font-family:Arial;" text-anchor="middle"><textPath startOffset="21.466115282336823" xlink:href="#id124">April</textPath></text><line stroke="#e1ed5e" stroke-width="0.3" x1="174.80103733775053" x2="179.2010983576182" y1="140.37084112569926" y2="142.7455964860345" /><path d="M 175.68104954172406 140.8457921977663 a86.0,86.0 0 0,1 -30.038265399797805,32.042727171017184" fill="none" id="id125" stroke="none" /><text fill="#e1ed5e" style="font-size:6.75px; font-family:Arial;" text-anchor="middle"><textPath startOffset="22.206326154141568" xlink:href="#id125">May</textPath></text><line stroke="#e1ed5e" stroke-width="0.3" x1="143.8653032363475" x2="146.44561519142675" y1="172.8068346515853" y2="177.08958963109032" /><path d="M 144.38136562736335 173.6633856474863 a86.0,86.0 0 0,1 -40.68145358897372,12.25698825130547" fill="none" id="id126" stroke="none" /><text fill="#e1ed5e" style="font-size:6.75px; font-family:Arial;" text-anchor="middle"><textPath startOffset="21.466115282336833" xlink:href="#id126">June</textPath></text><line stroke="#e1ed5e" stroke-width="0.3" x1="102.19456741930631" x2="102.32365962044197" y1="184.97166512339345" y2="189.96999836594603" /><path d="M 102.22038585953345 185.97133177190398 a86.0,86.0 0 0,1 -42.740103519485714,-10.115201625700543" fill="none" id="id127" stroke="none" /><text fill="#e1ed5e" style="font-size:6.75px; font-family:Arial;" text-anchor="middle"><textPath startOffset="22.20632615414155" xlink:href="#id127">July</textPath></text><line stroke="#e1ed5e" stroke-width="0.3" x1="58.666819895761336" x2="56.23545636021788" y1="174.27360380694188" y2="178.64263932499728" /><path d="M 58.180547188652646 175.14741091055294 a86.0,86.0 0 0,1 -31.652253787137756,-30.449443065178592" fill="none" id="id128" stroke="none" /><text fill="#e1ed5e" style="font-size:6.75px; font-family:Arial;" text-anchor="middle"><textPath startOffset="22.20632615414155" xlink:href="#id128">August</textPath></text><line stroke="#e1ed5e" stroke-width="0.3" x1="26.63291911575756" x2="22.317208475507996" y1="142.92168965132927" y2="145.44649492493687" /><path d="M 25.769776987707644 143.4266507060508 a86.0,86.0 0 0,1 -11.730757126820373,-40.83630448921669" fill="none" id="id129" stroke="none" /><text fill="#e1ed5e" style="font-size:6.75px; font-family:Arial;" text-anchor="middle"><textPath startOffset="21.46611528233685" xlink:href="#id129">September</textPath></text><line stroke="#e1ed5e" stroke-width="0.3" x1="15.007084014347285" x2="10.007500721073583" y1="101.09737516637583" y2="101.16192664675087" /><path d="M 14.007167355692545 101.11028546245083 a86.0,86.0 0 0,1 10.666146001902534,-42.60595125391555" fill="none" id="id130" stroke="none" /><text fill="#e1ed5e" style="font-size:6.75px; font-family:Arial;" text-anchor="middle"><textPath startOffset="22.20632615414155" xlink:href="#id130">October</textPath></text><line stroke="#e1ed5e" stroke-width="0.3" x1="26.266209847984243" x2="21.928928074336255" y1="57.711370442889674" y2="55.22380399835377" /><path d="M 25.398753493254645 57.213857153982495 a86.0,86.0 0 0,1 29.58750427330803,-30.492523968695096" fill="none" id="id131" stroke="none" /><text fill="#e1ed5e" style="font-size:6.75px; font-family:Arial;" text-anchor="middle"><textPath startOffset="21.46611528233685" xlink:href="#id131">November</textPath></text><line stroke="#e1ed5e" stroke-width="0.3" x1="56.762969772571076" x2="54.21961505331055" y1="26.818313649435495" y2="22.513508569990535" /><path d="M 56.25429882871897 25.957352633546506 a86.0,86.0 0 0,1 42.265352541879196,-11.944610805530505" fill="none" id="id132" stroke="none" /><text fill="#e1ed5e" style="font-size:6.75px; font-family:Arial;" text-anchor="middle"><textPath startOffset="22.20632615414155" xlink:href="#id132">December</textPath></text></svg>